<svg xmlns="http://www.w3.org/2000/svg" xmlns:xlink="http://www.w3.org/1999/xlink" width="500" zoomAndPan="magnify" viewBox="0 0 375 374.999991" height="500" preserveAspectRatio="xMidYMid meet" version="1.0"><path fill="#2b0806" d="M 367.636719 44.722656 L 334.277344 11.410156 C 330.832031 7.964844 326.304688 6.238281 321.78125 6.238281 C 317.261719 6.238281 312.738281 7.957031 309.292969 11.402344 L 282.609375 38.007812 L 340.953125 96.253906 L 367.636719 69.652344 C 374.535156 62.761719 374.535156 51.589844 367.636719 44.722656 Z M 367.636719 44.722656 " fill-opacity="1" fill-rule="nonzero"/><path fill="#2b0806" d="M 109.382812 210.914062 L 167.734375 269.164062 L 328.464844 108.734375 L 270.113281 50.480469 Z M 109.382812 210.914062 " fill-opacity="1" fill-rule="nonzero"/><path fill="#2b0806" d="M 96.789062 223.378906 L 84.332031 294.039062 L 155.140625 281.621094 Z M 96.789062 223.378906 " fill-opacity="1" fill-rule="nonzero"/><path fill="#2b0806" d="M 258.09375 325.53125 L 38.089844 325.53125 L 38.089844 105.523438 L 193.351562 105.523438 L 231.613281 67.335938 L 24.59375 67.335938 C 11.003906 67.335938 -0.105469 78.449219 -0.105469 92.039062 L -0.105469 339.027344 C -0.105469 352.613281 11.003906 363.726562 24.59375 363.726562 L 271.582031 363.726562 C 285.167969 363.726562 296.28125 352.613281 296.28125 339.027344 L 296.28125 162.4375 L 258.09375 200.558594 Z M 258.09375 325.53125 " fill-opacity="1" fill-rule="nonzero"/></svg>