<svg xmlns="http://www.w3.org/2000/svg" xmlns:xlink="http://www.w3.org/1999/xlink" width="500" zoomAndPan="magnify" viewBox="0 0 375 374.999991" height="500" preserveAspectRatio="xMidYMid meet" version="1.0"><defs><clipPath id="b6f8b64eaf"><path d="M 85.296875 10.007812 L 290.046875 10.007812 L 290.046875 364.757812 L 85.296875 364.757812 Z M 85.296875 10.007812 " clip-rule="nonzero"/></clipPath></defs><g clip-path="url(#b6f8b64eaf)"><path stroke-linecap="butt" transform="matrix(0.021764, 0, 0, -0.021713, 86.671669, 364.440326)" fill="none" stroke-linejoin="miter" d="M 2114.131137 472.557544 C 2445.096446 936.709339 2776.061755 1400.861134 3292.970699 1728.465947 C 3810.059124 2056.070761 4513.091183 2247.128593 5018.154296 2146.382467 C 5523.21741 2045.816245 5830.311577 1653.266161 5932.616472 1291.659529 C 6035.100849 929.872995 5932.616472 598.850009 5598.240999 389.082182 C 5263.865527 179.134452 4697.239994 90.44188 3885.082714 49.423814 C 3072.925433 8.585652 2015.056923 15.421997 1344.511155 80.187364 C 673.965387 144.95273 390.742362 267.827023 238.90036 537.502814 C 87.058357 806.998702 66.597378 1223.296087 184.158267 1865.012929 C 301.898637 2506.549868 557.840357 3373.326359 936.727433 3920.953516 C 1315.435027 4468.760577 1817.087977 4697.418302 2202.795379 4670.072925 C 2588.323299 4642.727548 2857.905671 4359.558972 2939.92907 3883.533526 C 3021.772986 3407.328177 2916.057928 2738.445861 2718.088982 2183.98236 C 2520.120036 1629.518859 2230.076684 1189.294269 1922.982517 899.109445 C 1615.88835 609.104525 1291.563884 469.139372 984.469717 494.865615 C 677.37555 520.411954 387.332198 711.469786 208.208891 1407.697478 C 28.906101 2103.745267 -39.297162 3304.962917 110.9295 4417.487994 C 260.976679 5530.013072 629.633266 6553.845578 1054.467803 7297.747777 C 1479.302341 8041.649976 1960.494312 8505.801771 2255.742649 8788.970347 C 2550.811504 9072.138923 2660.116208 9174.684087 2687.397513 9357.106536 C 2714.678818 9539.70889 2660.116208 9802.548337 2462.147262 10239.354755 C 2264.178316 10676.161173 1922.982517 11286.934562 1747.269373 11732.376362 C 1571.376746 12177.638259 1561.146257 12457.568566 1508.378469 12836.266058 C 1455.431199 13215.143453 1359.767148 13692.788033 1383.817772 13928.282103 C 1407.688914 14163.776172 1550.915767 14156.939828 1709.578096 14047.738224 C 1868.240424 13938.536619 2042.338228 13726.969754 2144.822605 13537.531057 C 2247.1275 13348.092359 2277.818969 13180.961732 2289.844281 13102.343773 C 2301.690111 13024.085621 2294.869784 13034.160234 2255.742649 13117.815499 C 2216.436032 13201.470765 2144.822605 13358.346875 2144.822605 13517.022024 C 2144.822605 13675.877076 2216.436032 13836.171359 2243.717337 14032.446401 C 2270.998642 14228.541539 2253.947826 14460.617437 2283.023954 14532.219148 C 2311.9206 14604.000763 2387.123672 14515.128287 2431.455793 14358.252177 C 2475.787915 14201.376066 2489.428567 13976.136513 2523.530199 13858.299526 C 2557.631831 13740.642443 2612.194441 13730.387927 2726.524648 13801.989638 C 2840.854856 13873.771252 3014.952659 14027.229191 3241.818251 14098.830902 C 3468.863325 14170.612517 3748.676187 14160.358 4008.02807 14163.776172 C 4267.379953 14167.194345 4506.270857 14184.105301 4654.702696 14177.448861 C 4803.134535 14170.612517 4861.107308 14139.848968 4893.5936 14092.174461 C 4925.900409 14044.320052 4932.720735 13979.554685 4902.029266 13930.081141 C 4871.337798 13880.427693 4803.134535 13846.425875 4736.546612 13832.753187 C 4669.958689 13819.080498 4605.165589 13825.916843 4572.85878 13882.226731 C 4540.372489 13938.536619 4540.372489 14044.320052 4576.268943 14100.62994 C 4611.985915 14156.939828 4683.599342 14163.776172 4743.366938 14150.103484 C 4803.134535 14136.430795 4850.876819 14102.249074 4873.132621 14045.939186 C 4895.20894 13989.629297 4891.798777 13911.191242 4924.285068 13859.91866 C 4956.591877 13808.825982 5024.974623 13785.078681 5033.410289 13733.806099 C 5042.025439 13682.533517 4990.872991 13604.095461 4994.283154 13537.531057 C 4997.693317 13470.966652 5055.666091 13416.455802 5065.896581 13290.163336 C 5076.12707 13163.870871 5038.615275 12965.976695 4919.080082 12822.593369 C 4799.724371 12679.210043 4598.345262 12590.517472 4472.169225 12423.386845 C 4345.813706 12256.076314 4294.661258 12010.327728 4299.866244 11838.159794 C 4304.891748 11665.811957 4366.274685 11566.864869 4378.299997 11471.335953 C 4390.145827 11375.627134 4352.634032 11283.51639 4291.251095 11312.660805 C 4229.868158 11341.625316 4144.434597 11491.665082 4211.02252 11542.937664 C 4277.610442 11594.030343 4496.040367 11546.355836 4850.876819 11440.572404 C 5205.713271 11334.788972 5697.135731 11170.896613 6091.2788 11106.131246 C 6485.421869 11041.36588 6782.465029 11075.367697 6954.76801 11136.894796 C 7127.070992 11198.24199 7174.813276 11286.934562 7289.143483 11614.539375 C 7403.47369 11942.144189 7584.39182 12508.661244 7683.286552 12957.341313 C 7782.360766 13406.201285 7799.411582 13737.224271 7807.847249 13909.572108 C 7816.462398 14081.740041 7816.462398 14095.41273 7813.052235 14153.521656 C 7809.642072 14211.450679 7802.821745 14313.815939 7763.515128 14424.816581 C 7724.20851 14535.63732 7652.595084 14655.273345 7657.80007 14709.784195 C 7662.825573 14764.474949 7744.669489 14754.040529 7806.231908 14805.313111 C 7867.614845 14856.405789 7908.536803 14969.025566 7881.255498 15131.118886 C 7853.974193 15293.392111 7758.310142 15504.958976 7726.003333 15641.326054 C 7693.517042 15777.873035 7724.20851 15839.22023 7790.796433 15864.946473 C 7857.384356 15890.492812 7959.689251 15880.238295 8019.456848 15851.273784 C 8079.224444 15822.129369 8096.27526 15774.454863 8082.634607 15774.454863 C 8068.993955 15774.454863 8024.482351 15822.129369 8022.867011 15912.620979 C 8021.25167 16003.112588 8062.173628 16136.241398 8126.966728 16206.223975 C 8191.759829 16276.026648 8280.603553 16282.862992 8329.961178 16257.316653 C 8379.498285 16231.770314 8389.728775 16173.661387 8382.908448 16149.734183 C 8376.088122 16125.986881 8352.21698 16136.241398 8360.652646 16177.07956 C 8369.267796 16218.097625 8410.189754 16289.87924 8492.03367 16294.916546 C 8574.057068 16299.953853 8696.822942 16238.606658 8756.590538 16154.951393 C 8816.358135 16071.476031 8812.947972 15965.692599 8804.332823 15929.711839 C 8795.717674 15893.910984 8782.077021 15927.912801 8812.947972 15968.930867 C 8843.63944 16009.948933 8918.66303 16057.623439 8981.84079 16013.367105 C 9044.839067 15968.930867 9096.170997 15832.563789 9072.299855 15742.07218 C 9048.24923 15651.58057 8949.354498 15607.324236 8920.27837 15598.688854 C 8891.381725 15590.233375 8932.303683 15617.578752 9024.378088 15607.324236 C 9116.631976 15597.06972 9259.858829 15549.21531 9288.934957 15448.649087 C 9318.011085 15347.902961 9232.577523 15194.265119 9135.298132 15107.371585 C 9038.018741 15020.298148 8928.893519 14999.789115 8828.203965 14847.950311 C 8727.51441 14696.111506 8635.440005 14412.942931 8626.824856 14220.086061 C 8618.389189 14027.229191 8693.412779 13924.863931 8698.617764 13774.644261 C 8703.643268 13624.604494 8638.850168 13426.530414 8563.826578 12829.429713 C 8488.623506 12232.329013 8403.369427 11235.841884 8345.396653 10628.306763 C 8287.42388 10020.951546 8256.552929 9802.548337 8094.480437 9619.945983 C 7932.407946 9437.34363 7638.954431 9290.722035 7412.088839 9108.119682 C 7185.043765 8925.517328 7024.766097 8707.114119 6819.976824 8434.020156 C 6615.187552 8161.106097 6366.066159 7833.501283 6227.864809 7473.513786 C 6089.66346 7113.52629 6062.382154 6720.976205 6086.253297 6413.880425 C 6110.124439 6106.784644 6185.148028 5884.963263 6214.224156 5692.106393 C 6243.300285 5499.249523 6226.069986 5335.537068 6403.577953 4874.803445 C 6581.08592 4414.069822 6952.973188 3656.494935 7294.348469 2972.320797 C 7635.544268 2288.146659 7946.048598 1677.193365 8101.300764 1327.460385 C 8256.552929 977.727404 8256.552929 888.854929 8331.756001 805.379567 C 8406.77959 721.724302 8557.006252 643.286247 8642.260331 537.502814 C 8727.51441 431.719382 8747.975389 298.590573 8650.695998 223.570689 C 8553.596089 148.370902 8338.576327 131.280042 8159.45302 107.532741 C 7980.15023 83.605536 7836.923377 52.841986 7724.20851 126.242735 C 7611.673126 199.643484 7529.82921 377.028628 7500.753082 488.02927 C 7471.676954 598.850009 7495.548096 643.286247 7454.626138 766.16054 C 7413.70418 888.854929 7307.989122 1090.347181 7166.377609 1373.515757 C 7024.766097 1656.684333 6847.25813 2021.88904 6599.931559 2470.569108 C 6352.425506 2919.429081 6035.100849 3451.764415 5745.057498 3897.026311 C 5455.014146 4342.468111 5192.2521 4700.836474 5033.410289 5041.934072 C 4874.747961 5383.211574 4820.18535 5707.398216 4596.729922 6026.547551 C 4373.095011 6345.516982 3980.746765 6659.629011 3822.084436 6934.342108 C 3663.422108 7209.055206 3738.445698 7444.369371 3700.933903 7835.120418 C 3663.422108 8225.871464 3513.195446 8771.879486 3818.674273 9051.809794 C 4123.973618 9331.560197 4884.978451 9345.232886 5289.352009 8915.262812 C 5693.725568 8485.292738 5741.647335 7611.679902 5700.725377 6954.671237 C 5659.623936 6297.842476 5530.037736 5857.617886 5419.117692 5514.72125 C 5308.197648 5171.64471 5216.123242 4926.076027 5081.332056 4847.458068 C 4946.54087 4769.020013 4769.032903 4857.712585 4601.755426 4833.78538 C 4434.65743 4810.038079 4277.610442 4673.491097 4228.073335 4559.072282 C 4178.715711 4444.833372 4236.688484 4352.722628 4328.76289 4209.339302 C 4421.016778 4065.955976 4547.192815 3871.479972 4538.757148 3543.875158 C 4530.141999 3216.270345 4386.735664 2755.536722 4243.508811 2294.983003 " stroke="#000000" stroke-width="46.306" stroke-opacity="1" stroke-miterlimit="22.926001"/></g></svg>