<svg xmlns="http://www.w3.org/2000/svg" xmlns:xlink="http://www.w3.org/1999/xlink" width="500" zoomAndPan="magnify" viewBox="0 0 375 374.999991" height="500" preserveAspectRatio="xMidYMid meet" version="1.0"><path stroke-linecap="round" transform="matrix(-0.0191912, 0.0119971, 0.0352771, 0.0564572, 66.164633, 372.110162)" fill="none" stroke-linejoin="round" d="M -5783.62879 -994.337068 C -5313.258265 -1014.722191 -4842.887741 -1035.107314 -4440.928542 -1035.904292 C -4039.024254 -1036.620411 -3705.531292 -1017.748386 -3372.009749 -974.389343 C -3038.250378 -931.011649 -2704.316056 -863.178041 -2425.704338 -799.640426 C -2147.092621 -736.102812 -1923.803509 -676.861191 -1764.403798 -663.338582 C -1605.150457 -649.78487 -1509.695058 -681.900416 -1493.029675 -733.736073 C -1476.126463 -785.553078 -1537.921808 -857.040439 -1823.972064 -943.559655 C -2110.02232 -1030.07887 -2620.236028 -1131.580186 -3197.311154 -1197.701551 C -3774.53265 -1263.791812 -4418.560652 -1294.582981 -4965.033613 -1288.469587 C -5511.598032 -1282.405948 -5960.46104 -1239.468849 -6403.813822 -1207.043251 C -6847.166604 -1174.617654 -7284.86279 -1152.73466 -7603.64496 -1064.721369 C -7922.189301 -976.689426 -8121.965998 -822.496083 -8121.163976 -701.584848 C -8120.599783 -580.692265 -7919.603242 -493.050688 -7569.347851 -431.176107 C -7219.09246 -369.301526 -6719.523308 -333.274799 -6245.138666 -264.774107 C -5770.754024 -196.273414 -5321.352611 -95.410718 -4886.934476 -51.420602 C -4452.516342 -7.430485 -4033.172946 -20.362701 -3761.990896 -6.930866 C -3490.717387 6.550725 -3367.751595 46.427471 -3222.163324 112.009551 C -3076.721423 177.622735 -2908.894872 268.922602 -2819.783793 336.335146 C -2730.672714 403.747691 -2720.514937 447.254262 -2626.723537 468.491487 C -2533.023595 489.678957 -2355.690029 488.597081 -2262.323435 466.1968 C -2169.103211 443.827621 -2159.61213 400.158688 -2206.474219 370.678788 C -2253.098479 341.21754 -2356.112456 325.814713 -2361.36486 331.151402 C -2366.379436 336.506743 -2273.815355 362.50209 -2188.98201 363.91738 C -2104.057206 365.382424 -2027.100966 342.248758 -2030.69426 309.178652 C -2034.379013 276.058791 -2118.466929 232.971386 -2201.775869 213.450456 C -2284.938439 193.898422 -2367.267122 197.832005 -2499.410977 139.563865 C -2631.408463 81.264621 -2813.074751 -39.267449 -2984.491802 -116.243193 C -3156.000313 -193.268692 -3317.021759 -226.719214 -3444.440443 -244.546923 C -3571.767667 -262.324877 -3665.254301 -264.461367 -3856.617296 -327.927231 C -4047.980292 -391.393094 -4337.128191 -516.138576 -4617.5906 -626.746933 C -4897.96155 -737.305535 -5169.610464 -833.596399 -5432.155856 -907.328658 C -5694.554879 -981.092021 -5947.905294 -1032.215919 -6189.000254 -1076.672689 C -6430.003756 -1121.079703 -6658.751803 -1158.819589 -6910.265364 -1176.50014 C -7161.833835 -1194.099834 -7436.259277 -1191.689948 -7802.050967 -1241.752776 C -8168.080485 -1291.834256 -8625.47625 -1394.38845 -9021.24275 -1477.035374 C -9417.155619 -1559.651195 -9751.439222 -1622.359746 -10066.642065 -1738.247493 C -10381.60708 -1854.116587 -10677.582794 -2023.214632 -10843.850566 -2125.846871 C -11010.118338 -2228.47911 -11046.769626 -2264.695298 -11130.69705 -2350.991069 C -11214.770844 -2437.255737 -11345.736575 -2573.612438 -11510.304991 -2669.894405 C -11674.781948 -2766.126616 -11872.623762 -2822.265441 -12012.947964 -2872.91416 C -12153.327077 -2923.48202 -12236.09712 -2968.51002 -12271.375624 -3006.747661 C -12306.70904 -3044.904445 -12294.697286 -3076.239766 -12389.814241 -3127.98465 C -12484.931197 -3179.729534 -12687.176862 -3251.883979 -12775.187644 -3271.305239 C -12863.106967 -3290.676743 -12836.645037 -3257.346165 -12845.037709 -3215.847949 C -12853.338923 -3174.299978 -12896.165453 -3124.515962 -12905.632919 -3097.111584 C -12914.954015 -3069.73831 -12890.82459 -3064.694919 -12856.130196 -3086.45885 C -12821.435801 -3108.22278 -12776.322806 -3156.762928 -12785.142174 -3209.064221 C -12794.254281 -3261.303306 -12857.29875 -3317.303536 -12931.326219 -3354.917924 C -13005.500058 -3392.501209 -13090.419068 -3411.680002 -13136.672528 -3400.190658 C -13182.688159 -3388.682664 -13189.891869 -3346.537636 -13190.215647 -3307.515133 C -13190.832165 -3268.430423 -13184.513839 -3232.549096 -13254.42686 -3208.352092 C -13324.57771 -3184.17374 -13470.959907 -3171.679711 -13534.54048 -3154.778642 C -13598.121052 -3137.877574 -13578.753631 -3116.600569 -13483.47339 -3060.669822 C -13388.046779 -3004.770179 -13216.707347 -2914.216795 -13087.755879 -2772.312041 C -12958.95078 -2630.376183 -12872.533644 -2437.088956 -12785.912769 -2307.361004 C -12699.291894 -2177.633052 -12612.467281 -2111.464375 -12458.448885 -2090.017671 C -12304.576858 -2068.539864 -12083.36468 -2091.815134 -11933.472396 -2152.449874 C -11783.671572 -2213.134368 -11704.861355 -2311.109927 -11711.927076 -2411.178689 C -11719.139167 -2511.216347 -11812.227195 -2613.34721 -11891.209077 -2661.7402 C -11970.19096 -2710.133191 -12035.066696 -2704.78831 -12082.844561 -2675.193326 C -12130.384597 -2645.57969 -12160.826761 -2591.715951 -12151.886526 -2573.343208 C -12143.001203 -2554.889608 -12094.587112 -2571.958107 -12108.529972 -2621.510116 C -12122.381373 -2671.01237 -12198.443357 -2753.029237 -12380.648542 -2848.054237 C -12562.707356 -2943.110341 -12851.055743 -3051.143475 -13066.525454 -3133.149512 C -13282.086624 -3215.205304 -13424.769118 -3271.233998 -13556.646564 -3304.996469 C -13688.52401 -3338.758941 -13809.303667 -3350.317397 -13898.641194 -3340.673884 C -13987.97872 -3331.030371 -14045.544829 -3300.116483 -14040.341465 -3267.388515 C -14034.991731 -3234.691649 -13966.396867 -3200.143401 -13920.126492 -3207.415778 C -13873.801206 -3214.769013 -13849.562579 -3263.924223 -13864.797809 -3277.638191 C -13879.94158 -3291.302404 -13934.559209 -3269.525375 -13946.476427 -3247.550728 C -13958.393644 -3225.57608 -13927.518991 -3203.35406 -13875.767074 -3189.373852 C -13823.868787 -3175.424747 -13751.093236 -3169.717456 -13696.341005 -3155.544536 C -13641.735145 -3141.340512 -13604.914777 -3118.65221 -13586.201042 -3112.457992 C -13567.432395 -3106.344633 -13566.441093 -3116.656954 -13581.239567 -3123.268021 C -13595.745301 -3129.941296 -13626.004264 -3132.782705 -13664.151376 -3126.406235 C -13702.06066 -3120.011114 -13748.004464 -3104.367012 -13821.15273 -3089.238245 C -13894.154626 -3074.140583 -13994.452443 -3059.608011 -14054.449576 -3035.442434 C -14114.59308 -3011.245753 -14134.490811 -2977.335209 -14169.514674 -2955.086129 C -14204.538537 -2932.83705 -14254.743443 -2922.168579 -14307.966664 -2912.588457 C -14361.244797 -2902.927478 -14417.541245 -2894.354849 -14441.804289 -2882.418413 C -14465.920962 -2870.513081 -14457.94932 -2855.3248 -14452.059603 -2851.456332 C -14446.261344 -2847.637619 -14442.782839 -2855.157369 -14415.210551 -2860.532115 C -14387.729721 -2865.956615 -14336.539307 -2869.223659 -14315.496946 -2878.815155 C -14294.509497 -2888.325794 -14303.670101 -2904.160885 -14321.780898 -2907.923214 C -14339.891695 -2911.685543 -14367.044142 -2903.424863 -14396.61088 -2897.141973 C -14426.177618 -2890.859083 -14458.012275 -2886.585086 -14465.59258 -2867.676901 C -14473.081427 -2848.718962 -14456.133003 -2815.027326 -14431.879917 -2796.518256 C -14407.681743 -2777.928328 -14376.380189 -2774.409005 -14375.285582 -2764.955074 C -14373.953147 -2755.482492 -14402.736201 -2740.025548 -14406.637444 -2726.534857 C -14410.300858 -2713.025515 -14389.22883 -2701.451322 -14298.894131 -2683.423356 C -14208.321602 -2665.376738 -14048.724231 -2640.894998 -13916.14931 -2614.061312 C -13783.428018 -2587.25873 -13677.491349 -2558.08555 -13621.807798 -2538.644562 C -13566.032788 -2519.15382 -13560.419438 -2509.345515 -13579.047509 -2497.776229 C -13597.675579 -2486.206943 -13640.3987 -2472.907779 -13636.487603 -2460.592872 C -13632.430136 -2448.309069 -13581.976279 -2437.028175 -13501.643132 -2436.732285 C -13421.547814 -2436.455047 -13311.628117 -2447.081956 -13313.362933 -2456.884169 C -13315.24412 -2466.655279 -13428.688362 -2475.55194 -13507.886734 -2477.334379 C -13587.085107 -2479.116818 -13632.037609 -2473.785035 -13763.824786 -2447.925321 C -13895.611963 -2422.065607 -14113.904527 -2375.609556 -14350.182857 -2379.576139 C -14586.461187 -2383.542723 -14840.780193 -2437.851084 -15086.641761 -2507.932922 C -15332.503329 -2578.014759 -15569.907459 -2663.870074 -15713.868201 -2727.23799 C -15857.682574 -2790.637009 -15907.907189 -2831.579732 -15963.95748 -2848.451966 C -16019.8614 -2865.355302 -16081.444627 -2858.219252 -16140.863238 -2868.840561 C -16200.373308 -2879.511624 -16257.572392 -2907.971148 -16330.379421 -2929.308582 C -16403.186451 -2950.646017 -16491.692883 -2964.911116 -16550.365083 -2964.274765 C -16609.037282 -2963.638413 -16637.820336 -2948.18147 -16642.873269 -2937.421195 C -16647.834744 -2926.611167 -16629.121008 -2920.416949 -16631.131106 -2927.600654 C -16632.994834 -2934.815462 -16655.966594 -2955.395739 -16692.078002 -2964.189222 C -16728.280869 -2973.032459 -16777.714843 -2970.138657 -16809.038021 -2963.482526 C -16840.361198 -2956.826395 -16853.573579 -2946.407935 -16847.320019 -2936.251347 C -16841.304287 -2926.113411 -16815.767703 -2916.318204 -16810.681482 -2916.983882 C -16805.741631 -2917.618456 -16821.105772 -2928.745018 -16841.722317 -2934.534891 C -16862.247404 -2940.275009 -16887.969983 -2940.759296 -16904.512146 -2930.0484 C -16920.907938 -2919.368607 -16928.214773 -2897.543385 -16918.797614 -2883.008222 C -16909.526824 -2868.441956 -16883.861329 -2861.234155 -16872.427011 -2861.103919 C -16861.084152 -2861.023438 -16863.97247 -2868.020522 -16881.296686 -2871.465671 C -16899.09656 -2874.948123 -16931.240873 -2874.828886 -16947.947408 -2864.982524 C -16964.562483 -2855.086408 -16965.794692 -2835.38231 -16929.504349 -2814.311115 C -16893.214007 -2793.239921 -16819.547484 -2770.770527 -16786.399117 -2764.253362 C -16753.250751 -2757.736197 -16760.711999 -2767.221015 -16777.580733 -2764.881845 C -16794.449467 -2762.542674 -16820.908603 -2748.479023 -16826.91448 -2732.811362 C -16833.066727 -2717.112598 -16818.619345 -2699.840927 -16739.972621 -2689.500142 C -16661.088069 -2679.140705 -16517.857805 -2675.743258 -16398.975164 -2681.494207 C -16280.183982 -2687.29491 -16185.83188 -2702.293763 -16172.851534 -2730.444623 C -16159.871188 -2758.595482 -16228.262597 -2799.898348 -16305.442 -2821.621261 C -16382.676314 -2843.263315 -16468.552251 -2845.356519 -16512.704154 -2826.633716 C -16556.801146 -2807.991772 -16559.027734 -2768.564924 -16532.966918 -2739.43886 C -16506.668274 -2710.294145 -16451.990767 -2691.400459 -16357.799158 -2663.190947 C -16263.607548 -2634.981435 -16129.718918 -2597.356586 -15965.872213 -2531.918163 C -15801.934049 -2466.429985 -15607.946352 -2373.078478 -15407.961649 -2268.270454 C -15207.830577 -2163.493533 -15001.647587 -2047.340953 -14799.985049 -1982.258304 C -14598.17614 -1917.206759 -14400.83277 -1903.306003 -14073.759835 -1833.114896 C -13746.833271 -1762.892686 -13290.268599 -1636.42988 -13079.985336 -1582.934845 C -12869.555703 -1529.470914 -12905.31602 -1548.925 -13020.484837 -1654.874037 C -13135.562194 -1760.77332 -13329.718764 -1953.099148 -13399.141437 -2085.651419 C -13468.56411 -2218.20369 -13413.015057 -2290.963754 -13457.334125 -2320.499716 C -13501.561735 -2349.985922 -13645.748926 -2336.29778 -13606.309934 -2209.205427 C -13566.962401 -2082.162828 -13344.135057 -1841.684915 -13025.470831 -1625.03168 C -12706.715146 -1408.32869 -12292.323861 -1215.338416 -11648.275814 -1022.09451 C -11004.136308 -828.800849 -10130.340039 -635.253556 -9500.168896 -525.40935 C -8870.052664 -415.484286 -8483.268818 -389.324517 -8167.733325 -339.583452 C -7852.197831 -289.842387 -7607.819233 -216.47027 -7378.280544 -134.893859 C -7148.595485 -53.348552 -6933.805247 36.481909 -6703.357844 80.572068 C -6472.818981 124.711981 -6226.677865 123.192449 -5854.206696 111.779393 C -5481.881898 100.397441 -4983.172136 79.041105 -4675.745783 86.500815 C -4368.227972 94.01028 -4251.883747 130.174076 -4149.801194 196.559938 C -4047.8101 262.896046 -3960.025766 359.373363 -3913.878715 449.476849 C -3867.823122 539.53058 -3863.313354 623.260235 -3795.071392 674.004633 C -3726.683061 724.717928 -3594.471077 742.495721 -3498.620358 732.298438 C -3402.769638 722.101155 -3343.518012 683.910145 -3398.393178 654.057328 C -3453.359803 624.154755 -3622.544681 602.540621 -3666.39968 608.46946 C -3710.401049 614.429402 -3628.926169 647.901214 -3544.729051 636.790018 C -3460.531933 625.678823 -3373.758946 570.015723 -3346.864036 510.125197 C -3319.969126 450.234671 -3353.098663 386.147823 -3383.615164 331.676568 C -3413.985294 277.174209 -3441.742387 232.287443 -3498.222373 186.723679 C -3554.464531 141.178565 -3639.521039 94.906698 -3684.774325 68.959544 C -3730.027612 43.012389 -3735.331306 37.358843 -3740.78137 31.736401 " stroke="#000000" stroke-width="16.24" stroke-opacity="1" stroke-miterlimit="22.926001"/></svg>