<svg xmlns="http://www.w3.org/2000/svg" xmlns:xlink="http://www.w3.org/1999/xlink" width="500" zoomAndPan="magnify" viewBox="0 0 375 374.999991" height="500" preserveAspectRatio="xMidYMid meet" version="1.0"><defs><clipPath id="0360a9ccaf"><path d="M 7.40625 37.5 L 367.40625 37.5 L 367.40625 332.25 L 7.40625 332.25 Z M 7.40625 37.5 " clip-rule="nonzero"/></clipPath></defs><g clip-path="url(#0360a9ccaf)"><path stroke-linecap="butt" transform="matrix(0.0220435, 0, 0, -0.0220778, 7.565353, 331.899089)" fill="none" stroke-linejoin="miter" d="M 15131.699591 8114.085289 C 15198.506392 8357.719281 15322.373643 8814.024337 15351.7899 9377.726513 C 15381.028951 9941.605619 15315.817008 10612.881845 15025.730182 11176.760951 C 14735.643357 11740.463127 14220.858857 12196.768184 13588.586534 12460.74924 C 12956.314211 12724.730297 12206.731272 12796.387353 11861.35606 12890.868509 C 11515.803642 12985.349664 11574.636156 13102.654919 11936.314354 13184.220112 C 12298.169759 13265.785304 12962.870847 13311.256572 13728.756771 13128.840708 C 14494.642696 12946.247913 15361.359044 12535.767986 15798.172743 11668.806071 C 16234.809234 10801.844156 16241.36587 9478.754116 16159.850941 8712.996735 C 16078.336011 7947.062423 15908.926723 7738.637701 15902.370087 7572.322558 C 15895.813452 7406.184346 16052.286675 7282.332644 16153.294305 6982.611525 C 16254.479141 6682.713475 16300.021178 6206.946008 16172.964212 5711.5392 C 16045.730039 5216.132391 15746.07407 4701.263172 15625.396533 4307.060898 C 15504.718996 3912.681692 15563.551511 3638.96943 15680.862127 3280.330287 C 15798.172743 2921.868075 15974.138666 2478.655913 15961.025395 2143.0178 C 15948.08933 1807.379687 15746.07407 1579.315624 15485.226296 1263.139922 C 15224.555728 946.964219 14905.229852 543.03074 14621.699662 308.243299 C 14338.169473 73.632789 14090.434969 8.52218 13924.392602 31.346279 C 13758.173029 54.170378 13673.291178 164.929186 13696.1508 259.410342 C 13719.010421 353.891497 13849.257102 432.095001 13888.419709 370.16915 C 13927.582317 308.243299 13875.483644 106.188093 13719.010421 73.632789 C 13562.537198 41.077484 13301.86663 178.02208 13308.246059 321.336193 C 13314.979901 464.650305 13588.586534 614.687796 13771.109093 676.613647 C 13953.631653 738.539498 14044.715726 712.353709 14191.442599 826.474206 C 14338.169473 940.594703 14540.184733 1194.667624 14644.559284 1422.908618 C 14748.756628 1650.97268 14755.313264 1853.027886 14631.446012 2087.638396 C 14507.578761 2322.248906 14253.464828 2589.591651 14109.92767 2758.914621 C 13966.567718 2928.414522 13933.961746 3000.071578 13745.059757 3224.950883 C 13555.980562 3449.830188 13210.60535 3827.931741 13226.908336 4512.300861 C 13243.211322 5196.669981 13621.192506 6187.306667 14100.18132 6392.723561 C 14579.34734 6597.963525 15159.343784 6017.806766 15123.548098 5304.244031 C 15087.752411 4590.504364 14435.810182 3743.181791 14061.018712 3293.423181 C 13686.404449 2843.664572 13588.586534 2791.646857 13627.749141 2605.869304 C 13666.734542 2420.091751 13842.877673 2100.73129 13826.574687 1813.926134 C 13810.271701 1527.120978 13601.522599 1272.871127 13441.859661 1119.825809 C 13282.373929 966.603561 13171.442743 914.408915 13018.33644 901.492952 C 12865.052931 888.400057 12669.594307 914.408915 12568.586677 826.474206 C 12467.579047 738.539498 12461.022411 536.484293 12532.79099 422.363796 C 12604.382363 308.243299 12754.298951 282.234441 12796.651273 327.88264 C 12839.180802 373.530839 12773.968858 490.836094 12734.806251 503.752057 C 12695.643643 516.844951 12682.530372 425.548554 12728.249615 373.530839 C 12773.968858 321.336193 12878.166203 308.243299 12995.476819 331.067398 C 13112.787435 353.891497 13243.211322 412.63259 13415.987531 503.752057 C 13588.586534 595.048455 13803.715065 718.900157 13992.617054 859.029511 C 14181.696249 999.158865 14344.726108 1155.565872 14455.480089 1351.07463 C 14566.234069 1546.583389 14624.889377 1781.37083 14615.143027 1996.341998 C 14605.396676 2211.490098 14527.248668 2406.998856 14403.381416 2583.045204 C 14279.514165 2758.914621 14109.92767 2915.498559 13872.116723 2866.488671 C 13634.128571 2817.655714 13327.915966 2563.405863 12884.722838 2270.231191 C 12441.529711 1976.879588 11861.35606 1644.426233 11362.874546 1351.07463 C 10864.215825 1057.899958 10447.072033 803.650107 9948.413313 709.168951 C 9449.754592 614.687796 8869.758148 679.798405 8286.394782 761.363597 C 7703.031417 842.751859 7116.478338 940.594703 6656.982224 969.788319 C 6197.486111 999.158865 5865.046964 960.057114 5135.133932 823.289448 C 4405.043694 686.344852 3277.479571 451.734342 2531.263553 298.512093 C 1784.870329 145.289845 1419.82521 73.632789 1116.80232 112.73454 C 813.77943 151.836292 572.601562 301.873783 536.805876 383.262044 C 500.832983 464.650305 670.419478 477.7432 696.468814 484.289647 C 722.51815 490.836094 605.207534 490.836094 435.798246 539.669051 C 266.211751 588.502007 44.703791 686.344852 51.08322 764.548355 C 57.639856 842.751859 292.261087 901.492952 364.029667 907.862468 C 435.798246 914.408915 344.536966 868.760716 240.162415 904.67771 C 135.96507 940.594703 18.477248 1057.899958 28.400805 1126.372257 C 38.147155 1194.667624 174.950471 1214.306965 279.325023 1201.214071 C 383.522367 1188.121177 455.290946 1142.649909 465.037297 1129.557015 C 474.783647 1116.46412 422.684975 1136.103462 422.684975 1178.389971 C 422.684975 1220.853412 474.783647 1285.964021 572.601562 1299.056915 C 670.419478 1311.972879 813.77943 1272.871127 924.53341 1188.121177 C 1035.28739 1103.548157 1113.612605 973.150008 1263.529193 901.492952 C 1413.445781 829.658964 1634.953741 816.743001 1980.328954 862.3912 C 2325.881372 907.862468 2795.123836 1012.25176 3156.802034 1175.205213 C 3518.657438 1338.158667 3772.771371 1559.676283 4043.365496 1654.157439 C 4313.782414 1748.815525 4600.502318 1716.08329 4815.630849 1791.102035 C 5030.759381 1866.12078 5174.119333 2048.536644 5249.077627 2156.110694 C 5324.035921 2263.684744 5330.592556 2296.240048 5262.190898 2293.05529 C 5193.612033 2289.693601 5050.252081 2250.59185 4977.065851 2244.930058 C 4903.702415 2239.268265 4900.335494 2266.869502 4900.335494 2292.170635 C 4900.335494 2317.471769 4903.702415 2340.295868 4857.983171 2368.78176 C 4812.441135 2397.267651 4717.812934 2431.415335 4644.626704 2479.540568 C 4571.263267 2527.6658 4519.164595 2589.591651 4470.255637 2644.0864 C 4421.346679 2698.75808 4375.627436 2745.998658 4373.323754 2784.215755 C 4370.842864 2822.609782 4411.600329 2851.803398 4450.58573 2845.433882 C 4489.748338 2838.887435 4527.138881 2796.423994 4533.695517 2756.614518 C 4540.252153 2716.628112 4515.797674 2679.118739 4483.191702 2670.979913 C 4450.58573 2662.841087 4410.005472 2684.072807 4385.550993 2725.651593 C 4361.096514 2767.053447 4352.945021 2828.979298 4387.14585 2899.043976 C 4421.346679 2969.108653 4497.899831 3047.489087 4541.84701 3163.025032 C 4585.971396 3278.737908 4597.312603 3431.960157 4608.653811 3558.996617 C 4620.172225 3686.210008 4631.513433 3787.237611 4680.42239 3897.996419 C 4729.331348 4008.755227 4815.630849 4129.422171 4910.081844 4223.903326 C 5004.710045 4318.384482 5107.312532 4386.85678 5222.142259 4395.70333 C 5337.149192 4404.726811 5464.206158 4354.301475 5504.077591 4321.56924 C 5543.949024 4289.013935 5496.81213 4274.328662 5424.334725 4284.236798 C 5351.680114 4293.968003 5254.039405 4328.115687 5187.232604 4443.828563 C 5120.425803 4559.541439 5084.45291 4756.642576 5057.694749 4895.179552 C 5030.759381 5033.716527 5012.861537 5113.512409 5050.252081 5151.906437 C 5087.819831 5190.123534 5180.675968 5186.938776 5329.706524 5134.74413 C 5478.914287 5082.549484 5684.119261 4981.521881 5794.164416 4896.771931 C 5904.032365 4812.02198 5918.740493 4743.726613 5823.403467 4793.444225 C 5728.066441 4842.984906 5522.861466 5010.892428 5428.233265 5113.512409 C 5333.782271 5216.132391 5350.085257 5253.641764 5420.967804 5274.873484 C 5491.850352 5296.105204 5617.31246 5300.882342 5779.456288 5231.702319 C 5941.600115 5162.345366 6140.42566 5019.031254 6260.925991 4918.888306 C 6381.603528 4818.568427 6423.95585 4761.596644 6400.210196 4760.711989 C 6376.641749 4760.004265 6286.975327 4815.383669 6351.478445 4812.02198 C 6415.804357 4808.837222 6634.122603 4746.911371 6829.581227 4671.892626 C 7025.217058 4597.050812 7197.816061 4508.939172 7335.682616 4425.073877 C 7473.194758 4341.208581 7575.974451 4261.412699 7713.6638 4181.439885 C 7851.353148 4101.644003 8023.952151 4021.848121 8161.641499 3882.42649 C 8299.330847 3743.181791 8402.110541 3544.311344 8390.592127 3477.608356 C 8379.25092 3410.728436 8253.788811 3476.015976 8261.940304 3514.233073 C 8270.091797 3552.45017 8411.856891 3563.950685 8534.838111 3566.427719 C 8657.819331 3568.904753 8762.193882 3562.358306 8925.046535 3671.524735 C 9088.076394 3780.691164 9309.584354 4005.570468 9598.076322 4201.079227 C 9886.56829 4396.587985 10241.689852 4562.726197 10614.886464 4918.003651 C 10988.083076 5273.281105 11379.177532 5817.52087 11755.563858 6321.066505 C 12131.950185 6824.435208 12493.628383 7287.286712 12843.965374 7552.860148 C 13194.302364 7818.433583 13533.120941 7886.905881 13831.359259 7891.683019 C 14129.597577 7896.637087 14387.07843 7838.072925 14564.639212 7803.74831 C 14742.199993 7769.600627 14840.017908 7759.869421 14906.824709 7764.646558 C 14973.63151 7769.600627 15009.427196 7789.063037 15032.286818 7814.36417 C 15055.146439 7839.665304 15064.89279 7870.628229 15131.699591 8114.085289 Z M 15131.699591 8114.085289 " stroke="#000000" stroke-width="46.609001" stroke-opacity="1" stroke-miterlimit="22.926001"/></g></svg>