<svg xmlns="http://www.w3.org/2000/svg" xmlns:xlink="http://www.w3.org/1999/xlink" width="500" zoomAndPan="magnify" viewBox="0 0 375 374.999991" height="500" preserveAspectRatio="xMidYMid meet" version="1.0"><defs><filter x="0%" y="0%" width="100%" height="100%" id="id1"><feColorMatrix values="0 0 0 0 1 0 0 0 0 1 0 0 0 0 1 0 0 0 1 0" color-interpolation-filters="sRGB"/></filter><mask id="id2"><g filter="url(#id1)"><rect x="-37.5" width="450" fill="#000000" y="-37.499999" height="449.999989" fill-opacity="0.298"/></g></mask><clipPath id="id3"><path d="M 1 0.519531 L 299.800781 0.519531 L 299.800781 263.558594 L 1 263.558594 Z M 1 0.519531 " clip-rule="nonzero"/></clipPath><clipPath id="id4"><rect x="0" width="300" y="0" height="264"/></clipPath><mask id="id5"><g filter="url(#id1)"><rect x="-37.5" width="450" fill="#000000" y="-37.499999" height="449.999989" fill-opacity="0.2"/></g></mask><clipPath id="id6"><path d="M 0.199219 0.160156 L 273.800781 0.160156 L 273.800781 104.558594 L 0.199219 104.558594 Z M 0.199219 0.160156 " clip-rule="nonzero"/></clipPath><clipPath id="id7"><rect x="0" width="274" y="0" height="105"/></clipPath></defs><path fill="#f6f2ef" d="M 63.765625 315.921875 C 63.765625 315.921875 62.085938 315.921875 60.058594 304.800781 C 57.46875 290.878906 63.207031 265.066406 64.046875 263.039062 C 58.167969 258.628906 35.5 237.433594 36.621094 208.121094 C 37.738281 178.8125 59.640625 149.222656 59.640625 149.222656 C 59.640625 149.222656 62.925781 87.03125 95.882812 51.773438 C 107.84375 52.960938 141.707031 82.132812 147.863281 87.589844 C 163.46875 82.832031 207.894531 83.464844 224.40625 87.449219 C 224.40625 87.449219 246.9375 61.636719 278 53.171875 C 283.25 55.0625 318.652344 114.382812 312.074219 149.78125 C 322.707031 159.433594 358.878906 214.417969 309.136719 265.625 C 318.652344 292.347656 312.632812 315.992188 312.632812 315.992188 Z M 63.765625 315.921875 C 63.765625 315.921875 60.058594 314.035156 59.078125 307.25 C 56.910156 292.417969 63.066406 265.484375 64.046875 262.96875 C 58.167969 258.628906 35.5 237.433594 36.621094 208.121094 C 37.738281 178.8125 59.640625 149.222656 59.640625 149.222656 C 59.640625 149.222656 61.527344 85.492188 94.480469 50.164062 C 106.445312 51.355469 142.40625 80.59375 148.566406 86.121094 C 164.167969 81.363281 207.964844 83.394531 224.476562 87.378906 C 224.476562 87.378906 247.074219 60.097656 278.210938 51.632812 C 283.457031 53.523438 318.789062 114.3125 312.144531 149.710938 C 322.777344 159.363281 358.949219 214.347656 309.207031 265.554688 C 318.71875 292.277344 312.074219 315.921875 312.074219 315.921875 Z M 63.765625 315.921875 " fill-opacity="1" fill-rule="nonzero"/><path fill="#a28d74" d="M 168.925781 85.210938 C 168.925781 85.210938 210.0625 131.03125 156.679688 173.214844 C 103.296875 215.398438 35.429688 194.132812 44.597656 175.945312 C 44.597656 175.945312 53.480469 153.417969 61.878906 148.101562 C 56.769531 134.601562 68.804688 96.824219 79.789062 74.4375 C 79.789062 74.4375 90.84375 53.3125 95.882812 51.773438 C 100.917969 50.234375 133.59375 72.96875 146.746094 85.070312 C 155.140625 86.121094 168.925781 85.210938 168.925781 85.210938 Z M 274.921875 240.863281 C 268.414062 230.71875 250.433594 216.097656 247.496094 236.59375 C 240.21875 230.859375 231.964844 233.375 233.011719 246.878906 C 227.835938 241.632812 215.589844 240.230469 214.050781 263.457031 C 212.511719 286.683594 224.898438 316.0625 224.898438 316.0625 L 285.90625 316.0625 C 285.835938 316.0625 281.429688 251.074219 274.921875 240.863281 Z M 274.921875 240.863281 " fill-opacity="1" fill-rule="nonzero"/><g mask="url(#id2)"><g transform="matrix(1, 0, 0, 1, 35, 53)"><g clip-path="url(#id4)"><g clip-path="url(#id3)"><path fill="#ffc4e6" d="M 58.710938 58.515625 C 58.710938 58.515625 48.636719 74.046875 40.382812 88.035156 C 40.171875 39.835938 63.960938 18.851562 63.960938 18.851562 C 57.941406 31.933594 58.710938 58.515625 58.710938 58.515625 Z M 243.628906 58.515625 C 243.628906 58.515625 252.796875 74.046875 260.980469 88.035156 C 261.191406 39.835938 237.402344 18.851562 237.402344 18.851562 C 243.492188 31.933594 243.628906 58.515625 243.628906 58.515625 Z M 40.382812 183.734375 C 1.058594 153.304688 16.453125 110.703125 16.453125 110.703125 C -5.167969 133.925781 -3.136719 182.964844 22.121094 207.589844 C 23.9375 209.339844 25.96875 211.015625 28.136719 212.625 C 31.773438 203.53125 36.882812 191.78125 40.382812 183.734375 Z M 284.492188 110.703125 C 284.492188 110.703125 299.671875 152.746094 261.261719 183.175781 C 264.480469 191.011719 269.867188 203.882812 273.714844 211.925781 C 275.535156 210.527344 277.285156 209.058594 278.824219 207.589844 C 304.011719 182.964844 306.039062 133.925781 284.492188 110.703125 Z M 56.613281 215.773438 C 56.613281 215.773438 59.761719 196.394531 71.933594 198.984375 C 76.761719 200.035156 79.070312 205.839844 76.972656 211.367188 C 82.148438 201.921875 87.257812 203.042969 89.425781 203.742188 C 91.59375 204.441406 96.351562 208.078125 93.835938 216.472656 C 99.292969 207.730469 106.21875 210.527344 107.6875 212.976562 C 109.15625 215.355469 112.445312 218.710938 103.839844 244.59375 C 99.640625 256.277344 97.121094 263.0625 97.121094 263.0625 L 53.113281 263.0625 Z M 249.226562 263.0625 L 205.21875 263.0625 C 205.21875 263.0625 202.699219 256.277344 198.503906 244.59375 C 189.898438 218.710938 193.183594 215.355469 194.65625 212.976562 C 196.125 210.597656 203.050781 207.730469 208.507812 216.472656 C 205.917969 208.078125 210.675781 204.441406 212.914062 203.742188 C 215.085938 203.042969 220.191406 201.921875 225.371094 211.367188 C 223.269531 205.839844 225.578125 200.035156 230.40625 198.984375 C 242.582031 196.394531 245.730469 215.773438 245.730469 215.773438 Z M 180.3125 230.953125 L 179.121094 223.121094 C 170.308594 224.589844 160.863281 226.335938 150.785156 226.335938 C 140.710938 226.335938 131.335938 224.589844 122.449219 223.121094 L 121.261719 230.953125 C 121.261719 230.953125 118.8125 239.839844 115.804688 247.953125 C 127.90625 250.960938 150.714844 251.800781 150.714844 251.800781 C 150.714844 251.800781 173.523438 250.960938 185.628906 247.953125 C 183.25 239.277344 180.3125 230.953125 180.3125 230.953125 Z M 206.269531 38.929688 C 206.269531 38.929688 226.277344 11.714844 242.722656 2.410156 C 243.351562 0.03125 233.695312 -1.785156 219.492188 9.128906 C 205.289062 20.109375 188.988281 34.3125 188.988281 34.3125 Z M 96.703125 38.929688 C 96.703125 38.929688 86.628906 11.925781 60.25 2.410156 C 60.53125 -0.316406 69.625 -0.316406 81.3125 7.097656 C 92.996094 14.511719 115.664062 33.820312 115.664062 33.820312 Z M 96.703125 38.929688 " fill-opacity="1" fill-rule="nonzero"/></g></g></g></g><path fill="#f6f2ef" d="M 94.480469 53.171875 C 94.480469 53.171875 69.222656 100.042969 70.972656 151.808594 C 55.929688 163.703125 48.09375 175.945312 40.117188 196.441406 C 39.839844 183.988281 47.253906 169.859375 59.640625 149.289062 C 61.527344 122.917969 67.335938 77.515625 94.480469 53.171875 Z M 60.269531 262.757812 C 60.269531 262.757812 62.855469 263.039062 64.886719 253.734375 C 39.488281 228.269531 39.699219 197.769531 39.699219 197.769531 C 26.40625 226.871094 60.269531 262.757812 60.269531 262.757812 Z M 332.574219 197.769531 C 332.574219 197.769531 332.785156 228.269531 307.386719 253.734375 C 309.414062 263.109375 312.003906 262.757812 312.003906 262.757812 C 312.003906 262.757812 345.867188 226.871094 332.574219 197.769531 Z M 332.574219 197.769531 " fill-opacity="1" fill-rule="nonzero"/><path fill="#89e3f7" d="M 138.769531 157.195312 C 138.769531 157.195312 122.257812 177.972656 107.285156 204.765625 C 89.863281 236.105469 89.933594 316.0625 89.933594 316.0625 L 50.753906 316.0625 C 50.753906 316.0625 50.683594 236.804688 72.441406 203.085938 C 94.480469 168.878906 103.578125 168.808594 103.578125 168.808594 Z M 232.941406 157.195312 C 232.941406 157.195312 249.453125 177.972656 264.425781 204.765625 C 281.847656 236.035156 281.777344 316.0625 281.777344 316.0625 L 320.960938 316.0625 C 320.960938 316.0625 321.03125 236.804688 299.269531 203.085938 C 277.230469 168.878906 268.136719 168.808594 268.136719 168.808594 Z M 232.941406 157.195312 " fill-opacity="1" fill-rule="nonzero"/><g mask="url(#id5)"><g transform="matrix(1, 0, 0, 1, 49, 212)"><g clip-path="url(#id7)"><g clip-path="url(#id6)"><path fill="#2b0806" d="M 273.640625 104.0625 L 235.226562 104.0625 C 235.226562 104.0625 228.722656 37.046875 226.691406 18.230469 C 258.246094 115.464844 243.902344 21.65625 241.175781 7.527344 C 250.199219 24.664062 255.378906 88.183594 261.253906 71.183594 C 267.0625 54.1875 251.949219 -0.449219 252.648438 0.671875 C 272.589844 31.589844 273.640625 104.0625 273.640625 104.0625 Z M 0.703125 104.0625 L 39.113281 104.0625 C 39.113281 104.0625 45.621094 37.046875 47.652344 18.230469 C 16.097656 115.464844 30.4375 21.65625 33.167969 7.527344 C 24.140625 24.664062 18.964844 88.183594 13.085938 71.183594 C 7.28125 54.1875 22.394531 -0.378906 21.691406 0.671875 C 1.824219 31.589844 0.703125 104.0625 0.703125 104.0625 Z M 0.703125 104.0625 " fill-opacity="1" fill-rule="nonzero"/></g></g></g></g><path fill="#2b0806" d="M 209.925781 128.375 C 205.308594 125.574219 208.734375 118.652344 213.351562 121.449219 C 217.199219 124.246094 219.648438 127.394531 226.296875 128.585938 C 228.535156 129.003906 230.5625 129.703125 230.5625 131.730469 C 230.632812 133.691406 227.625 134.25 225.386719 133.902344 C 220.140625 133.0625 214.472656 131.171875 209.925781 128.375 Z M 319.628906 258.210938 C 356.921875 214.070312 329.773438 167.6875 315.921875 149.710938 C 314.3125 87.589844 284.085938 47.714844 276.460938 48.625 C 250.574219 55.550781 225.667969 80.945312 222.027344 84.722656 C 207.125 80.804688 193.34375 80.386719 186.554688 80.523438 C 179.769531 80.457031 165.984375 80.804688 151.082031 84.722656 C 147.375 80.945312 122.46875 55.550781 96.582031 48.625 C 88.882812 47.714844 58.730469 87.519531 57.050781 149.640625 C 43.265625 167.550781 16.332031 213.578125 52.851562 257.511719 C 52.152344 261.988281 51.523438 266.746094 51.03125 271.640625 C 49.285156 290.601562 47.253906 305.152344 46.277344 315.992188 L 52.011719 315.992188 C 52.011719 315.992188 53.203125 271.222656 61.949219 236.523438 C 70.902344 201.199219 94.480469 176.78125 100.007812 171.398438 C 101.128906 171.1875 102.316406 170.976562 103.648438 170.628906 C 112.742188 168.386719 123.726562 165.871094 132.542969 163.070312 C 119.949219 176.644531 94.761719 210.570312 89.585938 269.125 C 87.835938 289.199219 85.804688 304.519531 84.828125 315.992188 L 90.492188 315.992188 C 90.492188 315.992188 91.332031 283.113281 96.652344 250.933594 C 99.800781 242.890625 102.878906 237.714844 107.496094 233.167969 C 116.660156 224.144531 125.824219 231.417969 122.46875 243.519531 C 125.265625 239.113281 128.414062 234.355469 133.101562 236.804688 C 138.910156 239.742188 137.230469 251.425781 137.230469 251.425781 C 137.230469 251.425781 144.4375 244.148438 148.703125 246.109375 C 155.5625 249.257812 157.589844 262.757812 152.414062 286.054688 C 151.292969 291.230469 148.003906 303.332031 144.4375 315.992188 L 150.523438 315.992188 C 151.152344 313.683594 151.644531 311.796875 151.921875 310.535156 L 151.992188 310.257812 L 153.601562 303.472656 C 157.101562 288.5 158.917969 277.027344 159.898438 268.074219 C 162.488281 244.710938 148.074219 236.523438 141.707031 243.308594 C 142.96875 231.277344 132.054688 227.570312 125.757812 233.515625 C 126.105469 231.347656 125.054688 228.199219 122.609375 226.101562 C 118.828125 223.164062 116.242188 224.003906 116.242188 224.003906 C 113.792969 224.144531 110.851562 225.050781 107.496094 227.359375 C 104.347656 229.460938 101.898438 232.328125 99.308594 236.386719 C 99.660156 234.914062 99.9375 233.515625 100.289062 232.117188 C 108.125 199.449219 129.742188 171.675781 139.257812 160.695312 C 144.507812 158.523438 148.074219 156.214844 148.566406 153.699219 C 149.265625 149.921875 99.800781 154.746094 95.949219 157.335938 C 90.355469 161.042969 96.511719 163.28125 100.078125 161.882812 C 92.171875 165.378906 87.414062 171.886719 95.390625 171.957031 C 89.445312 176.644531 64.328125 198.957031 54.113281 249.394531 C 40.886719 231.769531 25.496094 196.511719 62.925781 150.550781 C 61.808594 136.417969 65.234375 87.941406 95.25 55.480469 C 99.449219 53.382812 121.699219 65.90625 144.367188 86.75 C 140.167969 88.148438 135.902344 89.898438 131.773438 91.929688 C 133.382812 93.746094 154.371094 86.960938 186.554688 86.960938 C 218.738281 86.960938 239.800781 93.746094 241.339844 91.929688 C 237.210938 89.828125 232.941406 88.148438 228.746094 86.75 C 251.414062 65.90625 273.664062 53.3125 277.859375 55.480469 C 303.117188 85.773438 311.863281 127.675781 309.90625 150.550781 C 347.757812 197.070312 331.523438 232.675781 318.230469 250.097656 C 308.085938 199.097656 282.757812 176.644531 276.742188 171.957031 C 284.789062 171.886719 279.960938 165.378906 272.054688 161.882812 C 275.621094 163.28125 281.777344 161.113281 276.183594 157.335938 C 272.332031 154.746094 222.867188 149.921875 223.566406 153.699219 C 224.058594 156.214844 227.625 158.523438 232.875 160.695312 C 242.386719 171.746094 264.007812 199.449219 271.84375 232.117188 C 272.195312 233.65625 272.542969 235.195312 272.894531 236.734375 C 270.234375 232.46875 267.714844 229.527344 264.496094 227.359375 C 261.140625 225.121094 258.199219 224.144531 255.75 224.003906 C 255.75 224.003906 253.164062 223.164062 249.386719 226.101562 C 246.9375 228.199219 245.886719 231.347656 246.238281 233.515625 C 239.941406 227.570312 229.023438 231.277344 230.285156 243.308594 C 223.917969 236.523438 209.503906 244.78125 212.09375 268.074219 C 213.074219 277.027344 214.960938 288.570312 218.390625 303.472656 L 220 310.257812 L 220.070312 310.539062 C 220.347656 311.796875 220.839844 313.683594 221.46875 315.992188 L 227.554688 315.992188 C 223.988281 303.261719 220.699219 291.160156 219.578125 286.054688 C 214.472656 262.828125 216.429688 249.328125 223.289062 246.109375 C 227.625 244.078125 234.761719 251.425781 234.761719 251.425781 C 234.761719 251.425781 233.082031 239.8125 238.890625 236.804688 C 243.578125 234.425781 246.65625 239.113281 249.523438 243.519531 C 246.167969 231.488281 255.332031 224.210938 264.496094 233.167969 C 269.253906 237.855469 272.402344 243.171875 275.621094 251.566406 C 280.871094 283.535156 281.707031 315.992188 281.707031 315.992188 L 287.375 315.992188 C 286.398438 304.519531 284.367188 289.199219 282.617188 269.125 C 277.441406 210.640625 252.253906 176.644531 239.660156 163.070312 C 248.476562 165.871094 259.460938 168.386719 268.554688 170.628906 C 269.886719 170.976562 271.144531 171.1875 272.195312 171.398438 C 277.722656 176.785156 301.300781 201.199219 310.253906 236.523438 C 319.070312 271.222656 320.191406 315.992188 320.191406 315.992188 L 325.855469 315.992188 C 324.878906 305.152344 322.847656 290.601562 321.097656 271.640625 C 320.890625 267.023438 320.328125 262.546875 319.628906 258.210938 Z M 156.472656 121.449219 C 152.621094 124.246094 150.175781 127.394531 143.527344 128.585938 C 141.289062 129.003906 139.257812 129.703125 139.257812 131.730469 C 139.1875 133.691406 142.199219 134.25 144.4375 133.902344 C 149.683594 133.0625 155.351562 131.171875 159.898438 128.375 C 164.515625 125.507812 161.089844 118.652344 156.472656 121.449219 Z M 200.269531 172.304688 C 199.21875 176.015625 197.679688 178.742188 196.421875 178.320312 C 195.09375 177.902344 193.972656 168.878906 193.761719 163.839844 C 191.171875 161.324219 188.445312 159.714844 185.785156 159.644531 C 172.074219 160.203125 157.519531 199.378906 161.929688 202.175781 C 167.59375 205.675781 179.699219 207.074219 185.785156 207.074219 C 191.875 207.074219 203.90625 205.675781 209.644531 202.175781 C 212.375 200.429688 207.617188 184.199219 200.269531 172.304688 Z M 272.472656 71.851562 C 272.472656 71.851562 278.492188 97.105469 275.203125 117.8125 C 280.167969 119.910156 296.050781 141.035156 296.050781 141.035156 C 296.050781 141.035156 293.324219 126.90625 282.058594 114.804688 C 284.507812 101.09375 280.101562 78.984375 272.472656 71.851562 Z M 89.375 114.804688 C 78.109375 126.90625 75.382812 141.035156 75.382812 141.035156 C 75.382812 141.035156 91.332031 119.910156 96.230469 117.8125 C 92.941406 97.105469 98.960938 71.851562 98.960938 71.851562 C 91.261719 78.984375 86.855469 101.09375 89.375 114.804688 Z M 89.375 114.804688 " fill-opacity="1" fill-rule="nonzero"/><path fill="#ffc4e6" d="M 203.347656 190.214844 C 204.675781 194.621094 205.027344 197.980469 203.976562 198.679688 C 199.640625 201.40625 190.335938 202.457031 185.714844 202.457031 C 181.027344 202.457031 171.792969 201.40625 167.457031 198.679688 C 166.546875 198.121094 166.6875 195.53125 167.59375 192.035156 C 184.808594 175.246094 197.679688 184.128906 203.347656 190.214844 Z M 203.347656 190.214844 C 204.675781 194.621094 205.027344 197.980469 203.976562 198.679688 C 199.640625 201.40625 190.335938 202.457031 185.714844 202.457031 C 181.027344 202.457031 171.792969 201.40625 167.457031 198.679688 C 166.546875 198.121094 166.6875 195.53125 167.59375 192.035156 C 184.808594 175.246094 197.679688 184.128906 203.347656 190.214844 Z M 203.347656 190.214844 " fill-opacity="1" fill-rule="nonzero"/></svg>