<svg xmlns="http://www.w3.org/2000/svg" xmlns:xlink="http://www.w3.org/1999/xlink" width="500" zoomAndPan="magnify" viewBox="0 0 375 374.999991" height="500" preserveAspectRatio="xMidYMid meet" version="1.0"><defs><clipPath id="75c51bb8ed"><path d="M 20.292969 38 L 367 38 L 367 348.75 L 20.292969 348.75 Z M 20.292969 38 " clip-rule="nonzero"/></clipPath></defs><g clip-path="url(#75c51bb8ed)"><path fill="#000000" d="M 46.679688 348.574219 C 44.882812 348.574219 43.238281 348.277344 42.289062 348.078125 C 40.96875 347.804688 38.921875 347.628906 36.777344 347.453125 C 30.839844 346.957031 24.109375 346.40625 22.4375 343.09375 C 21.238281 340.699219 21.238281 334.148438 21.363281 323.628906 C 21.4375 317.125 21.515625 310.398438 21.113281 304.765625 C 20.316406 293.078125 21.265625 291.410156 24.757812 285.230469 C 25.40625 284.082031 26.128906 282.785156 26.949219 281.242188 C 27.847656 279.546875 28.847656 277.925781 29.792969 276.332031 C 34.582031 268.433594 39.546875 260.257812 36.554688 241.246094 C 35.457031 234.21875 33.960938 228.238281 32.636719 222.953125 C 29.519531 210.46875 27.074219 200.601562 31.265625 185.675781 C 35.679688 169.925781 39.769531 162.574219 41.964844 158.609375 C 42.6875 157.289062 43.210938 156.367188 43.4375 155.695312 C 43.535156 155.347656 43.5625 155.296875 42.488281 154.523438 C 40.667969 153.226562 37.652344 151.085938 36.851562 143.734375 C 36.355469 139.074219 35.929688 137.003906 35.628906 136.109375 C 35.429688 136.433594 35.179688 136.957031 34.808594 137.753906 C 32.464844 142.886719 31.367188 143.683594 30.144531 143.386719 C 28.820312 143.0625 28.148438 141.390625 28.621094 133.941406 C 29.246094 124.347656 31.414062 116.644531 35.28125 110.390625 C 40.867188 101.34375 49.945312 95.539062 62.292969 93.121094 C 75.535156 90.53125 86.433594 91.054688 94.691406 94.640625 C 102.296875 97.929688 107.335938 103.8125 109.304688 111.613281 C 110.628906 116.84375 111.050781 121.554688 110.578125 125.867188 C 113.070312 129.105469 116.835938 128.582031 125.191406 127.4375 C 129.058594 126.914062 133.847656 126.238281 139.808594 125.816406 C 153.601562 124.820312 166.046875 125.691406 175.125 126.316406 C 179.164062 126.589844 182.65625 126.839844 185.375 126.863281 C 187.570312 126.886719 190.585938 126.214844 194.402344 125.367188 C 205.625 122.875 222.585938 119.136719 244.859375 126.5625 C 253.710938 129.503906 262.214844 134.488281 269.472656 140.96875 C 277.207031 147.871094 283.089844 156.167969 286.535156 164.992188 C 292.46875 180.242188 291.023438 196.5625 282.320312 212.238281 C 282.042969 212.738281 281.421875 212.910156 280.921875 212.636719 C 280.421875 212.363281 280.25 211.738281 280.523438 211.242188 C 288.902344 196.140625 290.324219 180.414062 284.613281 165.738281 C 281.296875 157.214844 275.585938 149.191406 268.101562 142.511719 C 261.070312 136.234375 252.789062 131.375 244.210938 128.53125 C 222.484375 121.28125 205.851562 124.96875 194.851562 127.410156 C 190.910156 128.285156 187.792969 128.957031 185.375 128.957031 C 182.605469 128.929688 179.089844 128.683594 175 128.40625 C 165.96875 127.785156 153.601562 126.914062 139.980469 127.910156 C 134.097656 128.332031 129.332031 128.980469 125.492188 129.53125 C 117.859375 130.574219 113.34375 131.199219 110.203125 128.507812 C 109.855469 130.203125 109.378906 131.820312 108.730469 133.390625 C 105.738281 140.792969 99.277344 146.699219 89.578125 150.984375 C 76.707031 156.667969 67.679688 158.113281 61.121094 155.519531 C 57.054688 153.902344 53.9375 150.6875 51.917969 145.925781 C 49.296875 139.746094 49.449219 133.589844 52.367188 128.132812 C 56.179688 120.957031 64.613281 115.675781 75.460938 113.605469 C 84.238281 111.9375 91.972656 112.535156 98.503906 115.425781 C 103.570312 117.640625 106.785156 120.78125 108.707031 123.222656 C 108.78125 119.835938 108.332031 116.171875 107.308594 112.160156 C 105.515625 105.007812 100.875 99.601562 93.867188 96.558594 C 85.984375 93.144531 75.484375 92.671875 62.691406 95.191406 C 50.945312 97.480469 42.3125 102.988281 37.050781 111.511719 C 33.386719 117.46875 31.289062 124.871094 30.691406 134.113281 C 30.417969 138.375 30.566406 140.21875 30.742188 141.015625 C 31.140625 140.492188 31.8125 139.371094 32.9375 136.929688 C 33.683594 135.261719 34.558594 133.390625 35.980469 133.617188 C 37.300781 133.839844 38 135.261719 38.898438 143.535156 C 39.597656 149.964844 42.039062 151.707031 43.6875 152.855469 C 44.757812 153.625 45.980469 154.5 45.40625 156.316406 C 45.132812 157.191406 44.558594 158.210938 43.785156 159.632812 C 41.617188 163.519531 37.601562 170.746094 33.261719 186.273438 C 29.21875 200.699219 31.613281 210.320312 34.65625 222.503906 C 35.980469 227.839844 37.5 233.867188 38.625 240.996094 C 41.742188 260.757812 36.578125 269.253906 31.589844 277.480469 C 30.59375 279.097656 29.667969 280.644531 28.796875 282.289062 C 27.949219 283.859375 27.226562 285.15625 26.578125 286.324219 C 23.160156 292.382812 22.4375 293.628906 23.183594 304.714844 C 23.558594 310.421875 23.484375 317.175781 23.433594 323.730469 C 23.359375 331.828125 23.257812 340.203125 24.308594 342.269531 C 25.453125 344.539062 32.386719 345.113281 36.976562 345.484375 C 39.296875 345.683594 41.316406 345.835938 42.761719 346.160156 C 46.28125 346.929688 49.347656 346.707031 50.945312 345.609375 C 51.691406 345.085938 52.117188 344.390625 52.242188 343.46875 C 52.738281 340.101562 46.554688 336.089844 42.539062 334.371094 C 37.078125 332.003906 35.679688 326.796875 38.175781 318 C 38.824219 315.679688 39.445312 313.089844 40.09375 310.347656 C 42.164062 301.652344 44.535156 291.78125 49.148438 286.800781 C 51.46875 284.308594 53.214844 282.238281 55.433594 279.597656 C 58.800781 275.585938 63.015625 270.601562 71.421875 261.503906 C 85.136719 246.679688 90.25 238.753906 96.511719 226.566406 C 102.222656 215.476562 106.636719 216.847656 117.335938 220.164062 C 119.03125 220.6875 120.953125 221.285156 123.074219 221.882812 C 127.164062 223.054688 132.824219 224.949219 139.382812 227.140625 C 157.964844 233.347656 183.402344 241.84375 204.203125 244.632812 C 217.847656 246.480469 224.207031 247.003906 228.246094 245.554688 C 228.769531 245.355469 229.269531 245.132812 229.742188 244.882812 C 228.523438 235.191406 227.671875 226.617188 227.597656 221.832031 C 227.550781 217.945312 229.09375 215.105469 231.839844 214.03125 C 234.605469 212.9375 238.023438 213.933594 240.34375 216.476562 C 243.683594 220.1875 243.835938 225.996094 240.742188 232 C 240.242188 232.996094 239.769531 233.917969 239.320312 234.792969 C 236.578125 240.175781 234.78125 243.738281 231.988281 245.878906 C 234.207031 263.148438 237.523438 283.734375 239.695312 292.855469 C 240.816406 297.539062 241.816406 302.671875 242.8125 307.632812 C 244.882812 318.074219 247.003906 328.890625 250.269531 336.289062 C 254.011719 344.738281 257.875 345.0625 263.238281 345.511719 C 264.484375 345.609375 265.757812 345.710938 267.105469 345.933594 C 271.34375 346.605469 275.386719 345.785156 277.628906 343.765625 C 278.976562 342.546875 279.601562 341 279.5 339.15625 C 279.300781 335.765625 277.253906 334.820312 273.039062 333.125 C 271.195312 332.378906 269.074219 331.554688 266.929688 330.285156 C 259.847656 326.046875 259.496094 321.039062 258.601562 307.683594 C 257.753906 295.097656 262.714844 278.527344 269.597656 255.625 C 270.148438 253.78125 270.722656 251.886719 271.292969 249.96875 C 275.785156 234.964844 280.699219 232.222656 286.382812 229.058594 C 290.574219 226.71875 295.335938 224.074219 300.898438 215.527344 C 310.777344 200.402344 315.242188 168.554688 318.507812 145.277344 C 319.53125 137.953125 320.429688 131.621094 321.324219 126.863281 C 322.796875 119.164062 323.820312 115.597656 325.09375 113.65625 C 326.613281 111.363281 328.558594 111.335938 330.828125 111.335938 C 332.375 111.335938 334.320312 111.3125 336.863281 110.664062 C 341.652344 109.445312 354.371094 106.179688 353.921875 103.039062 C 353.921875 102.964844 353.875 102.890625 353.824219 102.816406 C 351.503906 104.011719 348.734375 104.882812 345.519531 105.132812 C 339.90625 105.605469 332.921875 105.753906 331.625 103.863281 C 331.328125 103.414062 331.277344 102.890625 331.5 102.417969 C 332.101562 101.144531 334.542969 100.796875 335.941406 100.695312 C 336.890625 100.621094 338.0625 100.523438 339.28125 100.398438 C 345.667969 99.773438 351.054688 99.375 353.875 100.449219 C 357.613281 98.28125 360.035156 95.238281 361.378906 93.144531 C 364.421875 88.363281 365.195312 83.601562 364.347656 81.359375 C 363.101562 77.996094 352.378906 77.644531 345.269531 77.421875 C 341.925781 77.320312 338.757812 77.222656 336.515625 76.875 C 330.953125 76.050781 328.132812 72.164062 325.640625 68.75 C 324.492188 67.179688 323.421875 65.710938 322.222656 64.789062 C 318.53125 61.898438 301.871094 57.511719 300.078125 57.683594 C 299.675781 57.734375 299.253906 57.609375 298.929688 57.335938 C 297.707031 56.339844 297.382812 53.273438 296.882812 46.546875 C 296.710938 44.277344 296.558594 41.9375 296.308594 40.214844 C 295.761719 40.515625 294.363281 41.5625 291.273438 45.199219 C 288.652344 48.289062 285.585938 52.300781 282.867188 55.839844 C 279.925781 59.679688 277.378906 63.019531 275.808594 64.6875 C 274.414062 66.183594 273.164062 67.378906 271.992188 68.527344 C 268.851562 71.589844 265.582031 74.753906 258.300781 84 C 250.941406 93.347656 236.800781 116.84375 236.652344 117.070312 C 236.351562 117.566406 235.730469 117.71875 235.230469 117.417969 C 234.730469 117.121094 234.582031 116.496094 234.882812 115.996094 C 235.03125 115.75 249.222656 92.175781 256.679688 82.703125 C 264.039062 73.359375 267.355469 70.144531 270.546875 67.03125 C 271.769531 65.835938 272.941406 64.710938 274.3125 63.242188 C 275.808594 61.648438 278.453125 58.207031 281.222656 54.570312 C 290.921875 41.886719 294.765625 37.5 297.035156 38.074219 C 297.433594 38.171875 298.15625 38.523438 298.332031 39.691406 C 298.605469 41.511719 298.78125 43.878906 298.953125 46.371094 C 299.179688 49.4375 299.550781 54.496094 300.175781 55.617188 C 303.542969 55.667969 319.679688 60.128906 323.519531 63.144531 C 324.941406 64.238281 326.089844 65.835938 327.3125 67.527344 C 329.679688 70.792969 332.125 74.15625 336.839844 74.832031 C 338.957031 75.152344 342.078125 75.253906 345.367188 75.351562 C 354.371094 75.652344 364.597656 75.976562 366.320312 80.636719 C 367.515625 83.851562 366.195312 89.457031 363.152344 94.242188 C 361.78125 96.410156 359.359375 99.449219 355.667969 101.792969 C 355.84375 102.066406 355.945312 102.390625 355.992188 102.742188 C 356.617188 106.902344 349.660156 109.542969 337.414062 112.683594 C 334.644531 113.40625 332.550781 113.40625 330.878906 113.40625 C 328.558594 113.40625 327.710938 113.480469 326.835938 114.800781 C 325.742188 116.472656 324.769531 119.960938 323.371094 127.261719 C 322.472656 131.972656 321.601562 138.277344 320.578125 145.578125 C 317.285156 169.027344 312.796875 201.148438 302.671875 216.648438 C 296.808594 225.621094 291.820312 228.386719 287.429688 230.855469 C 281.917969 233.917969 277.554688 236.335938 273.316406 250.539062 C 272.742188 252.460938 272.167969 254.351562 271.617188 256.199219 C 264.808594 278.898438 259.871094 295.296875 260.695312 307.53125 C 261.644531 321.238281 262.117188 324.953125 268.027344 328.488281 C 270.023438 329.6875 272.042969 330.484375 273.839844 331.207031 C 277.855469 332.800781 281.347656 334.171875 281.59375 339.03125 C 281.71875 341.5 280.847656 343.667969 279.050781 345.285156 C 276.332031 347.753906 271.742188 348.75 266.832031 347.953125 C 265.558594 347.753906 264.3125 347.652344 263.113281 347.554688 C 257.753906 347.105469 252.664062 346.683594 248.449219 337.113281 C 245.082031 329.488281 242.9375 318.570312 240.84375 308.007812 C 239.871094 303.070312 238.871094 297.964844 237.75 293.328125 C 235.554688 284.109375 232.289062 264.148438 230.09375 247.078125 C 229.742188 247.226562 229.394531 247.375 229.019531 247.523438 C 224.554688 249.121094 217.996094 248.570312 204.003906 246.703125 C 183.003906 243.886719 157.464844 235.339844 138.808594 229.109375 C 132.277344 226.917969 126.640625 225.046875 122.597656 223.875 C 120.453125 223.253906 118.53125 222.65625 116.835938 222.132812 C 106.210938 218.84375 103.371094 217.96875 98.457031 227.515625 C 92.097656 239.875 86.910156 247.925781 73.042969 262.902344 C 64.6875 271.945312 60.496094 276.929688 57.128906 280.917969 C 54.882812 283.585938 53.113281 285.675781 50.792969 288.195312 C 46.53125 292.78125 44.234375 302.375 42.238281 310.820312 C 41.589844 313.589844 40.96875 316.203125 40.292969 318.570312 C 37.5 328.488281 40.542969 331.230469 43.511719 332.503906 C 47.902344 334.394531 55.132812 338.90625 54.4375 343.792969 C 54.210938 345.285156 53.488281 346.480469 52.265625 347.328125 C 50.570312 348.25 48.550781 348.574219 46.679688 348.574219 Z M 234.183594 215.503906 C 233.632812 215.503906 233.085938 215.601562 232.585938 215.800781 C 230.640625 216.550781 229.617188 218.644531 229.667969 221.660156 C 229.742188 226.117188 230.515625 234.09375 231.664062 243.265625 C 233.609375 241.320312 235.15625 238.28125 237.476562 233.71875 C 237.925781 232.847656 238.398438 231.898438 238.921875 230.902344 C 241.617188 225.671875 241.589844 220.734375 238.820312 217.695312 C 237.523438 216.300781 235.78125 215.503906 234.183594 215.503906 Z M 84.464844 114.75 C 80.75 114.75 77.628906 115.226562 75.859375 115.550781 C 65.632812 117.492188 57.726562 122.402344 54.1875 129.03125 C 51.566406 133.941406 51.441406 139.472656 53.8125 145.054688 C 55.632812 149.339844 58.277344 152.132812 61.867188 153.550781 C 67.878906 155.917969 76.410156 154.5 88.730469 149.042969 C 97.933594 144.980469 104.019531 139.421875 106.8125 132.542969 C 107.609375 130.601562 108.132812 128.558594 108.433594 126.390625 C 108.40625 126.339844 108.355469 126.289062 108.332031 126.238281 C 102.496094 116.769531 92.195312 114.75 84.464844 114.75 Z M 334.246094 102.890625 C 335.765625 103.214844 339.058594 103.488281 345.292969 102.964844 C 347.289062 102.789062 349.109375 102.367188 350.707031 101.769531 C 350.28125 101.71875 349.808594 101.695312 349.257812 101.695312 C 346.265625 101.617188 342.476562 101.992188 339.40625 102.292969 C 338.160156 102.417969 336.988281 102.542969 336.015625 102.617188 C 335.292969 102.691406 334.695312 102.789062 334.246094 102.890625 Z M 334.246094 102.890625 " fill-opacity="1" fill-rule="nonzero"/></g></svg>