<svg xmlns="http://www.w3.org/2000/svg" xmlns:xlink="http://www.w3.org/1999/xlink" width="500" zoomAndPan="magnify" viewBox="0 0 375 374.999991" height="500" preserveAspectRatio="xMidYMid meet" version="1.0"><path fill="#000000" d="M 204.613281 365.871094 C 203.949219 365.871094 203.460938 365.695312 203.085938 365.378906 C 202.652344 365.007812 202.25 364.285156 202.710938 362.992188 C 202.824219 362.703125 202.769531 362.472656 202.566406 362.1875 C 201.011719 360.199219 192.96875 358.703125 183.460938 359.652344 C 177.496094 360.230469 174.988281 359.882812 174.238281 358.300781 C 173.429688 356.632812 174.988281 354.617188 178.53125 350.992188 C 184.324219 345.089844 184.957031 343.96875 184.066406 341.0625 C 183.71875 339.910156 183.804688 338.960938 184.382812 338.183594 C 185.851562 336.140625 190.117188 336.027344 197.839844 335.824219 L 198.011719 335.824219 C 198.9375 335.796875 199.945312 335.796875 200.953125 335.769531 C 209.628906 335.625 222.738281 335.394531 225.5625 329.984375 C 228.734375 323.855469 229.339844 300.800781 228.445312 294.011719 C 228.273438 292.660156 227.984375 291.882812 227.550781 291.59375 C 226.800781 291.074219 224.84375 291.566406 222.132812 292.226562 C 219.570312 292.859375 216.082031 293.722656 211.5 294.269531 C 204.496094 295.132812 198.042969 295.105469 192.96875 295.019531 C 192.941406 295.277344 192.914062 295.507812 192.855469 295.796875 C 192.59375 297.523438 192.277344 299.910156 192.277344 303.019531 C 192.308594 308.574219 193.804688 312.601562 194.902344 315.535156 C 195.96875 318.386719 196.804688 320.601562 194.699219 321.753906 C 193.113281 322.644531 191.933594 321.984375 191.296875 321.636719 C 191.242188 321.609375 191.15625 321.550781 191.066406 321.523438 C 190.925781 321.722656 190.578125 322.269531 190.058594 323.824219 C 187.925781 330.097656 184.585938 337.582031 177.609375 339.738281 L 177.148438 339.882812 C 170.550781 341.898438 167.320312 342.816406 166.257812 341.207031 C 165.507812 340.085938 166.457031 338.675781 167.378906 337.550781 C 167.523438 337.378906 167.667969 337.207031 167.753906 337.089844 C 167.003906 337.148438 165.765625 337.351562 164.671875 337.523438 C 161.789062 338.011719 157.871094 338.675781 153.777344 338.445312 C 141.300781 337.8125 135.765625 337.292969 135.046875 335.019531 C 134.875 334.445312 134.902344 333.609375 136.113281 332.6875 C 138.160156 331.105469 139.542969 328.226562 139.367188 325.839844 C 139.253906 324.226562 138.503906 323.046875 137.148438 322.269531 C 136.574219 321.953125 131.53125 318.988281 132.566406 316.488281 C 133.347656 314.617188 136.632812 314.644531 143.546875 316.601562 C 150.148438 318.472656 157.265625 319.308594 163.546875 318.960938 C 169.484375 318.617188 173.921875 317.234375 175.738281 315.164062 C 179.195312 311.21875 179.511719 301.148438 179.628906 296.859375 C 179.65625 296.3125 179.65625 295.882812 179.683594 295.507812 C 179.773438 293.40625 182.421875 293.148438 183.429688 293.03125 C 185.277344 292.832031 187.8125 292.886719 191.039062 292.945312 C 191.039062 292.945312 191.066406 292.945312 191.066406 292.945312 C 191.066406 292.601562 191.011719 292.34375 190.867188 292.199219 C 190.347656 291.59375 188.070312 291.421875 185.882812 291.335938 C 179.859375 291.105469 157.609375 288.6875 134.902344 280.601562 C 121.183594 275.707031 109.484375 269.578125 100.117188 262.328125 C 88.5625 253.40625 80.578125 242.757812 76.371094 230.699219 C 63.347656 193.433594 90.898438 145.316406 101.269531 127.214844 C 102.597656 124.910156 103.632812 123.097656 104.238281 121.917969 C 109.570312 111.472656 114.585938 101.601562 122.308594 102.121094 C 125.910156 102.351562 133.488281 103.097656 140.808594 103.847656 C 147.8125 104.539062 154.441406 105.199219 157.292969 105.371094 C 157.695312 105.402344 158.015625 105.257812 158.332031 104.941406 C 162.191406 101.082031 160.550781 76.191406 159.222656 56.21875 C 158.53125 45.859375 156.515625 35.929688 153.402344 27.554688 C 150.234375 18.980469 145.9375 12.1875 141.011719 7.929688 C 136.488281 3.988281 131.5 2.203125 126.171875 2.605469 C 106.601562 4.042969 101.703125 13.109375 95.25 33.398438 C 88.589844 54.289062 84.007812 62.519531 74.789062 70.148438 C 69.746094 74.320312 62.109375 80.621094 62.800781 82.953125 C 63 83.644531 64.296875 84.164062 66.34375 84.363281 C 70.550781 84.824219 77.84375 82.839844 87.410156 78.609375 C 97.84375 74.003906 107.410156 68.363281 111.039062 66.148438 C 115.507812 63.414062 121.589844 61.773438 127.496094 60.191406 C 133.289062 58.636719 138.734375 57.167969 142.539062 54.808594 C 146.574219 52.304688 147.984375 49.140625 147.035156 44.878906 C 145.652344 38.664062 142.855469 34.578125 138.675781 32.707031 C 135.621094 31.328125 132.972656 31.730469 132.941406 31.730469 C 132.394531 31.816406 131.847656 31.441406 131.761719 30.894531 C 131.675781 30.347656 132.050781 29.800781 132.597656 29.714844 C 132.742188 29.6875 135.882812 29.226562 139.484375 30.835938 C 142.769531 32.304688 147.09375 35.875 148.992188 44.421875 C 151.53125 55.816406 139.570312 59.039062 127.984375 62.148438 C 122.222656 63.703125 116.285156 65.285156 112.078125 67.875 C 108.851562 69.832031 81.15625 86.464844 67.613281 86.464844 C 67.09375 86.464844 66.574219 86.4375 66.085938 86.378906 C 63 86.03125 61.273438 85.113281 60.8125 83.53125 C 59.800781 80.164062 64.902344 75.617188 73.460938 68.566406 C 82.308594 61.253906 86.777344 53.226562 93.289062 32.765625 C 96.6875 22.089844 99.542969 14.921875 104.066406 9.800781 C 109.050781 4.160156 115.824219 1.3125 126.027344 0.5625 C 131.90625 0.132812 137.410156 2.085938 142.367188 6.40625 C 152.742188 15.410156 159.800781 33.972656 161.242188 56.105469 C 163.085938 83.757812 163.949219 102.207031 159.773438 106.40625 C 159.050781 107.128906 158.15625 107.472656 157.179688 107.414062 C 154.269531 107.242188 147.640625 106.582031 140.609375 105.859375 C 133.289062 105.140625 125.738281 104.394531 122.164062 104.164062 C 115.796875 103.761719 111.039062 113.027344 106.054688 122.867188 C 105.421875 124.105469 104.382812 125.949219 103.027344 128.277344 C 92.769531 146.179688 65.566406 193.691406 78.273438 230.09375 C 82.367188 241.777344 90.117188 252.082031 101.359375 260.773438 C 110.523438 267.878906 122.050781 273.925781 135.566406 278.730469 C 158.015625 286.730469 180.003906 289.148438 185.9375 289.347656 C 189.539062 289.492188 191.441406 289.75 192.421875 290.933594 C 192.914062 291.507812 193.085938 292.199219 193.085938 293.03125 C 198.070312 293.117188 204.382812 293.117188 211.183594 292.285156 C 215.621094 291.738281 219.050781 290.902344 221.558594 290.269531 C 225.015625 289.40625 227.121094 288.917969 228.617188 289.925781 C 229.855469 290.757812 230.203125 292.429688 230.375 293.78125 C 231.183594 299.796875 231.011719 323.796875 227.292969 330.960938 C 223.921875 337.464844 210.636719 337.695312 200.925781 337.839844 C 199.886719 337.867188 198.90625 337.867188 197.984375 337.898438 L 197.8125 337.898438 C 191.671875 338.042969 186.832031 338.183594 185.96875 339.394531 C 185.910156 339.480469 185.707031 339.738281 185.96875 340.488281 C 187.292969 344.71875 185.5625 346.730469 179.945312 352.429688 C 176.542969 355.882812 175.9375 357.0625 176.023438 357.4375 C 176.113281 357.550781 176.949219 358.242188 183.199219 357.640625 C 191.441406 356.832031 201.585938 357.726562 204.09375 360.949219 C 204.757812 361.78125 204.902344 362.734375 204.554688 363.683594 C 204.527344 363.738281 204.527344 363.796875 204.496094 363.855469 C 204.957031 363.855469 206.3125 363.652344 209.828125 362.15625 C 212.824219 360.890625 216.660156 359.019531 221.875 356.429688 C 233.375 350.730469 238.011719 345.609375 239.019531 337.609375 C 239.367188 334.875 239.453125 329.265625 239.570312 322.730469 C 239.800781 309.464844 240.058594 294.441406 242.394531 290.183594 C 243.804688 287.59375 248.847656 285.378906 257.207031 281.75 C 270.75 275.851562 291.210938 266.929688 313.171875 249.003906 C 326.972656 237.722656 337.234375 229.289062 343.71875 223.390625 C 351.441406 216.367188 352.246094 214.179688 352.046875 213.519531 C 351.960938 213.261719 351.324219 212.914062 349.828125 212.800781 C 346.65625 212.539062 344.957031 211.878906 344.148438 210.527344 C 342.996094 208.625 344.0625 206.035156 345.707031 202.152344 C 346.511719 200.222656 347.464844 198.007812 348.328125 195.417969 C 348.789062 194.035156 349.25 192.769531 349.683594 191.53125 C 351.09375 187.5625 352.535156 183.445312 351.699219 182.613281 C 351.46875 182.382812 350.519531 181.976562 346.773438 183.246094 C 346.167969 183.445312 345.589844 183.648438 345.042969 183.847656 C 336.28125 186.898438 330.980469 188.710938 306.425781 177.75 C 280.578125 166.207031 249.597656 153.375 208.503906 147.011719 C 202.308594 146.0625 196.660156 145 191.671875 144.078125 C 177.148438 141.371094 167.554688 139.589844 164.125 143.617188 C 161.039062 147.273438 162.421875 156.25 168.820312 173.691406 C 175.9375 193.117188 182.566406 213.433594 182.882812 230.125 C 183.171875 246.527344 177.550781 258.960938 165.132812 269.203125 C 164.699219 269.550781 164.066406 269.492188 163.691406 269.058594 C 163.316406 268.628906 163.402344 267.996094 163.835938 267.621094 C 175.738281 257.808594 181.125 245.894531 180.835938 230.152344 C 180.550781 213.75 173.949219 193.664062 166.917969 174.382812 C 160.058594 155.675781 158.851562 146.695312 162.597656 142.292969 C 166.804688 137.34375 176.859375 139.214844 192.105469 142.0625 C 197.089844 142.984375 202.710938 144.050781 208.878906 145 C 250.203125 151.386719 281.382812 164.28125 307.320312 175.878906 C 331.125 186.527344 335.851562 184.886719 344.4375 181.890625 C 345.015625 181.691406 345.589844 181.488281 346.195312 181.289062 C 349.972656 180.023438 352.074219 179.992188 353.226562 181.171875 C 354.957031 182.929688 353.746094 186.410156 351.699219 192.195312 C 351.269531 193.433594 350.804688 194.699219 350.375 196.050781 C 349.480469 198.726562 348.53125 200.972656 347.695312 202.929688 C 346.398438 206.007812 345.359375 208.425781 345.992188 209.433594 C 346.398438 210.09375 347.78125 210.554688 350.085938 210.726562 C 350.921875 210.785156 353.488281 210.988281 354.09375 212.855469 C 355.300781 216.742188 347.695312 223.449219 314.582031 250.5 C 292.390625 268.628906 271.789062 277.609375 258.15625 283.566406 C 250.75 286.789062 245.417969 289.117188 244.324219 291.105469 C 242.25 294.933594 241.960938 310.988281 241.757812 322.730469 C 241.644531 329.292969 241.527344 334.992188 241.183594 337.8125 C 240.085938 346.5 234.957031 352.199219 222.914062 358.1875 C 212.191406 363.566406 207.121094 365.871094 204.613281 365.871094 Z M 168.1875 339.96875 C 169.597656 340.027344 173.75 338.761719 176.574219 337.898438 L 177.035156 337.753906 C 183.113281 335.882812 186.167969 328.976562 188.15625 323.132812 C 188.9375 320.832031 189.539062 319.855469 190.40625 319.507812 C 191.183594 319.191406 191.875 319.566406 192.308594 319.824219 C 192.855469 320.113281 193.113281 320.257812 193.71875 319.941406 C 194.210938 319.679688 193.863281 318.585938 192.96875 316.199219 C 191.875 313.292969 190.261719 308.890625 190.203125 302.960938 C 190.175781 299.679688 190.519531 297.234375 190.78125 295.421875 C 190.808594 295.25 190.835938 295.074219 190.867188 294.902344 C 188.15625 294.84375 185.824219 294.816406 184.152344 294.933594 C 181.992188 295.105469 181.730469 295.480469 181.703125 295.507812 C 181.671875 295.851562 181.671875 296.3125 181.644531 296.832031 C 181.5 301.722656 181.183594 311.910156 177.234375 316.429688 C 172.683594 321.636719 157.292969 322.558594 142.972656 318.5 C 136.574219 316.6875 134.84375 317.0625 134.46875 317.234375 C 134.640625 317.78125 135.910156 319.191406 138.128906 320.429688 C 140.058594 321.523438 141.214844 323.363281 141.386719 325.636719 C 141.585938 328.71875 139.945312 332.257812 137.324219 334.242188 C 137.234375 334.300781 137.179688 334.359375 137.121094 334.414062 C 137.554688 334.675781 138.851562 335.164062 142.710938 335.59375 C 145.96875 335.941406 149.972656 336.171875 153.804688 336.34375 C 157.726562 336.542969 161.53125 335.910156 164.296875 335.449219 C 167.582031 334.90625 169.222656 334.617188 169.914062 335.796875 C 170.464844 336.746094 169.773438 337.8125 168.9375 338.789062 C 168.53125 339.363281 168.300781 339.738281 168.1875 339.96875 Z M 168.1875 339.96875 " fill-opacity="1" fill-rule="nonzero"/><path fill="#000000" d="M 298.097656 207.5625 C 287.78125 207.5625 280.03125 203.90625 268.761719 198.613281 C 263.488281 196.136719 257.523438 193.316406 250.085938 190.296875 C 234.929688 184.136719 215.1875 183.878906 197.753906 183.617188 C 180.261719 183.390625 166.457031 183.1875 162.507812 177.027344 C 155.304688 165.777344 155.507812 134.78125 155.910156 121.976562 C 156.082031 116.59375 143.433594 115.789062 133.230469 115.128906 C 127.121094 114.722656 121.847656 114.378906 119.136719 113.199219 C 112.972656 110.464844 113.375 102.148438 113.835938 93.3125 C 113.980469 90.550781 114.125 87.671875 114.066406 84.96875 C 113.980469 81.226562 113.632812 78.347656 113.347656 76.019531 C 112.769531 71.386719 112.394531 68.304688 114.929688 64.160156 C 116.3125 61.886719 115.449219 60.765625 113.347656 58.433594 C 111.414062 56.304688 108.996094 53.628906 108.792969 48.96875 C 108.589844 44.507812 107.667969 43.441406 107.148438 43.183594 C 105.910156 42.605469 103.117188 44.792969 102.195312 45.515625 C 100.378906 46.925781 98.820312 47.382812 97.582031 46.835938 C 95.851562 46.089844 95.621094 43.902344 95.621094 43.644531 C 95.566406 43.066406 95.996094 42.578125 96.546875 42.550781 C 97.09375 42.492188 97.613281 42.921875 97.640625 43.46875 C 97.667969 43.875 97.898438 44.765625 98.390625 44.96875 C 98.878906 45.167969 99.800781 44.765625 100.925781 43.902344 C 103.375 42.003906 105.910156 40.363281 107.984375 41.3125 C 109.742188 42.117188 110.636719 44.507812 110.808594 48.851562 C 110.984375 52.792969 113.027344 55.039062 114.84375 57.054688 C 116.863281 59.269531 118.9375 61.542969 116.660156 65.199219 C 114.46875 68.738281 114.785156 71.210938 115.363281 75.730469 C 115.652344 78.089844 116.027344 81.027344 116.113281 84.882812 C 116.171875 87.671875 116.027344 90.578125 115.882812 93.398438 C 115.476562 101.488281 115.074219 109.140625 119.972656 111.328125 C 122.367188 112.394531 127.726562 112.738281 133.375 113.085938 C 145.015625 113.832031 158.1875 114.695312 157.957031 122.035156 C 157.753906 128.59375 157.640625 138.550781 158.300781 148.511719 C 159.195312 161.921875 161.183594 171.15625 164.238281 175.933594 C 167.582031 181.171875 181.585938 181.375 197.78125 181.605469 C 215.390625 181.835938 235.332031 182.121094 250.867188 188.425781 C 258.359375 191.476562 264.351562 194.296875 269.65625 196.769531 C 285.878906 204.425781 294.035156 208.253906 312.96875 203.390625 C 323.171875 200.769531 329.882812 193.835938 332.910156 182.8125 C 335.214844 174.46875 334.4375 166.785156 334.410156 166.699219 C 334.351562 166.152344 334.753906 165.632812 335.332031 165.574219 C 335.878906 165.519531 336.398438 165.921875 336.453125 166.46875 C 336.484375 166.785156 337.289062 174.554688 334.898438 183.273438 C 331.699219 194.929688 324.292969 202.554688 313.457031 205.347656 C 307.523438 206.871094 302.566406 207.5625 298.097656 207.5625 Z M 298.097656 207.5625 " fill-opacity="1" fill-rule="nonzero"/></svg>