<svg xmlns="http://www.w3.org/2000/svg" xmlns:xlink="http://www.w3.org/1999/xlink" width="500" zoomAndPan="magnify" viewBox="0 0 375 374.999991" height="500" preserveAspectRatio="xMidYMid meet" version="1.0"><defs><clipPath id="id1"><path d="M 141 124.558594 L 241 124.558594 L 241 262.558594 L 141 262.558594 Z M 141 124.558594 " clip-rule="nonzero"/></clipPath></defs><path fill="#a29774" d="M 123.34375 192.683594 C 120.253906 199.15625 98.796875 200.847656 98.796875 200.847656 C 98.796875 200.847656 90.324219 237.109375 88.289062 244.539062 C 85.265625 255.542969 83.800781 262.558594 67.53125 260.679688 C 51.578125 258.828125 58.648438 241.511719 58.648438 241.511719 L 70.96875 205.949219 C 70.96875 205.949219 53.457031 212.871094 36.167969 215.199219 C 0 219.632812 12.226562 188.664062 16.207031 179.066406 C 20.21875 169.371094 27.03125 156.324219 33.875 144.207031 C 38.652344 135.753906 44.128906 126.410156 49.859375 126.121094 C 56.386719 125.773438 63.964844 125.484375 63.328125 132.40625 C 62.882812 137.347656 32.476562 186.78125 41.964844 185.890625 C 54.507812 184.710938 77.496094 178.332031 77.496094 178.332031 C 82.460938 164.777344 87.046875 147.652344 91.152344 135.402344 C 93.734375 127.6875 98.699219 125.007812 105.035156 125.964844 C 111.371094 126.921875 115.382812 128.164062 116.273438 133.714844 C 116.273438 139.230469 106.117188 174.726562 106.59375 174.917969 C 106.785156 175.015625 119.9375 170.359375 123.660156 174.027344 C 125.347656 175.714844 126.460938 186.144531 123.34375 192.683594 Z M 123.34375 192.683594 " fill-opacity="1" fill-rule="nonzero"/><path fill="#402a27" d="M 123.882812 173.769531 C 120.574219 170.515625 110.640625 173.386719 107.359375 174.34375 C 107.199219 174.375 107.074219 174.441406 106.945312 174.472656 C 107.199219 173.101562 108.472656 168.222656 109.8125 163.117188 C 112.675781 152.148438 116.59375 137.15625 116.59375 133.679688 L 116.59375 133.617188 C 115.636719 127.652344 111.019531 126.503906 105.097656 125.613281 C 98.160156 124.558594 93.351562 127.8125 90.867188 135.242188 C 89.179688 140.25 87.429688 146.023438 85.582031 152.148438 C 82.90625 160.949219 80.167969 170.039062 77.273438 178.011719 C 75.203125 178.585938 53.777344 184.421875 41.964844 185.539062 C 41.390625 185.601562 41.007812 185.441406 40.785156 185.09375 C 38.492188 181.679688 49.03125 161.652344 55.972656 148.414062 C 60.175781 140.410156 63.519531 134.097656 63.675781 132.40625 C 63.867188 130.460938 63.421875 128.929688 62.371094 127.84375 C 59.824219 125.261719 54.285156 125.546875 49.828125 125.804688 C 43.746094 126.121094 37.886719 136.488281 33.589844 144.046875 C 25.789062 157.824219 19.519531 170.199219 15.886719 178.9375 C 13.628906 184.390625 6.78125 200.941406 13.597656 209.9375 C 17.449219 215.007812 25.058594 216.890625 36.199219 215.519531 C 51.453125 213.445312 67.117188 207.738281 70.425781 206.492188 L 58.359375 241.382812 C 58.328125 241.480469 57.46875 243.582031 57.023438 246.421875 C 56.609375 249.070312 56.480469 252.832031 58.265625 255.894531 C 59.984375 258.796875 63.074219 260.519531 67.464844 261.027344 C 69.25 261.21875 70.839844 261.347656 72.304688 261.347656 C 84.023438 261.347656 85.804688 254.875 88.351562 245.59375 L 88.605469 244.667969 C 90.550781 237.621094 98.347656 204.292969 99.050781 201.199219 C 101.5 200.976562 120.636719 199.125 123.628906 192.875 C 126.75 186.304688 125.761719 175.652344 123.882812 173.769531 Z M 123.054688 192.523438 C 120.0625 198.773438 98.984375 200.496094 98.761719 200.527344 L 98.539062 200.558594 L 98.476562 200.785156 C 98.382812 201.132812 90.007812 237.109375 87.96875 244.445312 L 87.714844 245.371094 C 84.851562 255.832031 83.097656 262.144531 67.53125 260.359375 C 63.328125 259.882812 60.398438 258.253906 58.804688 255.542969 C 55.558594 250.027344 58.902344 241.703125 58.933594 241.605469 L 71.476562 205.410156 L 70.839844 205.664062 C 70.683594 205.726562 53.171875 212.585938 36.136719 214.914062 C 25.25 216.25 17.832031 214.464844 14.136719 209.554688 C 7.546875 200.847656 14.296875 184.550781 16.492188 179.191406 C 20.089844 170.484375 26.363281 158.109375 34.164062 144.367188 C 38.367188 136.933594 44.128906 126.730469 49.859375 126.441406 C 54.191406 126.21875 59.570312 125.929688 61.863281 128.324219 C 62.785156 129.28125 63.167969 130.621094 63.007812 132.375 C 62.851562 133.9375 59.410156 140.539062 55.398438 148.160156 C 45.71875 166.53125 37.921875 182.03125 40.246094 185.476562 C 40.625 186.015625 41.199219 186.273438 41.996094 186.207031 C 54.414062 185.027344 77.335938 178.683594 77.558594 178.617188 L 77.71875 178.585938 L 77.78125 178.425781 C 80.710938 170.421875 83.480469 161.238281 86.15625 152.371094 C 88 146.246094 89.753906 140.472656 91.441406 135.46875 C 93.828125 128.355469 98.382812 125.261719 104.972656 126.25 C 111.753906 127.269531 115.128906 128.640625 115.925781 133.679688 C 115.890625 137.09375 112.007812 152.019531 109.175781 162.925781 C 106.023438 174.984375 106.054688 174.984375 106.46875 175.175781 C 106.59375 175.238281 106.628906 175.238281 107.550781 174.949219 C 116.082031 172.464844 121.433594 172.207031 123.4375 174.21875 C 124.964844 175.78125 126.175781 186.015625 123.054688 192.523438 Z M 123.054688 192.523438 " fill-opacity="1" fill-rule="nonzero"/><g clip-path="url(#id1)"><path fill="#dccec8" d="M 199.367188 124.992188 C 172.835938 124.992188 148.066406 151.785156 142.148438 205.808594 C 137.992188 243.792969 154.453125 262.09375 180.984375 262.09375 C 207.519531 262.09375 231.027344 243.324219 238.203125 205.808594 C 248.242188 153.261719 225.867188 124.992188 199.367188 124.992188 Z M 214.285156 197.222656 C 210.507812 218.542969 198.171875 229.203125 184.226562 229.203125 C 170.316406 229.203125 161.660156 218.796875 163.832031 197.222656 C 166.949219 166.53125 179.949219 151.3125 193.890625 151.3125 C 207.832031 151.3125 219.570312 167.351562 214.285156 197.222656 Z M 214.285156 197.222656 " fill-opacity="1" fill-rule="nonzero"/><path fill="#402a27" d="M 227.976562 138.515625 C 220.578125 129.585938 210.414062 124.679688 199.367188 124.679688 C 192.632812 124.679688 186.085938 126.375 179.917969 129.742188 C 173.621094 133.199219 167.832031 138.292969 162.792969 144.929688 C 151.875 159.269531 144.636719 180.304688 141.832031 205.777344 C 139.664062 225.554688 143.09375 241.152344 151.777344 250.839844 C 158.578125 258.417969 168.679688 262.441406 180.953125 262.441406 C 194.582031 262.441406 207.078125 257.535156 217.023438 248.292969 C 227.628906 238.417969 235.058594 223.761719 238.457031 205.902344 C 245.882812 167.253906 235.058594 147.097656 227.976562 138.515625 Z M 237.859375 205.777344 C 234.457031 223.511719 227.125 238.039062 216.613281 247.820312 C 206.761719 256.96875 194.457031 261.8125 180.953125 261.8125 C 168.871094 261.8125 158.921875 257.882812 152.25 250.429688 C 143.691406 240.871094 140.324219 225.460938 142.464844 205.871094 C 145.234375 180.496094 152.441406 159.582031 163.296875 145.339844 C 173.273438 132.226562 185.738281 125.308594 199.367188 125.308594 C 210.226562 125.308594 220.203125 130.148438 227.472656 138.921875 C 234.523438 147.414062 245.222656 167.382812 237.859375 205.777344 Z M 193.890625 151 C 186.589844 151 179.882812 154.992188 174.566406 162.570312 C 168.835938 170.714844 164.996094 182.695312 163.550781 197.191406 C 162.355469 208.890625 164.367188 217.976562 169.308594 223.480469 C 172.929688 227.503906 177.964844 229.519531 184.226562 229.519531 C 191.433594 229.519531 198.011719 226.71875 203.269531 221.4375 C 208.871094 215.808594 212.773438 207.476562 214.566406 197.285156 C 218.597656 174.457031 212.394531 162.917969 208.335938 158.074219 C 204.527344 153.484375 199.398438 151 193.890625 151 Z M 213.96875 197.160156 C 212.207031 207.222656 208.335938 215.429688 202.828125 220.964844 C 197.699219 226.121094 191.246094 228.859375 184.226562 228.859375 C 178.121094 228.859375 173.273438 226.90625 169.78125 223.007812 C 164.933594 217.664062 162.984375 208.734375 164.179688 197.222656 C 165.628906 182.820312 169.402344 170.964844 175.101562 162.917969 C 180.324219 155.527344 186.808594 151.597656 193.921875 151.597656 C 199.242188 151.597656 204.183594 154.015625 207.894531 158.449219 C 211.859375 163.230469 217.96875 174.550781 213.96875 197.160156 Z M 213.96875 197.160156 " fill-opacity="1" fill-rule="nonzero"/></g><path fill="#a29774" d="M 371.4375 192.683594 C 368.347656 199.15625 346.890625 200.847656 346.890625 200.847656 C 346.890625 200.847656 338.421875 237.109375 336.382812 244.539062 C 333.359375 255.542969 331.894531 262.558594 315.625 260.679688 C 299.675781 258.828125 306.742188 241.511719 306.742188 241.511719 L 319.0625 205.949219 C 319.0625 205.949219 301.550781 212.871094 284.265625 215.199219 C 248.097656 219.632812 260.320312 188.664062 264.300781 179.066406 C 268.3125 169.371094 275.125 156.324219 281.972656 144.207031 C 286.746094 135.753906 292.222656 126.410156 297.953125 126.121094 C 304.480469 125.773438 312.058594 125.484375 311.421875 132.40625 C 310.976562 137.347656 280.570312 186.78125 290.058594 185.890625 C 302.601562 184.710938 325.589844 178.332031 325.589844 178.332031 C 330.558594 164.777344 335.140625 147.652344 339.25 135.402344 C 341.828125 127.6875 346.792969 125.007812 353.128906 125.964844 C 359.464844 126.921875 363.476562 128.164062 364.371094 133.714844 C 364.371094 139.230469 354.214844 174.726562 354.691406 174.917969 C 354.882812 175.015625 368.03125 170.359375 371.757812 174.027344 C 373.445312 175.714844 374.558594 186.144531 371.4375 192.683594 Z M 371.4375 192.683594 " fill-opacity="1" fill-rule="nonzero"/><path fill="#402a27" d="M 371.980469 173.769531 C 368.667969 170.515625 358.734375 173.386719 355.453125 174.34375 C 355.296875 174.375 355.167969 174.441406 355.039062 174.472656 C 355.296875 173.101562 356.570312 168.222656 357.90625 163.117188 C 360.773438 152.148438 364.6875 137.15625 364.6875 133.679688 L 364.6875 133.617188 C 363.734375 127.652344 359.117188 126.503906 353.195312 125.613281 C 346.253906 124.558594 341.445312 127.8125 338.960938 135.242188 C 337.273438 140.25 335.523438 146.023438 333.675781 152.148438 C 331.003906 160.949219 328.265625 170.039062 325.367188 178.011719 C 323.296875 178.585938 301.871094 184.421875 290.058594 185.539062 C 289.484375 185.601562 289.105469 185.441406 288.882812 185.09375 C 286.589844 181.679688 297.128906 161.652344 304.066406 148.414062 C 308.269531 140.410156 311.613281 134.097656 311.773438 132.40625 C 311.964844 130.460938 311.519531 128.929688 310.46875 127.84375 C 307.921875 125.261719 302.378906 125.546875 297.921875 125.804688 C 291.84375 126.121094 285.984375 136.488281 281.6875 144.046875 C 273.886719 157.824219 267.613281 170.199219 263.984375 178.9375 C 261.722656 184.390625 254.878906 200.941406 261.691406 209.9375 C 265.542969 215.007812 273.152344 216.890625 284.296875 215.519531 C 299.546875 213.445312 315.210938 207.738281 318.523438 206.492188 L 306.457031 241.382812 C 306.425781 241.480469 305.5625 243.582031 305.117188 246.421875 C 304.703125 249.070312 304.578125 252.832031 306.359375 255.894531 C 308.078125 258.796875 311.167969 260.519531 315.5625 261.027344 C 317.34375 261.21875 318.9375 261.347656 320.402344 261.347656 C 332.117188 261.347656 333.898438 254.875 336.449219 245.59375 L 336.703125 244.667969 C 338.644531 237.621094 346.445312 204.292969 347.144531 201.199219 C 349.597656 200.976562 368.730469 199.125 371.722656 192.875 C 374.84375 186.304688 373.855469 175.652344 371.980469 173.769531 Z M 371.152344 192.523438 C 368.160156 198.773438 347.082031 200.496094 346.859375 200.527344 L 346.636719 200.558594 L 346.570312 200.785156 C 346.476562 201.132812 338.101562 237.109375 336.066406 244.445312 L 335.8125 245.371094 C 332.945312 255.832031 331.195312 262.144531 315.625 260.359375 C 311.421875 259.882812 308.492188 258.253906 306.902344 255.542969 C 303.652344 250.027344 306.996094 241.703125 307.027344 241.605469 L 319.574219 205.410156 L 318.9375 205.664062 C 318.777344 205.726562 301.265625 212.585938 284.234375 214.914062 C 273.34375 216.25 265.925781 214.464844 262.234375 209.554688 C 255.640625 200.847656 262.390625 184.550781 264.589844 179.191406 C 268.1875 170.484375 274.457031 158.109375 282.257812 144.367188 C 286.460938 136.933594 292.222656 126.730469 297.953125 126.441406 C 302.285156 126.21875 307.664062 125.929688 309.957031 128.324219 C 310.882812 129.28125 311.261719 130.621094 311.105469 132.375 C 310.945312 133.9375 307.507812 140.539062 303.496094 148.160156 C 293.816406 166.53125 286.015625 182.03125 288.339844 185.476562 C 288.722656 186.015625 289.296875 186.273438 290.089844 186.207031 C 302.507812 185.027344 325.429688 178.683594 325.652344 178.617188 L 325.8125 178.585938 L 325.878906 178.425781 C 328.804688 170.421875 331.574219 161.238281 334.25 152.371094 C 336.097656 146.246094 337.847656 140.472656 339.535156 135.46875 C 341.921875 128.355469 346.476562 125.261719 353.066406 126.25 C 359.847656 127.269531 363.222656 128.640625 364.019531 133.679688 C 363.988281 137.09375 360.101562 152.019531 357.269531 162.925781 C 354.117188 174.984375 354.148438 174.984375 354.5625 175.175781 C 354.691406 175.238281 354.722656 175.238281 355.644531 174.949219 C 364.179688 172.464844 369.527344 172.207031 371.53125 174.21875 C 373.0625 175.78125 374.269531 186.015625 371.152344 192.523438 Z M 371.152344 192.523438 " fill-opacity="1" fill-rule="nonzero"/></svg>