<svg xmlns="http://www.w3.org/2000/svg" xmlns:xlink="http://www.w3.org/1999/xlink" width="500" zoomAndPan="magnify" viewBox="0 0 375 374.999991" height="500" preserveAspectRatio="xMidYMid meet" version="1.0"><defs><clipPath id="id1"><path d="M 32.441406 69.152344 L 342.191406 69.152344 L 342.191406 306.152344 L 32.441406 306.152344 Z M 32.441406 69.152344 " clip-rule="nonzero"/></clipPath></defs><g clip-path="url(#id1)"><path fill="#d1b0bd" d="M 257.511719 303.054688 C 256.996094 301.359375 253.5625 289.796875 249.882812 277.363281 L 243.191406 254.75 L 250.898438 245.378906 C 255.136719 240.226562 258.605469 234.597656 258.605469 232.871094 C 258.605469 227.515625 250.386719 229.605469 241.488281 237.230469 C 231.804688 245.527344 221.730469 247 221.730469 240.117188 C 221.730469 237.695312 225.003906 231.871094 229.003906 227.179688 C 233.007812 222.488281 236.324219 217.816406 236.378906 216.800781 C 236.597656 212.75 229.628906 215.308594 224.003906 221.347656 C 214.667969 231.359375 206.058594 235.101562 200.953125 231.363281 C 197.113281 228.546875 197.75 227.132812 208.003906 215.703125 C 218.113281 204.429688 221.804688 197.699219 217.878906 197.699219 C 217.109375 197.699219 210.371094 202.691406 202.902344 208.789062 C 188.296875 220.714844 176.265625 223.53125 173.277344 215.722656 C 172.140625 212.761719 174.992188 208.644531 183.1875 201.417969 C 194.117188 191.777344 197.695312 185.378906 192.15625 185.378906 C 190.765625 185.378906 184.121094 189.742188 177.390625 195.074219 C 162.925781 206.535156 156.410156 209.039062 151.550781 204.996094 C 146.109375 200.46875 146.992188 198.453125 160.273438 185.144531 C 167.03125 178.367188 172.5625 171.765625 172.5625 170.472656 C 172.5625 165.238281 163.898438 168.691406 153.929688 177.902344 C 143.121094 187.890625 133.664062 191.949219 127.089844 189.417969 C 121.316406 187.195312 122.574219 184.210938 134.457031 171.957031 C 140.542969 165.679688 145.523438 158.988281 145.523438 157.082031 C 145.523438 152.457031 135.933594 145.949219 129.121094 145.949219 C 124.523438 145.949219 122.980469 148.34375 119.449219 160.957031 C 113.890625 180.824219 109.65625 182.472656 90.621094 172.179688 C 63.160156 157.335938 32.4375 122.796875 32.4375 106.769531 C 32.4375 100.425781 44.183594 90.875 65.390625 79.984375 C 81.761719 71.574219 84.515625 70.960938 110.175781 70.03125 C 133.757812 69.171875 139.078125 69.730469 148.894531 74.082031 C 155.152344 76.859375 160.273438 80.644531 160.273438 82.492188 C 160.273438 84.34375 156.402344 92.304688 151.667969 100.179688 C 146.9375 108.058594 143.066406 116.050781 143.066406 117.941406 C 143.066406 121.15625 156.640625 131.128906 161.042969 131.148438 C 162.140625 131.15625 166.261719 124.035156 170.203125 115.324219 C 177.058594 100.164062 183.773438 94.171875 189.75 97.875 C 194.261719 100.671875 192.5 123.082031 186.851562 134.734375 C 181.390625 146 181.976562 151.410156 188.105469 146.3125 C 189.957031 144.769531 193.414062 139.195312 195.785156 133.921875 C 200.171875 124.171875 209.398438 116.996094 213.933594 119.804688 C 220.003906 123.570312 219.613281 135.949219 212.945312 150.839844 C 205.644531 167.152344 206.9375 173.53125 215.257812 162.238281 C 226.117188 147.496094 228.730469 144.757812 230.367188 146.394531 C 233.253906 149.273438 219.382812 171.890625 204.246094 188.984375 C 196.285156 197.972656 189.773438 205.828125 189.773438 206.441406 C 189.773438 210.230469 196.722656 205.910156 208.339844 194.894531 C 221.460938 182.453125 234.023438 161.066406 234.023438 151.171875 C 234.023438 148.457031 235.136719 145.546875 236.5 144.703125 C 241.277344 141.742188 242.15625 151.695312 238.085938 162.703125 C 233.03125 176.371094 234.265625 178.320312 241.644531 168.316406 C 248.449219 159.089844 252.003906 158.757812 255.75 167 C 258.109375 172.183594 257.75 174.929688 253.6875 182.917969 C 244.839844 200.300781 249.167969 207.089844 259.199219 191.566406 C 262.253906 186.839844 266.0625 182.957031 267.660156 182.941406 C 272.53125 182.890625 274.089844 192.929688 270.777344 202.992188 C 269.054688 208.226562 268.4375 213.304688 269.40625 214.273438 C 271.792969 216.667969 275.730469 210.011719 275.777344 203.503906 C 275.8125 198.675781 277.460938 198.105469 294.867188 196.875 C 305.347656 196.136719 317.5 194.785156 321.878906 193.875 C 332.316406 191.703125 342.191406 194.324219 342.191406 199.269531 C 342.191406 201.4375 331.046875 214.390625 317.421875 228.058594 C 296.027344 249.523438 291.128906 256.046875 281.46875 275.957031 C 270.378906 298.804688 265.363281 306.132812 260.8125 306.132812 C 259.515625 306.132812 258.03125 304.746094 257.515625 303.050781 Z M 272.390625 275.148438 C 273.785156 269.578125 262.394531 254.382812 256.828125 254.382812 C 252.839844 254.382812 252.867188 254.871094 257.761719 270.070312 C 260.003906 277.03125 262.296875 284.386719 262.855469 286.417969 C 263.679688 289.410156 264.5625 289.175781 267.492188 285.1875 C 269.480469 282.476562 271.6875 277.957031 272.390625 275.148438 Z M 280.730469 255.699219 C 280.730469 253.714844 278.515625 250.902344 275.8125 249.453125 C 270.277344 246.484375 269.746094 247.625 273.441406 254.542969 C 276.441406 260.164062 280.730469 260.84375 280.730469 255.699219 Z M 290.5625 239.390625 C 290.5625 236.460938 278.164062 231.484375 276.085938 233.578125 C 273.980469 235.699219 285.667969 244.800781 288.359375 243.132812 C 289.574219 242.382812 290.5625 240.699219 290.5625 239.386719 Z M 304.628906 228.097656 C 305.585938 225.21875 303.023438 224.078125 289.332031 221.3125 L 281.957031 219.820312 L 289.332031 226.035156 C 296.878906 232.394531 302.933594 233.210938 304.628906 228.097656 Z M 259.75 209.234375 C 263.847656 202.539062 263.835938 202.394531 259.457031 205.253906 C 256.960938 206.882812 251.128906 213.335938 246.496094 219.59375 L 238.078125 230.96875 L 246.789062 223.578125 C 251.582031 219.511719 257.414062 213.054688 259.75 209.234375 Z M 320.992188 208.445312 C 325.511719 202.234375 325.511719 202.125 320.992188 203.394531 C 318.453125 204.105469 309.738281 205.511719 301.625 206.515625 L 286.875 208.339844 L 296.707031 211.457031 C 311.246094 216.0625 315.871094 215.488281 320.992188 208.445312 Z M 231.820312 206.855469 C 236.332031 203.410156 247.242188 183.023438 245.503906 181.28125 C 244.34375 180.117188 235.871094 190.699219 227.917969 203.246094 C 223.414062 210.351562 225.140625 211.953125 231.820312 206.855469 Z M 189.453125 174.273438 C 196.945312 165.722656 209.472656 143.082031 212.972656 131.777344 C 214.199219 127.808594 213.6875 126.230469 211.171875 126.230469 C 209.238281 126.230469 204.246094 133.164062 200.082031 141.632812 C 195.917969 150.105469 188.019531 163.058594 182.535156 170.421875 C 177.050781 177.78125 172.5625 184.75 172.5625 185.910156 C 172.5625 189.550781 181.410156 183.457031 189.453125 174.273438 Z M 164.28125 157.867188 C 172.46875 149.125 187.3125 120.511719 187.3125 113.476562 C 187.3125 106.15625 182.492188 105.945312 179.769531 113.144531 C 174.421875 127.289062 162.324219 149.171875 152.421875 162.613281 C 143.011719 175.382812 142.773438 176.058594 149.398438 171.277344 C 153.351562 168.425781 160.046875 162.390625 164.285156 157.867188 Z M 110.953125 155.652344 C 113.078125 149.636719 117.328125 140.277344 120.398438 134.855469 C 134.628906 109.742188 139.183594 102.246094 144.882812 94.601562 C 152.78125 84 150.441406 81.746094 129.277344 79.550781 C 109.84375 77.53125 93.105469 79.746094 74.136719 86.84375 C 60.890625 91.800781 44.710938 102.515625 47.183594 104.691406 C 47.859375 105.289062 58.09375 112.050781 69.925781 119.714844 C 81.753906 127.382812 91.433594 134.621094 91.433594 135.800781 C 91.433594 136.984375 89.824219 139.289062 87.855469 140.929688 C 84.945312 143.347656 81.613281 141.996094 70.074219 133.710938 C 54.648438 122.640625 49.488281 124.273438 61.050781 136.570312 C 70.253906 146.359375 101.492188 168.460938 104.640625 167.410156 C 105.988281 166.960938 108.828125 161.667969 110.953125 155.652344 Z M 87.925781 114.964844 C 85.800781 112.835938 84.0625 109.433594 84.0625 107.410156 C 84.0625 101.761719 96.410156 86.800781 101.070312 86.800781 C 112.097656 86.800781 114.972656 104.476562 105.414062 113.480469 C 98.683594 119.820312 93.230469 120.28125 87.925781 114.964844 Z M 155.355469 140.871094 C 155.355469 139.597656 154.25 138.554688 152.898438 138.554688 C 151.546875 138.554688 150.4375 140.28125 150.4375 142.394531 C 150.4375 144.507812 151.546875 145.550781 152.898438 144.714844 C 154.25 143.878906 155.355469 142.148438 155.355469 140.871094 Z M 140.605469 132.246094 C 140.605469 131.648438 139.5 131.160156 138.148438 131.160156 C 136.796875 131.160156 135.6875 132.335938 135.6875 133.769531 C 135.6875 135.207031 136.796875 135.695312 138.148438 134.855469 C 139.5 134.019531 140.605469 132.84375 140.605469 132.246094 Z M 140.605469 132.246094 " fill-opacity="1" fill-rule="nonzero"/></g></svg>