<svg xmlns="http://www.w3.org/2000/svg" xmlns:xlink="http://www.w3.org/1999/xlink" width="500" zoomAndPan="magnify" viewBox="0 0 375 374.999991" height="500" preserveAspectRatio="xMidYMid meet" version="1.0"><defs><clipPath id="221f9e82f5"><path d="M 53.054688 109.019531 L 322.304688 109.019531 L 322.304688 265.769531 L 53.054688 265.769531 Z M 53.054688 109.019531 " clip-rule="nonzero"/></clipPath></defs><rect x="-37.5" width="450" fill="#ffffff" y="-37.499999" height="449.999989" fill-opacity="1"/><rect x="-37.5" width="450" fill="#ffffff" y="-37.499999" height="449.999989" fill-opacity="1"/><path fill="#402a27" d="M 152.5 202.910156 C 150.914062 203.152344 149.578125 203.949219 148.308594 204.867188 C 148.109375 205.007812 147.90625 205.191406 147.984375 205.484375 C 149.878906 205 155.496094 203.46875 156.347656 201.832031 C 155.125 202.207031 153.867188 202.816406 152.5 202.910156 Z M 152.5 202.910156 " fill-opacity="1" fill-rule="nonzero"/><path fill="#402a27" d="M 146.882812 208.15625 C 147.191406 208.464844 147.4375 208.003906 147.691406 207.84375 C 149.070312 206.992188 150.019531 206.308594 151.597656 205.601562 C 149.542969 205.292969 147.390625 206.566406 146.882812 208.15625 Z M 146.882812 208.15625 " fill-opacity="1" fill-rule="nonzero"/><path fill="#402a27" d="M 152.988281 200.378906 C 152.21875 201.09375 151.25 201.53125 150.398438 202.152344 C 146.296875 205.390625 152.855469 202.011719 153.320312 200.546875 C 153.453125 200.34375 153.160156 200.101562 152.988281 200.378906 Z M 152.988281 200.378906 " fill-opacity="1" fill-rule="nonzero"/><path fill="#402a27" d="M 202.558594 185.378906 C 201.472656 186.375 200.882812 187.585938 199.71875 188.511719 C 197.625 190.5 196.238281 192.917969 195.144531 195.546875 C 194.503906 197.558594 196.535156 195.15625 196.660156 194.492188 C 197.949219 190.898438 202.117188 189.40625 202.558594 185.378906 Z M 202.558594 185.378906 " fill-opacity="1" fill-rule="nonzero"/><path fill="#402a27" d="M 198.578125 188.722656 C 199.289062 187.492188 199.628906 186.152344 199.636719 184.734375 C 199.347656 184.015625 198.773438 185.699219 198.582031 185.953125 C 197.476562 188.542969 195.5 190.585938 194.125 193.007812 C 191.53125 197.234375 198.304688 189.492188 198.578125 188.726562 Z M 198.578125 188.722656 " fill-opacity="1" fill-rule="nonzero"/><path fill="#402a27" d="M 199.09375 192.769531 C 197.363281 194.257812 197.558594 197.304688 195.808594 198.890625 C 194.648438 200.3125 196.152344 199.566406 196.703125 198.972656 C 197.421875 198.300781 197.90625 197.460938 198.371094 196.695312 C 198.859375 195.460938 199.570312 193.976562 199.09375 192.769531 Z M 199.09375 192.769531 " fill-opacity="1" fill-rule="nonzero"/><path fill="#402a27" d="M 173.929688 170.46875 C 171.042969 171.917969 168.464844 173.820312 167.734375 177.121094 C 167.699219 177.226562 167.550781 177.425781 167.925781 177.53125 C 169.40625 174.796875 171.734375 172.6875 174.011719 170.621094 C 173.980469 170.558594 173.960938 170.5 173.929688 170.46875 Z M 173.929688 170.46875 " fill-opacity="1" fill-rule="nonzero"/><path fill="#402a27" d="M 167.355469 175.441406 C 169.019531 173.289062 170.488281 171.496094 172.371094 169.644531 C 169.898438 170.394531 167.609375 172.742188 167.355469 175.441406 Z M 167.355469 175.441406 " fill-opacity="1" fill-rule="nonzero"/><path fill="#402a27" d="M 169.855469 177.144531 C 171.519531 175.628906 172.832031 173.519531 174.214844 171.707031 C 174.171875 171.667969 174.121094 171.644531 174.078125 171.605469 C 172.421875 173.03125 169.382812 174.660156 169.855469 177.144531 Z M 169.855469 177.144531 " fill-opacity="1" fill-rule="nonzero"/><path fill="#402a27" d="M 161.222656 190.667969 C 159.917969 191.9375 158.707031 192.703125 158.058594 194.722656 C 160.761719 192.25 163.394531 190.453125 165.863281 188.128906 C 166.015625 187.980469 166.320312 187.914062 166.234375 187.550781 C 164.464844 188.476562 162.613281 189.1875 161.222656 190.667969 Z M 161.222656 190.667969 " fill-opacity="1" fill-rule="nonzero"/><path fill="#402a27" d="M 161.4375 187.699219 C 160.617188 188.957031 159.382812 190.054688 159.066406 191.546875 C 158.988281 191.855469 159.261719 192.042969 159.453125 191.753906 C 160.972656 189.324219 163.59375 187.648438 165.023438 185.238281 C 163.617188 185.789062 162.351562 186.507812 161.4375 187.699219 Z M 161.4375 187.699219 " fill-opacity="1" fill-rule="nonzero"/><path fill="#402a27" d="M 183.664062 217.007812 C 186.011719 215.246094 187.164062 212.535156 188.929688 210.273438 C 189.433594 209.527344 190.945312 207.488281 190.691406 206.664062 C 188.445312 210.222656 185.527344 213.257812 183.664062 217.007812 Z M 183.664062 217.007812 " fill-opacity="1" fill-rule="nonzero"/><path fill="#402a27" d="M 187.195312 218.433594 C 189.914062 217.140625 192.507812 213.675781 193.785156 210.898438 C 191.0625 212.8125 190.042969 216.144531 187.296875 218.042969 C 187.199219 218.105469 186.964844 218.195312 187.195312 218.433594 Z M 187.195312 218.433594 " fill-opacity="1" fill-rule="nonzero"/><path fill="#402a27" d="M 181.839844 215.480469 C 182.550781 215.359375 183.117188 213.5625 183.65625 212.960938 C 184.367188 211.347656 188.621094 207.710938 188.101562 206.339844 C 185.644531 209.179688 183.28125 211.996094 181.839844 215.480469 Z M 181.839844 215.480469 " fill-opacity="1" fill-rule="nonzero"/><path fill="#402a27" d="M 157.234375 190.886719 C 157.144531 191.097656 157.082031 191.351562 157.308594 191.589844 C 158.835938 189.875 160.152344 188.042969 161.816406 186.398438 C 159.324219 186.359375 158.121094 188.949219 157.230469 190.886719 Z M 157.234375 190.886719 " fill-opacity="1" fill-rule="nonzero"/><path fill="#402a27" d="M 213.332031 178.597656 C 211.636719 181.128906 211.929688 182.386719 214.167969 179.441406 C 215.246094 177.570312 219.101562 174.347656 218.425781 172.207031 C 217.269531 174.800781 214.691406 176.167969 213.332031 178.597656 Z M 213.332031 178.597656 " fill-opacity="1" fill-rule="nonzero"/><path fill="#402a27" d="M 215.441406 172.101562 C 215.320312 172.152344 215.207031 172.15625 215.179688 172.207031 C 214.628906 173.152344 213.859375 173.925781 213.109375 174.726562 C 211.15625 176.277344 208.707031 184.050781 212.554688 177.832031 C 213.375 175.875 215.390625 174.292969 215.441406 172.101562 Z M 215.441406 172.101562 " fill-opacity="1" fill-rule="nonzero"/><path fill="#402a27" d="M 212.457031 171.992188 C 211.53125 174.132812 209.757812 175.800781 208.574219 177.84375 C 206.707031 182.589844 211.503906 174.910156 212.058594 174.25 C 212.414062 173.730469 213.089844 172.417969 212.460938 171.992188 Z M 212.457031 171.992188 " fill-opacity="1" fill-rule="nonzero"/><path fill="#402a27" d="M 191.058594 161.351562 C 190.328125 161.160156 189.238281 162.695312 189 163.082031 C 188.628906 163.722656 188.007812 165.761719 188.878906 165.226562 C 189.480469 163.894531 190.523438 162.636719 191.058594 161.351562 Z M 191.058594 161.351562 " fill-opacity="1" fill-rule="nonzero"/><g clip-path="url(#221f9e82f5)"><path fill="#402a27" d="M 307.832031 264.808594 C 307.816406 264.59375 307.761719 264.375 307.699219 264.167969 C 307.542969 263.636719 307.316406 263.136719 307.007812 262.679688 C 305.984375 261.160156 304.878906 259.710938 303.492188 258.488281 C 301.867188 257.0625 300.152344 255.75 298.382812 254.511719 C 296.011719 252.855469 293.582031 251.289062 291.136719 249.746094 C 288.6875 248.203125 286.199219 246.726562 283.667969 245.332031 C 279.757812 243.179688 275.859375 240.988281 271.84375 239.027344 C 270.5625 238.402344 269.289062 237.753906 268.027344 237.082031 C 265.601562 235.792969 263.121094 234.605469 260.800781 233.132812 C 259.46875 232.289062 258.191406 231.371094 257.066406 230.257812 C 255.554688 228.761719 254.648438 226.972656 254.40625 224.855469 C 254.285156 223.804688 254.191406 222.746094 254.085938 221.691406 C 254.058594 221.441406 254.039062 221.183594 253.988281 220.933594 C 253.929688 220.652344 253.566406 220.546875 253.390625 220.773438 C 253.167969 221.054688 252.972656 221.367188 252.792969 221.683594 C 251.945312 223.15625 250.910156 224.46875 249.570312 225.53125 C 247.464844 227.207031 244.652344 228.054688 241.945312 227.789062 C 237.445312 227.339844 233.277344 223.789062 228.644531 224.980469 C 227.359375 225.3125 226.070312 225.890625 224.730469 225.90625 C 223.519531 225.925781 222.3125 225.953125 221.101562 226 C 219.6875 226.050781 218.332031 225.753906 217.003906 225.3125 C 216.019531 224.984375 215.148438 224.453125 214.394531 223.734375 C 213.757812 223.125 213.171875 222.46875 212.621094 221.789062 C 212.367188 221.472656 212.175781 221.121094 212.054688 220.730469 C 211.570312 219.167969 211.417969 217.582031 211.722656 215.964844 C 211.949219 214.773438 212.613281 213.871094 213.253906 212.882812 C 213.621094 212.3125 213.554688 211.769531 213.03125 211.355469 C 212.371094 210.828125 211.460938 210.570312 210.746094 210.101562 C 209.988281 209.609375 209.300781 209.011719 208.730469 208.3125 C 207.273438 206.527344 206.660156 204.535156 207.445312 202.277344 C 208.175781 200.191406 209.625 198.9375 211.859375 199.03125 C 212.191406 199.042969 212.519531 199.046875 212.847656 199.042969 C 213.066406 199.039062 213.3125 199.050781 213.433594 198.828125 C 213.566406 198.59375 213.398438 198.410156 213.265625 198.242188 C 212.945312 197.839844 212.621094 197.445312 212.304688 197.042969 C 211.621094 196.175781 211.464844 195.1875 211.738281 194.140625 C 212.324219 191.902344 213.730469 190.445312 215.984375 189.84375 C 217.640625 189.40625 219.257812 189.617188 220.839844 190.199219 C 221.613281 190.484375 222.34375 191.058594 223.132812 191.257812 C 223.835938 191.441406 224.316406 191.078125 224.625 190.476562 C 225.109375 189.535156 225.335938 188.542969 225.964844 187.664062 C 226.578125 186.8125 227.382812 186.121094 228.292969 185.609375 C 228.609375 185.429688 228.929688 185.238281 229.265625 185.101562 C 231.789062 184.089844 234.210938 184.289062 236.507812 185.75 C 237.824219 186.589844 238.84375 187.734375 239.726562 189.007812 C 240.414062 190 241.097656 190.996094 241.773438 191.996094 C 243.171875 194.074219 244.988281 195.675781 247.25 196.769531 C 248.140625 197.203125 249.015625 197.660156 249.898438 198.109375 C 252.003906 199.171875 253.710938 200.675781 255.027344 202.632812 C 255.558594 203.421875 256.082031 204.21875 256.664062 204.96875 C 257.910156 206.566406 258.496094 208.421875 259.367188 210.214844 C 259.726562 210.960938 260.269531 211.546875 261.019531 211.914062 C 261.746094 212.265625 262.46875 212.625 263.210938 212.933594 C 265.273438 213.796875 267.355469 214.601562 269.40625 215.484375 C 271.898438 216.554688 274.421875 217.539062 276.980469 218.429688 C 279.714844 219.382812 282.429688 220.382812 285.085938 221.523438 C 287.710938 222.652344 290.304688 223.851562 292.921875 224.988281 C 295.105469 225.9375 297.304688 226.851562 299.5 227.773438 C 301.894531 228.777344 304.296875 229.773438 306.699219 230.769531 C 307.476562 231.09375 308.269531 231.375 309.035156 231.730469 C 311.160156 232.722656 313.316406 233.636719 315.5 234.488281 C 317.003906 235.074219 318.566406 235.480469 320.136719 235.847656 C 320.75 235.992188 321.375 235.976562 321.980469 235.773438 C 322.121094 235.726562 322.257812 235.648438 322.273438 235.484375 C 322.289062 235.324219 322.195312 235.203125 322.074219 235.113281 C 321.722656 234.84375 321.320312 234.667969 320.894531 234.546875 C 320.4375 234.414062 319.976562 234.285156 319.515625 234.175781 C 317.585938 233.714844 315.710938 233.097656 313.882812 232.328125 C 310.679688 230.976562 307.472656 229.625 304.285156 228.242188 C 301.09375 226.855469 297.910156 225.457031 294.746094 224.011719 C 292.347656 222.914062 289.984375 221.746094 287.605469 220.613281 C 284.292969 219.035156 280.882812 217.710938 277.46875 216.378906 C 275.527344 215.621094 273.589844 214.839844 271.683594 213.988281 C 269.746094 213.121094 267.871094 212.125 266.082031 210.964844 C 264.695312 210.070312 263.351562 209.128906 262.097656 208.058594 C 260.464844 206.664062 259.199219 204.964844 258.027344 203.1875 C 257.445312 202.300781 256.871094 201.410156 256.246094 200.554688 C 255.128906 199.027344 253.742188 197.789062 252.078125 196.882812 C 250.953125 196.269531 249.804688 195.699219 248.660156 195.117188 C 246.832031 194.183594 245.289062 192.929688 244.203125 191.160156 C 243.707031 190.351562 243.207031 189.542969 242.707031 188.730469 C 242.191406 187.890625 241.671875 187.050781 241.054688 186.277344 C 240.015625 184.96875 238.792969 183.886719 237.28125 183.144531 C 236.847656 182.953125 236.417969 182.746094 235.976562 182.570312 C 235.707031 182.460938 235.417969 182.390625 235.132812 182.328125 C 231.617188 181.570312 228.527344 182.476562 225.824219 184.765625 C 225.183594 185.304688 224.710938 185.988281 224.339844 186.734375 C 224.105469 187.207031 223.800781 188.820312 223.109375 188.597656 C 222.726562 188.472656 222.355469 188.320312 221.984375 188.167969 C 219.476562 187.144531 216.964844 187.175781 214.503906 188.265625 C 213.644531 188.644531 212.898438 189.148438 212.269531 189.761719 C 212.125 188.679688 211.972656 187.234375 212.378906 187.125 C 213.816406 186.75 215.203125 186.046875 216.285156 185.023438 C 217.449219 183.925781 218.058594 182.488281 219.257812 181.382812 C 220.707031 180.050781 222.222656 178.558594 222.1875 176.445312 C 222.15625 174.289062 222.386719 171.664062 221.160156 169.765625 C 220.199219 167.9375 219.167969 166.125 217.753906 164.59375 C 217.167969 163.953125 217.085938 163.324219 217.320312 162.507812 C 218.363281 159.632812 217.808594 156.390625 219.144531 153.628906 C 220.6875 150.671875 222.027344 147.613281 223.179688 144.492188 C 226.421875 136.398438 217.359375 131.1875 211.578125 127.550781 C 204.515625 123.238281 196.957031 119.570312 188.976562 117.308594 C 188.003906 117.058594 186.449219 116.539062 185.523438 116.394531 C 180.164062 114.964844 174.71875 115.804688 169.617188 117.800781 C 162.871094 119.402344 156.332031 121.757812 150.066406 124.773438 C 142.953125 127.386719 135.953125 132.222656 128.066406 131.167969 C 126.152344 130.988281 124.726562 129.644531 123.046875 128.839844 C 117.652344 126.027344 111.859375 124 106.816406 120.519531 C 102.257812 117.390625 98.28125 113.332031 92.847656 111.738281 C 90.847656 111.152344 89.023438 110.164062 87.171875 109.226562 C 85.859375 109.019531 87.285156 110.585938 87.71875 110.863281 C 90.25 112.917969 93.414062 114.03125 95.78125 116.324219 C 102.25 122.554688 111.199219 126.554688 115.996094 134.320312 C 118.015625 139.335938 115.210938 144.457031 113.746094 149.230469 C 112.316406 154.59375 108.355469 158.789062 105.660156 163.410156 C 109.238281 160.832031 112.324219 157.085938 114.34375 153.082031 C 117.148438 147.324219 120.183594 141.355469 125.425781 137.433594 C 126.570312 136.957031 125.097656 140.1875 124.945312 140.585938 C 123.953125 142.660156 123.738281 144.964844 123.261719 147.183594 C 122.625 150.101562 123.207031 153.074219 123.800781 155.953125 C 124.113281 157.234375 125.476562 162.386719 126.589844 162.640625 C 124.621094 157.582031 124.457031 148.476562 126.859375 143.617188 C 126.761719 152.132812 130.179688 160.289062 136.417969 166.125 C 137.132812 166.734375 139.761719 169.359375 140.53125 168.964844 C 133.050781 162.464844 127.957031 151.046875 131.472656 141.238281 C 134.992188 133.285156 144.105469 130.007812 151.796875 127.414062 C 171.8125 118.847656 186.0625 115.160156 205.855469 127.109375 C 211.636719 131.183594 221.914062 134.445312 221.148438 143.023438 C 220.664062 146.175781 219.507812 149.25 218.035156 152.066406 C 217.773438 152.367188 217.550781 151.859375 217.441406 151.660156 C 216.855469 150.542969 216.078125 149.492188 215.085938 148.710938 C 211.539062 146.328125 209.960938 151.582031 209.285156 154.164062 C 208.3125 157.058594 210.351562 159.5625 211.371094 162.132812 C 212.007812 163.558594 212.632812 164.980469 213.03125 166.496094 C 213.28125 167.429688 213.421875 167.59375 212.167969 167.777344 C 203.445312 168.84375 192.046875 155.628906 196.628906 147.433594 C 199.113281 141.929688 203.261719 137.554688 208.171875 134.070312 C 208.445312 133.746094 209.230469 133.472656 209.074219 132.996094 C 203.671875 134.574219 199.296875 139.148438 195.875 143.535156 C 194.472656 145.167969 193.8125 145.566406 193.785156 143.015625 C 193.296875 138.460938 194.15625 133.734375 194.386719 129.363281 C 191.976562 132.808594 192 137.84375 192.046875 142.007812 C 192.128906 142.921875 192.21875 143.917969 191.628906 144.683594 C 191.238281 145.046875 191.027344 144.417969 190.902344 144.132812 C 188.78125 138.683594 188.878906 132.644531 188.425781 126.945312 C 187.191406 130.960938 186.921875 135.535156 187.222656 139.792969 C 188.5625 145.789062 187.699219 149.925781 181.394531 150.765625 C 176.296875 151.828125 173.355469 156.691406 171.566406 161.207031 C 170.753906 162.707031 171.800781 164.113281 170.03125 165.105469 C 168.441406 166.183594 167.195312 167.625 165.851562 168.96875 C 163.492188 171.109375 163.253906 174.226562 162.496094 177.128906 C 162.183594 178.355469 161.441406 179.078125 160.269531 179.511719 C 158.382812 180.203125 156.722656 181.296875 155.277344 182.6875 C 151.703125 185.695312 154.328125 189.285156 151 189.800781 C 140.683594 192.210938 139.242188 202.609375 142.359375 211.3125 C 144.542969 216.828125 145.980469 215.609375 144.144531 222.132812 C 144.097656 222.316406 144.035156 222.539062 144.296875 222.683594 C 144.800781 221.488281 146.636719 217.886719 146.765625 221.3125 C 147.089844 223.359375 147.59375 225.722656 149.285156 227.070312 C 148.9375 225.296875 147.835938 223.429688 148.4375 221.527344 C 149.296875 219.402344 151.25 222.515625 151.40625 223.640625 C 151.679688 224.425781 152.121094 228.46875 153.054688 228.28125 C 151.984375 220.867188 155.136719 228.414062 158.386719 228.019531 C 154.777344 225.257812 152.652344 221.183594 149.558594 217.898438 C 145.734375 213.566406 142.804688 207.570312 143.246094 201.703125 C 143.429688 201.050781 143.789062 200.59375 144.53125 200.472656 C 145.601562 200.304688 146.542969 199.824219 147.449219 199.277344 C 149.300781 198.152344 151.09375 196.984375 152.539062 195.339844 C 153.027344 194.773438 153.261719 194.78125 153.835938 195.160156 C 156.242188 197.308594 157.402344 200.582031 159.828125 202.792969 C 164.289062 207.597656 169.398438 211.9375 172.703125 217.691406 C 173.003906 218.203125 172.988281 218.292969 172.511719 218.609375 C 171.8125 219.085938 171.175781 219.65625 170.636719 220.292969 C 168.574219 222.914062 166.433594 225.507812 163.386719 226.988281 C 167.195312 226.332031 169.746094 223.210938 172.328125 220.597656 C 173.757812 219.359375 173.695312 219.453125 174.351562 221.160156 C 174.449219 221.414062 174.410156 221.648438 174.1875 221.839844 C 172.367188 223.535156 171.3125 225.957031 169.042969 227.191406 C 168.515625 227.484375 169.152344 227.640625 169.410156 227.40625 C 171.40625 226.53125 172.71875 224.675781 174.3125 223.265625 C 176.660156 222.167969 174.066406 230.429688 166.390625 228.835938 C 166.835938 229.5 170.449219 229.898438 168.574219 230.660156 C 165.164062 231.816406 161.523438 231.457031 158.011719 231.546875 C 154.984375 231.527344 151.347656 229.964844 148.738281 228.539062 C 141.136719 226.464844 136.855469 223.921875 129 216.839844 C 121.40625 209.996094 113.570312 203.398438 107.398438 195.234375 C 104.367188 191.1875 103.335938 185.597656 104.414062 180.679688 C 105.773438 174.824219 109.320312 169.582031 113.179688 165.050781 C 113.742188 164.628906 117.859375 158.46875 115.730469 160.246094 C 111.515625 164.597656 106.726562 168.542969 103.847656 173.972656 C 101.957031 176.570312 99.25 178.394531 96.09375 179.105469 C 81.800781 181.957031 68.144531 173.410156 55.703125 167.484375 C 55.28125 167.277344 54.871094 167.054688 54.40625 166.996094 C 53.0625 166.882812 53.160156 168.40625 53.828125 169.199219 C 57.238281 174.738281 65.191406 177.019531 70.773438 179.6875 C 79.738281 184.707031 89.136719 188.453125 98.648438 192.320312 C 103.710938 194.980469 106.28125 199.972656 110.042969 204.019531 C 117.191406 211.53125 125.691406 217.574219 133.789062 223.984375 C 136.652344 226.171875 139.152344 228.066406 142.703125 229.074219 C 145.921875 229.980469 149.207031 230.570312 152.261719 231.996094 C 155.449219 233.410156 158.84375 234.785156 162.382812 234.199219 C 165.390625 233.699219 168.398438 233.054688 171.21875 231.875 C 174.128906 230.65625 177.390625 228.804688 177.417969 225.226562 C 177.476562 224.570312 176.890625 222.726562 178.128906 223.074219 C 179.136719 223.359375 180.097656 224.164062 181.199219 224.441406 C 182.304688 224.714844 183.449219 224.753906 184.5625 224.492188 C 185.582031 224.25 186.765625 223.316406 187.664062 222.792969 C 189.816406 221.535156 192.433594 220.167969 193.890625 218.078125 C 195.191406 216.214844 196.503906 214.011719 197.246094 211.859375 C 197.667969 210.636719 197.78125 209.433594 197.757812 208.148438 C 197.757812 207.980469 197.617188 205.527344 197.652344 205.519531 C 199.765625 205.144531 201.597656 204.746094 203.546875 203.800781 C 204.3125 203.425781 204.933594 203.035156 205.46875 202.582031 C 205.152344 203.753906 205.128906 204.980469 205.429688 206.25 C 206.035156 208.824219 207.488281 210.820312 209.761719 212.207031 C 210.105469 212.414062 210.4375 212.640625 210.761719 212.878906 C 210.921875 213 210.949219 213.195312 210.855469 213.375 C 210.773438 213.535156 210.671875 213.691406 210.554688 213.832031 C 209.582031 215.011719 209.160156 216.394531 209.117188 217.890625 C 209.046875 220.5 209.773438 222.875 211.410156 224.9375 C 212.167969 225.890625 213.085938 226.652344 214.167969 227.246094 C 215.941406 228.226562 217.835938 228.71875 219.855469 228.683594 C 221.097656 228.664062 222.339844 228.546875 223.582031 228.476562 C 224.351562 228.429688 225.117188 228.375 225.886719 228.355469 C 228.589844 228.28125 230.980469 229.660156 233.324219 230.8125 C 235.265625 231.765625 237.34375 232.425781 239.507812 232.574219 C 243.054688 232.816406 246.472656 232.164062 249.96875 233.085938 C 252.242188 233.683594 254.425781 234.53125 256.550781 235.53125 C 260.210938 237.246094 263.558594 239.484375 266.945312 241.667969 C 268.972656 242.976562 271.003906 244.289062 273.128906 245.441406 C 275.828125 246.910156 278.535156 248.375 281.230469 249.859375 C 282.800781 250.722656 284.363281 251.601562 285.910156 252.511719 C 288.53125 254.050781 291.144531 255.601562 293.738281 257.179688 C 294.894531 257.882812 296.0625 258.566406 297.226562 259.261719 C 298.917969 260.277344 300.636719 261.261719 302.210938 262.464844 C 303.171875 263.199219 304.101562 263.96875 305.039062 264.730469 C 305.382812 265.007812 305.734375 265.269531 306.144531 265.441406 C 306.375 265.539062 306.621094 265.628906 306.871094 265.671875 C 307.507812 265.773438 307.878906 265.4375 307.828125 264.816406 Z M 212.210938 160.769531 C 211.5625 158.796875 209.9375 156.859375 210.65625 154.699219 C 211.253906 153.03125 211.800781 151.175781 213.019531 149.882812 C 214.972656 148.679688 216.960938 153.097656 216.863281 154.683594 C 216.929688 157.0625 216.085938 165.824219 214.464844 166.9375 C 213.777344 164.847656 213.121094 162.761719 212.210938 160.769531 Z M 177.511719 155.886719 C 178.097656 155.351562 178.71875 154.457031 179.605469 155.011719 C 181.367188 155.9375 181.855469 156.828125 181.546875 158.785156 C 181.042969 161.152344 179.964844 165.464844 176.898438 165.238281 C 173.648438 164.015625 172.265625 163.726562 174.453125 160.214844 C 175.070312 158.570312 176.296875 157.230469 177.515625 155.886719 Z M 152.042969 194.042969 C 150.011719 196.347656 147.363281 198.375 144.363281 199.179688 C 144.167969 199.191406 144.035156 199.078125 144.054688 198.882812 C 144.199219 197.132812 144.71875 195.582031 146.253906 194.523438 C 147.917969 193.417969 149.78125 192.203125 151.839844 193.433594 C 151.921875 193.460938 152.328125 193.789062 152.042969 194.046875 Z M 158.570312 184.148438 C 157.304688 185.3125 156.058594 186.496094 155.152344 187.996094 C 154.953125 188.324219 154.566406 188.148438 154.667969 187.785156 C 154.515625 186.28125 159.058594 181.460938 160.589844 182.1875 C 160.558594 182.855469 159.015625 183.546875 158.574219 184.148438 Z M 194.058594 214.132812 L 194.085938 214.144531 C 192.71875 217.570312 189.558594 219.53125 186.644531 221.507812 C 181.625 223.75 178.480469 221.039062 175.585938 217.109375 C 173.25 214.058594 170.390625 211.445312 168.207031 208.28125 C 165.9375 205.164062 163.339844 202.351562 160.378906 199.878906 C 157.828125 197.890625 155.027344 193.925781 155.507812 190.679688 C 156.714844 187.507812 160.785156 182.429688 164.511719 182.734375 C 166.507812 182.742188 167.21875 184.953125 168.730469 185.894531 C 169.597656 186.582031 170.449219 187.261719 171.359375 187.886719 C 177.832031 192.648438 185.105469 196.449219 191.054688 201.867188 C 195.117188 205.382812 197.292969 209.128906 194.058594 214.132812 Z M 201.96875 201.703125 C 200.390625 202.300781 197.554688 202.871094 195.9375 202.09375 C 186.347656 197.492188 178.359375 189.789062 169.773438 183.53125 C 164.296875 179.546875 163.746094 176.707031 167.464844 170.992188 C 169.246094 168.457031 172.839844 166.105469 176.027344 167.074219 C 182.460938 169.214844 187.972656 173.359375 194.238281 175.921875 C 199.367188 178.574219 204.796875 181.515625 208.511719 186 C 210.011719 187.804688 209.765625 190.105469 209.015625 192.164062 C 207.75 195.617188 205.675781 200.308594 201.96875 201.703125 Z M 212.394531 184.472656 C 209.542969 184.765625 207.628906 181.894531 205.699219 180.21875 C 201.085938 175.144531 192.921875 174.488281 188.160156 170.152344 C 189.457031 168.386719 192.351562 166.863281 192.058594 164.433594 C 191.695312 164.554688 191.574219 164.890625 191.414062 165.175781 C 190.449219 166.949219 188.609375 167.984375 187.671875 169.765625 C 187.5625 169.980469 187.339844 170.015625 187.125 169.875 C 186.277344 168.804688 190.035156 166.472656 190.269531 165.242188 C 190.167969 164.429688 186.511719 168.144531 186.445312 168.726562 C 186.167969 169.242188 186.03125 169.265625 185.535156 168.988281 C 183.738281 167.902344 181.4375 167.484375 180.417969 165.488281 C 180.167969 165.09375 180.691406 164.71875 180.847656 164.371094 C 182.019531 162.449219 182.585938 160.367188 182.660156 158.121094 C 183.046875 156.394531 180.324219 154.753906 181.460938 154.257812 C 185.914062 153.238281 190.394531 155.25 194.164062 157.476562 C 194.53125 157.691406 194.875 157.925781 195.09375 158.316406 C 197.914062 162.816406 202.203125 166.980469 207.351562 168.609375 C 209.324219 169.054688 211.351562 169.636719 213.34375 168.960938 C 214.164062 168.6875 215.082031 168.921875 215.5625 168.023438 C 215.722656 167.769531 215.957031 167.742188 216.21875 167.921875 C 219.1875 170.082031 221.535156 174.230469 219.867188 177.777344 C 218.628906 179.207031 217.222656 180.519531 216.289062 182.195312 C 215.507812 183.597656 213.921875 184.285156 212.394531 184.476562 Z M 212.394531 184.472656 " fill-opacity="1" fill-rule="nonzero"/></g><path fill="#402a27" d="M 232.304688 218.347656 C 232.800781 219.285156 233.273438 220.230469 233.800781 221.152344 C 234.460938 222.304688 235.339844 223.273438 236.394531 224.09375 C 237.734375 225.132812 239.230469 225.398438 240.847656 224.972656 C 241.957031 224.683594 242.976562 224.171875 243.839844 223.410156 C 244.945312 222.429688 245.929688 221.339844 246.25 219.835938 C 246.789062 217.3125 247.917969 215.101562 249.664062 213.195312 C 250.136719 212.675781 250.445312 212.054688 250.691406 211.398438 C 250.828125 211.023438 250.964844 210.644531 251.117188 210.269531 C 251.515625 209.285156 251.554688 208.273438 251.265625 207.265625 C 250.679688 205.238281 249.46875 203.703125 247.605469 202.691406 C 246.578125 202.113281 245.46875 201.960938 244.3125 202.023438 C 242.765625 202.109375 241.257812 202.398438 239.804688 202.910156 C 238.363281 203.414062 236.898438 203.597656 235.378906 203.515625 C 234.320312 203.457031 233.253906 203.472656 232.195312 203.519531 C 230.496094 203.597656 229.085938 204.28125 228.03125 205.640625 C 227.804688 205.929688 227.617188 206.238281 227.503906 206.589844 C 227.085938 207.890625 227.085938 209.175781 227.640625 210.441406 C 227.917969 211.082031 228.269531 211.679688 228.722656 212.210938 C 229.3125 212.914062 229.808594 213.683594 230.242188 214.484375 C 230.941406 215.765625 231.621094 217.0625 232.304688 218.351562 Z M 232.304688 218.347656 " fill-opacity="1" fill-rule="nonzero"/><path fill="#402a27" d="M 227.769531 192.894531 C 228.257812 194.191406 228.855469 195.445312 229.125 196.824219 C 229.273438 197.570312 229.785156 198.140625 230.503906 198.433594 C 231.292969 198.757812 232.125 198.886719 232.976562 198.6875 C 234.363281 198.363281 235.582031 197.730469 236.609375 196.742188 C 237.398438 195.980469 237.925781 195.085938 238.144531 194.011719 C 238.535156 192.058594 238.019531 190.390625 236.503906 189.074219 C 236.148438 188.765625 235.71875 188.542969 235.417969 188.347656 C 235.007812 188.167969 234.710938 188.015625 234.402344 187.902344 C 232.695312 187.296875 231.027344 187.386719 229.398438 188.207031 C 228.128906 188.839844 226.988281 190.554688 227.601562 192.371094 C 227.660156 192.546875 227.703125 192.722656 227.769531 192.894531 Z M 227.769531 192.894531 " fill-opacity="1" fill-rule="nonzero"/><path fill="#402a27" d="M 214.148438 218.546875 C 214.605469 220.527344 215.800781 221.921875 217.609375 222.804688 C 217.804688 222.90625 217.996094 223.019531 218.199219 223.101562 C 220.171875 223.9375 222.367188 223.464844 223.820312 221.886719 C 225.730469 219.820312 225.816406 215.960938 224.003906 213.796875 C 223.933594 213.710938 223.863281 213.628906 223.789062 213.550781 C 222.894531 212.605469 222.125 212.429688 220.929688 212.949219 C 220.324219 213.21875 219.695312 213.390625 219.054688 213.542969 C 218.164062 213.753906 217.277344 213.972656 216.402344 214.234375 C 215.214844 214.589844 214.527344 215.449219 214.167969 216.597656 C 213.96875 217.246094 214 217.898438 214.152344 218.546875 Z M 214.148438 218.546875 " fill-opacity="1" fill-rule="nonzero"/><path fill="#402a27" d="M 220.863281 191.585938 C 218.246094 190.128906 215.371094 191.199219 214.371094 194 C 213.863281 195.410156 214.203125 196.761719 215.300781 197.785156 C 215.707031 198.164062 216.179688 198.4375 216.792969 198.746094 C 216.96875 198.816406 217.265625 198.96875 217.578125 199.066406 C 218.691406 199.417969 219.792969 199.808594 220.875 200.25 C 221.757812 200.605469 222.675781 200.851562 223.644531 200.855469 C 225.371094 200.863281 226.253906 199.183594 225.886719 197.929688 C 225.71875 197.359375 225.464844 196.84375 225.113281 196.367188 C 224.359375 195.339844 223.601562 194.3125 222.835938 193.289062 C 222.304688 192.578125 221.636719 192.015625 220.863281 191.585938 Z M 220.863281 191.585938 " fill-opacity="1" fill-rule="nonzero"/><path fill="#402a27" d="M 211.054688 201.667969 C 209.75 202.476562 209.015625 203.683594 209.074219 205.222656 C 209.148438 207.097656 210.125 208.445312 211.832031 209.234375 C 212.554688 209.566406 213.328125 209.574219 214.097656 209.472656 C 215.160156 209.328125 216.210938 209.378906 217.257812 209.601562 C 217.542969 209.660156 217.835938 209.707031 218.125 209.722656 C 218.953125 209.777344 219.730469 209.589844 220.433594 209.15625 C 221.484375 208.503906 221.664062 207.417969 220.898438 206.441406 C 220.558594 206.007812 220.117188 205.679688 219.6875 205.339844 C 218.59375 204.484375 217.492188 203.640625 216.40625 202.777344 C 216.003906 202.457031 215.578125 202.179688 214.925781 201.835938 C 214.796875 201.78125 214.472656 201.601562 214.128906 201.488281 C 213.082031 201.136719 212.023438 201.070312 211.054688 201.671875 Z M 211.054688 201.667969 " fill-opacity="1" fill-rule="nonzero"/></svg>