<svg xmlns="http://www.w3.org/2000/svg" xmlns:xlink="http://www.w3.org/1999/xlink" width="500" zoomAndPan="magnify" viewBox="0 0 375 374.999991" height="500" preserveAspectRatio="xMidYMid meet" version="1.0"><path fill="#000000" d="M 226.183594 154.472656 C 218.921875 154.472656 212.050781 151.386719 206.679688 145.417969 C 201.128906 139.242188 194.949219 128.417969 196.957031 111.835938 C 198.160156 101.972656 201.640625 94.835938 201.789062 94.535156 C 202 94.117188 202.539062 93.9375 202.960938 94.148438 C 203.378906 94.355469 203.558594 94.898438 203.347656 95.316406 C 203.320312 95.375 199.808594 102.542969 198.667969 112.105469 C 197.136719 124.878906 200.257812 135.675781 207.941406 144.25 C 215.472656 152.644531 226.214844 154.953125 236.6875 150.457031 C 247.910156 145.597656 258.5625 132.4375 257.003906 113.964844 C 255.742188 98.972656 255.863281 85.753906 257.304688 74.65625 C 258.5625 65.152344 260.722656 57.867188 263.605469 53.578125 C 266.605469 49.113281 267.625 48.125 268.734375 48.601562 C 269.996094 49.140625 269.964844 50.851562 267.386719 61.796875 C 263.964844 76.335938 265.855469 87.789062 272.605469 93.21875 C 275.578125 95.617188 283.46875 102.003906 286.289062 100.804688 C 287.011719 100.503906 287.398438 99.605469 287.519531 98.136719 C 287.820312 94.148438 288.960938 86.953125 293.011719 83.894531 C 294.691406 82.632812 296.640625 82.214844 298.863281 82.695312 C 302.523438 83.441406 304.472656 85.242188 305.644531 86.292969 C 305.976562 86.589844 306.394531 86.980469 306.605469 87.070312 C 306.664062 87.011719 306.84375 86.863281 307.175781 86.351562 C 309.574219 82.425781 313.417969 83.234375 313.566406 83.292969 C 314.046875 83.414062 314.347656 83.863281 314.226562 84.34375 C 314.105469 84.824219 313.65625 85.121094 313.175781 85.003906 C 313.054688 84.972656 310.386719 84.460938 308.644531 87.28125 C 308.226562 87.972656 307.65625 88.71875 306.84375 88.808594 C 305.945312 88.929688 305.253906 88.300781 304.472656 87.582031 C 303.363281 86.5625 301.714844 85.0625 298.53125 84.402344 C 296.824219 84.042969 295.351562 84.34375 294.089844 85.300781 C 291.511719 87.222656 289.769531 91.957031 289.289062 98.253906 C 289.109375 100.414062 288.359375 101.792969 287.011719 102.394531 C 286.558594 102.601562 286.050781 102.691406 285.507812 102.691406 C 282.300781 102.691406 277.527344 99.425781 271.554688 94.597656 C 267.773438 91.539062 265.375 86.921875 264.445312 80.894531 C 263.574219 75.289062 264.023438 68.722656 265.734375 61.40625 C 266.304688 58.976562 267.683594 53.128906 267.835938 50.820312 C 267.324219 51.421875 266.484375 52.53125 265.105469 54.570312 C 260.273438 61.765625 256.074219 81.105469 258.804688 113.816406 C 260.421875 133.15625 249.230469 146.976562 237.4375 152.042969 C 233.65625 153.695312 229.875 154.472656 226.183594 154.472656 Z M 226.183594 154.472656 " fill-opacity="1" fill-rule="nonzero"/><path fill="#000000" d="M 162.328125 375 C 159.929688 375 158.007812 374.640625 156.386719 373.441406 C 152.847656 370.832031 152.125 364.714844 152.996094 359.828125 C 153.867188 354.820312 151.796875 348.046875 146.785156 339.738281 C 141.023438 330.175781 120.199219 301.390625 115.398438 296.054688 C 110.925781 291.078125 111.078125 286.550781 111.375 278.335938 C 111.40625 277.523438 111.4375 276.683594 111.46875 275.785156 C 111.765625 266.371094 110.265625 258.003906 101.59375 240.824219 C 100.574219 238.816406 99.3125 236.476562 97.992188 233.988281 C 88.332031 215.96875 72.1875 185.777344 83.769531 162.449219 C 90.160156 149.585938 97.125 141.492188 101.714844 136.152344 C 106.847656 130.1875 108.527344 128 106.335938 125.808594 L 105.675781 125.121094 C 102.792969 122.210938 98.832031 118.253906 96.132812 113.277344 C 92.890625 107.308594 92.230469 101.222656 94.183594 95.136719 C 96.613281 87.460938 95.503906 80.113281 91.453125 77.265625 C 87.640625 74.566406 81.550781 76.097656 74.289062 81.554688 C 64.324219 89.050781 58.5625 95.347656 54.964844 102.574219 C 51.210938 110.1875 49.53125 119.304688 49.382812 133.09375 C 49.320312 140.171875 48.75 146.199219 47.730469 151.117188 C 54.601562 149.4375 60.335938 144.96875 64.296875 141.011719 C 71.976562 133.367188 76.207031 124.609375 76.328125 123.109375 C 76.179688 122.8125 76.207031 122.453125 76.417969 122.179688 C 76.71875 121.792969 77.257812 121.730469 77.648438 122.03125 C 78.308594 122.570312 78.097656 123.589844 77.589844 124.941406 C 75.007812 131.714844 63.183594 149.644531 47.28125 152.972656 C 45.628906 159.601562 42.988281 163.976562 39.390625 166.078125 C 35.277344 168.476562 29.96875 167.90625 23.605469 164.398438 C 16.3125 160.378906 12.894531 153.003906 13.671875 143.109375 C 14.242188 135.734375 16.914062 129.648438 17.035156 129.40625 C 17.183594 129.046875 17.605469 128.835938 17.992188 128.898438 C 18.382812 128.957031 18.683594 129.316406 18.714844 129.707031 C 18.714844 129.765625 19.042969 135.042969 21.984375 140.382812 C 25.855469 147.457031 32.277344 151.265625 41.007812 151.746094 C 42.691406 151.835938 44.339844 151.746094 45.929688 151.476562 C 47.042969 146.589844 47.609375 140.441406 47.703125 133.066406 C 47.851562 119.003906 49.5625 109.648438 53.460938 101.792969 C 57.183594 94.296875 63.09375 87.820312 73.296875 80.144531 C 77.890625 76.695312 86.472656 71.539062 92.53125 75.828125 C 97.183594 79.125 98.5625 87.28125 95.921875 95.644531 C 91.8125 108.597656 101.324219 118.164062 106.996094 123.859375 L 107.6875 124.550781 C 111.105469 128 108.105469 131.476562 103.125 137.261719 C 98.5625 142.570312 91.691406 150.546875 85.421875 163.199219 C 74.226562 185.714844 90.132812 215.398438 99.613281 233.121094 C 100.933594 235.609375 102.195312 237.945312 103.214844 239.984375 C 112.007812 257.40625 113.539062 266.3125 113.265625 275.816406 C 113.238281 276.714844 113.207031 277.554688 113.175781 278.363281 C 112.878906 286.640625 112.757812 290.417969 116.75 294.855469 C 121.578125 300.25 142.523438 329.1875 148.316406 338.808594 C 153.539062 347.503906 155.726562 354.671875 154.765625 360.128906 C 154.015625 364.476562 154.675781 369.992188 157.46875 372.03125 C 159.597656 373.589844 162.539062 373.351562 167.460938 372.929688 C 169.351562 372.78125 171.511719 372.601562 174.003906 372.480469 C 175.800781 372.390625 176.972656 371.882812 177.484375 370.921875 C 178.503906 369.035156 177.421875 365.375 174.242188 360.039062 L 174.09375 359.796875 C 172.683594 357.429688 169.050781 350.171875 167.402344 344.148438 C 165.929688 338.691406 158.21875 330.59375 153.628906 325.765625 L 153.265625 325.378906 C 148.375 320.25 137.902344 307.417969 136.671875 300.550781 C 135.441406 293.65625 134.03125 288.347656 131.089844 279.5625 C 128.871094 272.878906 129.472656 264.78125 130.792969 247.0625 C 131.300781 240.105469 131.960938 231.441406 132.621094 220.765625 C 132.800781 217.917969 132.773438 215.21875 132.621094 212.730469 C 130.402344 210.210938 128.359375 207.574219 126.46875 204.816406 C 120.078125 195.402344 117.4375 188.324219 119.390625 185.867188 C 120.050781 185.054688 121.097656 184.847656 122.328125 185.296875 C 126.320312 186.824219 133.164062 196.210938 134.300781 211.980469 C 141.265625 219.746094 150.027344 226.375 160.378906 231.738281 C 164.011719 233.597656 167.492188 235.15625 170.730469 236.449219 C 171.0625 236.027344 171.480469 235.699219 172.023438 235.457031 C 176.191406 233.539062 185.734375 237.136719 195.996094 241.335938 C 198.609375 242.382812 200.859375 243.3125 201.847656 243.554688 C 204.101562 244.09375 211.691406 246.371094 215.441406 252.699219 C 216.882812 255.097656 220.722656 257.855469 225.195312 261.0625 C 229.304688 264.003906 233.925781 267.332031 237.648438 271.109375 C 241.398438 274.914062 248.480469 283.371094 254.871094 291.648438 C 266.574219 306.789062 265.855469 307.988281 265.464844 308.648438 C 264.566406 310.144531 260.453125 313.234375 253.25 317.882812 C 252.410156 318.421875 251.570312 318.601562 250.730469 318.421875 C 248.75 317.972656 247.21875 315.511719 245.269531 312.425781 C 244.578125 311.285156 243.828125 310.117188 243.019531 308.917969 C 242.210938 307.71875 241.128906 307.058594 239.75 306.878906 C 236.417969 306.429688 231.257812 308.976562 225.554688 313.863281 C 221.894531 317.011719 221.265625 318.871094 221.382812 319.859375 C 221.503906 320.730469 222.222656 321.480469 223.605469 322.199219 C 224.925781 322.859375 227.835938 323.878906 230.925781 324.957031 C 235.457031 326.546875 240.589844 328.347656 243.109375 329.84375 L 243.230469 329.90625 C 247.339844 332.332031 251.242188 334.613281 255.59375 331.792969 C 260.304688 328.765625 272.9375 316.921875 278.335938 311.855469 L 278.667969 311.527344 C 283.019531 307.449219 279.660156 296.921875 274.375 288.320312 C 272.578125 285.351562 269.15625 280.824219 265.523438 276.023438 C 259.761719 268.410156 253.820312 260.554688 252.5625 256.6875 C 252.261719 255.726562 252.320312 254.828125 252.773438 253.957031 C 254.242188 251.230469 259.492188 249.761719 265.585938 248.050781 C 270.386719 246.703125 275.335938 245.324219 278.757812 243.253906 C 286.199219 238.726562 297.453125 225.773438 302.222656 220.257812 C 303.0625 219.296875 303.632812 218.609375 303.992188 218.21875 C 305.285156 216.808594 307.296875 216.507812 309.964844 217.378906 C 310.804688 215.96875 311.527344 214.621094 312.066406 213.390625 C 317.558594 200.855469 316.597656 184.367188 309.515625 169.285156 C 301.054688 151.296875 300.902344 132.4375 301.203125 125.179688 C 301.324219 122.269531 301.5625 119.753906 302.074219 117.714844 C 297.300781 116.574219 293.011719 113.125 290.941406 109.917969 C 289.769531 108.089844 289.410156 106.441406 289.859375 105.210938 C 290.25 104.191406 290.761719 103.53125 291.480469 103.230469 C 292.742188 102.691406 294.210938 103.351562 296.222656 104.25 C 297.300781 104.730469 298.503906 105.269531 299.941406 105.78125 C 302.285156 106.589844 304.925781 106.589844 307.054688 106.589844 C 309.335938 106.589844 310.984375 106.589844 311.855469 107.460938 C 312.214844 107.820312 312.394531 108.300781 312.394531 108.808594 L 312.394531 108.898438 C 312.367188 111.898438 311.976562 112.976562 307.714844 113.515625 C 306.183594 113.695312 305.105469 114.535156 304.355469 116.304688 C 310.386719 116.785156 312.457031 112.4375 314.675781 107.847656 C 315.035156 107.128906 315.398438 106.378906 315.757812 105.691406 C 318.488281 100.445312 316.835938 90.070312 315.367188 82.695312 L 315.066406 81.285156 C 313.265625 72.4375 312.277344 67.582031 313.988281 57.746094 C 315.21875 50.671875 313.027344 46.921875 311.257812 43.894531 C 310.566406 42.695312 309.964844 41.648438 309.664062 40.566406 C 309.484375 39.90625 309.304688 39.398438 309.125 38.917969 C 308.253906 36.640625 307.925781 35.171875 309.9375 27.105469 C 311.554688 20.597656 310.894531 11.125 305.613281 5.757812 C 305.433594 5.578125 305.34375 5.515625 305.316406 5.515625 C 304.503906 5.9375 303.695312 10.285156 303.242188 12.652344 C 302.375 17.148438 301.804688 19.910156 300.394531 20.660156 C 297.542969 22.15625 290.550781 21.558594 286.648438 21.078125 C 284.519531 20.808594 283.078125 18.050781 282.269531 12.621094 C 281.640625 8.457031 281.578125 4.078125 281.578125 2.488281 C 279.566406 3.988281 274.496094 10.554688 271.917969 13.882812 C 270.597656 15.5625 269.484375 17.03125 268.734375 17.929688 C 267.746094 19.097656 265.886719 20.117188 263.304688 21.496094 C 256.941406 24.914062 246.320312 30.671875 240.5 45.003906 C 237.046875 53.488281 235.667969 63.203125 234.195312 73.488281 C 232.246094 87.160156 230.234375 101.3125 223.0625 113.515625 C 217.511719 122.992188 206.800781 127.367188 191.195312 126.558594 C 178.535156 125.898438 165.210938 121.851562 156.269531 118.613281 C 139.675781 112.585938 119.480469 123.980469 119.269531 124.101562 C 118.847656 124.339844 118.308594 124.191406 118.070312 123.769531 C 117.828125 123.351562 117.980469 122.8125 118.398438 122.570312 C 118.609375 122.453125 123.710938 119.542969 131 117.382812 C 137.785156 115.375 147.746094 113.667969 156.867188 116.964844 C 165.691406 120.171875 178.832031 124.160156 191.285156 124.820312 C 206.171875 125.597656 216.34375 121.523438 221.535156 112.648438 C 228.527344 100.742188 230.507812 86.769531 232.425781 73.25 C 233.898438 62.84375 235.308594 53.011719 238.847656 44.34375 C 244.910156 29.445312 255.890625 23.507812 262.433594 19.96875 C 264.746094 18.710938 266.574219 17.71875 267.355469 16.820312 C 268.074219 15.980469 269.1875 14.511719 270.507812 12.832031 C 278.546875 2.429688 280.886719 0 282.417969 0.539062 C 282.75 0.660156 283.289062 0.988281 283.289062 2.070312 C 283.199219 10.164062 284.519531 19.097656 286.828125 19.398438 C 293.042969 20.179688 297.78125 20.089844 299.523438 19.1875 C 300.242188 18.800781 301.023438 14.78125 301.472656 12.414062 C 302.402344 7.496094 303.09375 4.4375 304.773438 3.925781 C 305.253906 3.777344 306.003906 3.777344 306.816406 4.617188 C 309.9375 7.765625 314.4375 16.160156 311.585938 27.613281 C 309.605469 35.53125 309.996094 36.550781 310.714844 38.410156 C 310.894531 38.917969 311.105469 39.457031 311.316406 40.207031 C 311.554688 41.078125 312.097656 42.007812 312.757812 43.117188 C 314.558594 46.203125 317.046875 50.460938 315.695312 58.136719 C 314.046875 67.640625 315.007812 72.378906 316.777344 81.015625 L 317.078125 82.421875 C 318.757812 90.699219 320.289062 100.894531 317.316406 106.558594 C 316.957031 107.25 316.628906 107.9375 316.265625 108.6875 C 313.988281 113.394531 311.4375 118.734375 304.203125 118.132812 C 304.085938 118.132812 303.933594 118.105469 303.8125 118.105469 C 303.363281 119.871094 303.125 122.242188 302.972656 125.328125 C 302.644531 132.464844 302.792969 150.964844 311.105469 168.625 C 318.429688 184.15625 319.386719 201.1875 313.6875 214.171875 C 313.148438 215.398438 312.457031 216.71875 311.644531 218.097656 C 313.476562 218.90625 315.546875 220.136719 317.886719 221.785156 C 320.109375 223.34375 326.800781 226.941406 333.882812 230.722656 C 341.953125 235.039062 350.296875 239.476562 353.144531 241.574219 C 358.878906 245.832031 362.386719 250.808594 360.859375 261.363281 C 360.589844 263.28125 360.257812 265.5 359.929688 267.871094 C 358.398438 278.363281 356.296875 292.726562 355.578125 299.742188 C 354.886719 306.21875 350.746094 309.007812 346.726562 311.707031 C 345.132812 312.785156 343.484375 313.863281 342.074219 315.183594 C 337.121094 319.832031 331.300781 325.046875 325.179688 328.105469 C 322.898438 329.246094 320.5 329.003906 318.398438 327.445312 C 314.855469 324.777344 312.996094 318.960938 313.988281 313.5625 C 315.878906 303.128906 320.769531 302.261719 323.527344 302.679688 C 326.859375 303.191406 333.910156 299.832031 339.492188 293.535156 C 344.625 287.777344 345.074219 275.425781 345.34375 268.800781 C 345.375 267.960938 345.40625 267.210938 345.433594 266.550781 C 345.734375 260.644531 345.285156 255.605469 336.613281 254.109375 C 328.839844 252.757812 312.90625 252.277344 303.394531 252.007812 C 301.445312 251.949219 299.703125 251.890625 298.324219 251.859375 C 291.839844 251.617188 286.828125 249.910156 286.109375 247.660156 C 285.960938 247.152344 285.871094 246.132812 287.128906 245.203125 C 289.230469 243.671875 302.285156 229.761719 309.125 219.027344 C 307.414062 218.546875 306.125 218.726562 305.40625 219.507812 C 305.042969 219.898438 304.445312 220.617188 303.664062 221.515625 C 298.804688 227.121094 287.460938 240.195312 279.777344 244.871094 C 276.148438 247.0625 271.078125 248.5 266.15625 249.851562 C 260.933594 251.320312 255.53125 252.816406 254.421875 254.886719 C 254.183594 255.308594 254.183594 255.726562 254.332031 256.238281 C 255.503906 259.804688 261.625 267.898438 267.023438 275.066406 C 270.6875 279.894531 274.105469 284.449219 275.96875 287.480469 C 281.1875 296.023438 285.359375 307.808594 279.957031 312.875 L 279.628906 313.203125 C 274.195312 318.300781 261.472656 330.203125 256.644531 333.324219 C 251.363281 336.742188 246.621094 333.921875 242.417969 331.464844 L 242.300781 331.40625 C 239.929688 329.996094 234.855469 328.226562 230.417969 326.667969 C 227.144531 325.527344 224.324219 324.539062 222.882812 323.820312 C 220.933594 322.828125 219.882812 321.628906 219.703125 320.128906 C 219.433594 318.03125 221.023438 315.574219 224.476562 312.574219 C 228.046875 309.515625 234.796875 304.480469 240.046875 305.167969 C 241.910156 305.410156 243.441406 306.367188 244.519531 307.957031 C 245.359375 309.1875 246.140625 310.445312 246.832031 311.527344 C 248.480469 314.164062 249.921875 316.472656 251.179688 316.742188 C 251.421875 316.800781 251.78125 316.832031 252.382812 316.441406 C 258.714844 312.363281 262.972656 309.214844 263.933594 307.925781 C 263.695312 306.90625 261.203125 302.589844 252.980469 292.007812 C 246.800781 284.0625 239.988281 275.964844 236.449219 272.367188 C 232.847656 268.710938 228.253906 265.410156 224.234375 262.53125 C 219.613281 259.203125 215.59375 256.355469 213.972656 253.628906 C 210.550781 247.902344 203.53125 245.800781 201.460938 245.292969 C 200.320312 245.023438 198.128906 244.125 195.367188 242.984375 C 188.796875 240.316406 176.613281 235.308594 172.800781 237.078125 C 172.742188 237.105469 172.652344 237.136719 172.59375 237.195312 C 178.535156 239.445312 183.453125 240.796875 186.394531 241.605469 C 187.984375 242.023438 188.765625 242.265625 189.15625 242.445312 C 191.136719 243.375 192.90625 245.472656 193.507812 247.691406 C 194.046875 249.609375 193.71875 251.5 192.578125 253.179688 C 192.367188 253.507812 192.097656 253.835938 191.855469 254.226562 C 189.097656 258.183594 183.933594 265.5625 181.535156 277.375 C 179.34375 288.199219 187.714844 294.792969 195.789062 301.152344 C 197.046875 302.140625 198.339844 303.160156 199.570312 304.179688 C 208.632812 311.675781 210.402344 316.261719 210.371094 321.691406 C 210.339844 326.515625 214.152344 331.433594 217.03125 334.703125 C 219.671875 337.730469 218.144531 342.617188 216.644531 347.324219 C 215.921875 349.605469 215.171875 351.972656 214.960938 354.011719 C 214.664062 356.800781 213.882812 358.507812 212.53125 359.347656 C 210.671875 360.488281 208.210938 359.738281 205.660156 358.777344 C 200.980469 357.039062 198.097656 354.429688 192.367188 349.214844 C 187.503906 344.808594 190.625 339.53125 192.90625 335.691406 C 193.71875 334.3125 194.496094 333.023438 194.828125 331.945312 C 195.996094 328.285156 187.414062 316.351562 183.273438 310.625 C 182.855469 310.054688 182.464844 309.488281 182.105469 309.007812 C 177.484375 302.53125 165.691406 290.507812 159.507812 286.578125 C 156.179688 284.480469 154.976562 281.601562 155.757812 277.824219 C 156.449219 274.527344 158.546875 270.808594 160.980469 266.492188 L 161.039062 266.402344 C 164.339844 260.554688 166.46875 252.039062 168.179688 245.171875 C 168.871094 242.414062 169.472656 240.015625 170.070312 238.066406 C 166.832031 236.777344 163.289062 235.21875 159.660156 233.328125 C 149.785156 228.230469 141.382812 222.027344 134.511719 214.769531 C 134.574219 216.71875 134.542969 218.757812 134.421875 220.886719 C 133.792969 231.558594 133.132812 240.253906 132.59375 247.210938 C 131.273438 264.691406 130.671875 272.667969 132.800781 279.023438 C 135.773438 287.929688 137.183594 293.265625 138.445312 300.28125 C 139.585938 306.699219 149.996094 319.382812 154.585938 324.207031 L 154.949219 324.597656 C 159.660156 329.546875 167.550781 337.851562 169.140625 343.726562 C 170.730469 349.605469 174.273438 356.648438 175.652344 358.960938 L 175.804688 359.199219 C 178.082031 363.007812 180.902344 368.464844 179.105469 371.792969 C 178.261719 373.320312 176.613281 374.160156 174.152344 374.28125 C 171.691406 374.398438 169.5625 374.550781 167.671875 374.730469 C 165.601562 374.851562 163.859375 375 162.328125 375 Z M 171.632812 238.695312 C 171.0625 240.554688 170.460938 242.925781 169.800781 245.59375 C 168.0625 252.546875 165.898438 261.183594 162.507812 267.242188 L 162.449219 267.332031 C 157.257812 276.566406 154.796875 281.542969 160.378906 285.082031 C 167.402344 289.519531 179.222656 302.019531 183.484375 307.957031 C 183.84375 308.46875 184.234375 309.007812 184.65625 309.578125 C 191.375 318.871094 197.796875 328.316406 196.449219 332.484375 C 196.027344 333.773438 195.21875 335.121094 194.347656 336.589844 C 192.035156 340.460938 189.667969 344.476562 193.476562 347.925781 C 199.207031 353.140625 201.847656 355.511719 206.199219 357.128906 C 208.722656 358.058594 210.492188 358.507812 211.542969 357.847656 C 212.382812 357.308594 212.921875 355.992188 213.160156 353.832031 C 213.402344 351.644531 214.183594 349.183594 214.933594 346.785156 C 216.28125 342.527344 217.664062 338.121094 215.652344 335.84375 C 212.59375 332.332031 208.539062 327.085938 208.570312 321.660156 C 208.601562 317.582031 207.820312 313.292969 198.429688 305.5 C 197.226562 304.507812 195.9375 303.488281 194.675781 302.5 C 186.183594 295.8125 177.394531 288.859375 179.792969 276.984375 C 182.253906 264.8125 187.535156 257.257812 190.386719 253.179688 C 190.65625 252.820312 190.894531 252.457031 191.105469 252.128906 C 191.945312 250.898438 192.1875 249.550781 191.796875 248.109375 C 191.257812 246.101562 189.667969 244.574219 188.40625 244.003906 C 188.136719 243.882812 187.117188 243.582031 185.914062 243.285156 C 182.855469 242.445312 177.785156 241.066406 171.632812 238.695312 Z M 322.507812 304.328125 C 319.238281 304.328125 316.835938 307.6875 315.695312 313.863281 C 314.828125 318.542969 316.445312 323.789062 319.449219 326.007812 C 320.527344 326.816406 322.269531 327.566406 324.398438 326.515625 C 330.3125 323.578125 335.980469 318.453125 340.875 313.894531 C 342.402344 312.484375 344.085938 311.316406 345.734375 310.234375 C 349.574219 307.65625 353.234375 305.230469 353.835938 299.5625 C 354.585938 292.546875 356.6875 278.152344 358.21875 267.628906 C 358.578125 265.261719 358.878906 263.042969 359.148438 261.125 C 360.558594 251.410156 357.496094 247 352.125 243.015625 C 349.394531 241.003906 341.113281 236.566406 333.101562 232.28125 C 325.960938 228.472656 319.238281 224.875 316.925781 223.226562 C 314.585938 221.546875 312.515625 220.347656 310.777344 219.597656 C 303.8125 230.691406 290.339844 244.933594 288.121094 246.582031 C 287.910156 246.730469 287.699219 246.941406 287.761719 247.121094 C 288.03125 247.992188 291.511719 249.851562 298.351562 250.089844 C 299.734375 250.148438 301.472656 250.179688 303.425781 250.238281 C 313.625 250.539062 329.019531 250.988281 336.914062 252.367188 C 346.996094 254.136719 347.503906 260.375 347.175781 266.640625 C 347.144531 267.300781 347.113281 268.050781 347.085938 268.890625 C 346.816406 275.726562 346.335938 288.5 340.8125 294.734375 C 334.542969 301.8125 327.101562 305.019531 323.289062 304.449219 C 322.988281 304.328125 322.75 304.328125 322.507812 304.328125 Z M 121.097656 186.824219 C 120.949219 186.824219 120.828125 186.855469 120.738281 186.976562 C 120.109375 187.785156 120.140625 192.402344 127.910156 203.855469 C 129.292969 205.863281 130.761719 207.84375 132.320312 209.734375 C 130.730469 195.941406 124.671875 188.085938 121.667969 186.945312 C 121.488281 186.886719 121.28125 186.824219 121.097656 186.824219 Z M 17.515625 133.246094 C 16.734375 135.703125 15.773438 139.332031 15.445312 143.289062 C 14.722656 152.585938 17.753906 159.179688 24.476562 162.867188 C 30.265625 166.046875 35.007812 166.617188 38.550781 164.546875 C 41.640625 162.75 43.949219 158.972656 45.480469 153.273438 C 43.980469 153.484375 42.480469 153.542969 40.917969 153.453125 C 29.1875 152.824219 23.304688 146.40625 20.425781 141.132812 C 18.835938 138.222656 17.964844 135.375 17.515625 133.246094 Z M 292.5625 104.882812 C 292.441406 104.882812 292.320312 104.910156 292.261719 104.941406 C 292.019531 105.03125 291.78125 105.359375 291.601562 105.902344 C 291.359375 106.589844 291.691406 107.757812 292.5 109.078125 C 294.332031 111.957031 298.351562 115.136719 302.675781 116.125 C 303.605469 113.667969 305.105469 112.195312 307.566406 111.898438 C 310.714844 111.507812 310.714844 111.269531 310.714844 108.988281 L 310.714844 108.898438 C 310.714844 108.808594 310.6875 108.777344 310.6875 108.777344 C 310.324219 108.417969 308.554688 108.417969 307.144531 108.417969 C 304.894531 108.417969 302.074219 108.417969 299.464844 107.519531 C 297.960938 107.011719 296.640625 106.410156 295.621094 105.929688 C 294.332031 105.390625 293.191406 104.882812 292.5625 104.882812 Z M 292.5625 104.882812 " fill-opacity="1" fill-rule="nonzero"/></svg>