<svg xmlns="http://www.w3.org/2000/svg" xmlns:xlink="http://www.w3.org/1999/xlink" width="500" zoomAndPan="magnify" viewBox="0 0 375 374.999991" height="500" preserveAspectRatio="xMidYMid meet" version="1.0"><defs><g/><clipPath id="id1"><path d="M 134.210938 114.265625 L 212.210938 114.265625 L 212.210938 240.265625 L 134.210938 240.265625 Z M 134.210938 114.265625 " clip-rule="nonzero"/></clipPath></defs><g clip-path="url(#id1)"><path stroke-linecap="butt" transform="matrix(0.00769797, 0, 0, -0.00771002, 134.571279, 240.126692)" fill="none" stroke-linejoin="miter" d="M 3362.67109 5546.976253 C 2932.363027 5348.371152 2501.547524 5150.272696 2159.533804 4939.001452 C 1817.520083 4727.730209 1564.308145 4504.299469 1349.154113 4219.057959 C 1133.492643 3934.323093 956.396517 3588.284102 819.388054 3281.763474 C 681.872151 2975.74949 584.951349 2709.760515 470.777629 2591.712074 C 357.111348 2473.663634 226.19215 2503.049082 130.793664 2623.124106 C 35.902617 2743.705775 -22.960279 2954.977018 84.616737 3322.295127 C 192.193753 3689.613236 466.718119 4212.978211 852.879011 4683.652036 C 1239.039903 5154.325861 1737.34476 5572.308537 2210.277679 5846.910488 C 2683.210598 6121.005795 3130.77158 6252.227023 3557.020133 6406.247305 C 3983.268687 6560.267588 4388.712252 6737.593572 4796.185572 6686.929005 C 5203.658891 6636.264439 5613.161966 6357.609321 5800.914305 6055.648504 C 5988.666644 5753.687686 5955.175686 5428.927813 5754.737379 5088.96857 C 5553.791632 4749.009327 5186.913412 4394.35736 4891.076619 3972.321518 C 4595.747264 3550.285677 4371.966773 3060.359317 4072.070469 2720.400074 C 3772.174165 2380.440831 3396.669487 2190.448706 3187.60472 2013.122722 C 2978.539953 1835.796738 2936.422537 1671.136896 2915.110109 1430.480204 C 2894.30512 1189.823512 2894.30512 873.16997 2923.736568 658.352207 C 2953.168016 443.027798 3012.53835 329.032523 2965.853985 226.183452 C 2919.677058 123.841028 2767.445432 32.644807 2653.779151 38.724555 C 2539.605431 45.310949 2463.489618 149.173311 2457.400353 247.46257 C 2450.803649 345.75183 2514.233493 438.467987 2526.919462 427.828428 C 2539.605431 417.695515 2501.547524 303.70024 2432.028415 255.062255 C 2362.509306 206.424271 2261.021555 223.143578 2212.307434 307.753405 C 2163.593314 392.363231 2168.160263 544.356932 2208.247924 637.073089 C 2248.335586 729.789246 2324.451399 763.734506 2345.256388 979.058914 C 2366.568816 1194.383323 2332.570419 1591.086881 2357.942357 1873.795163 C 2383.314295 2157.010092 2468.056566 2325.723099 2548.23189 2437.691791 C 2628.407213 2549.660484 2704.015587 2604.378216 2767.445432 2863.780798 C 2830.875276 3123.690025 2881.619151 3588.284102 2947.078751 4012.346526 C 3012.53835 4436.40895 3092.713673 4820.953012 3200.290689 5143.686302 C 3307.867705 5466.926238 3442.846414 5728.355402 3578.332561 5966.985512 C 3713.31127 6205.615621 3848.289978 6420.94003 4034.012562 6598.266013 C 4219.735147 6775.591997 4456.201606 6914.919556 4688.608556 7233.599681 C 4920.508066 7552.279806 5148.855506 8050.312497 5355.383079 8466.26859 C 5562.418091 8882.224683 5748.140675 9215.597532 5834.912702 9671.578633 C 5921.17729 10127.559734 5908.491321 10706.149086 5889.716087 11050.161494 C 5870.433415 11394.173903 5845.061477 11504.116013 5782.139071 11763.518594 C 5718.709227 12023.427822 5617.221476 12432.797521 5606.565262 12760.090623 C 5596.416487 13087.383724 5676.59181 13332.093581 5716.679472 13532.725266 C 5756.767134 13733.35695 5756.767134 13889.403816 5726.828247 14003.399091 C 5697.396799 14117.394366 5638.533904 14189.338051 5638.533904 14368.690617 C 5638.533904 14548.043183 5697.396799 14834.804631 5742.05141 14930.054017 C 5786.198581 15024.796757 5815.630029 14928.027434 5887.686332 14828.724883 C 5959.235197 14729.422332 6073.408916 14628.093199 6124.152792 14564.76249 C 6174.389228 14501.431782 6161.70326 14476.099499 6098.780854 14512.071341 C 6035.35101 14548.043183 5921.17729 14644.812506 5847.598671 14780.086899 C 5773.512612 14915.361292 5739.514216 15088.127465 5744.081165 15221.375276 C 5748.140675 15354.116441 5790.258091 15447.339243 5847.598671 15442.779432 C 5904.431811 15438.726267 5975.980675 15337.397134 6037.380765 15240.121165 C 6098.780854 15143.351843 6149.017291 15050.12904 6246.445531 15027.329985 C 6343.366334 15004.024284 6486.971501 15050.12904 6567.146824 15042.022709 C 6647.322147 15033.409733 6664.575065 14970.079025 6670.66433 14780.086899 C 6676.753595 14590.094774 6672.694085 14273.441232 6784.83805 13851.405391 C 6896.474576 13428.862904 7124.314577 12901.444764 7253.20402 12532.100072 C 7382.093464 12162.75538 7411.524912 11951.484137 7314.604109 11816.209744 C 7217.175869 11681.441996 6993.395378 11622.164453 6772.152081 11694.108138 C 6550.401345 11765.545177 6330.680365 11968.203444 6180.985932 12221.526278 C 6031.2915 12474.849112 5950.608738 12778.836512 5942.489718 12941.469772 C 5933.863259 13104.103031 5997.293103 13125.382149 6084.06513 13076.744165 C 6170.329718 13028.106181 6279.936489 12910.05774 6301.248917 12859.393173 C 6322.561345 12808.728607 6254.564552 12825.447914 6189.612391 12956.162496 C 6124.152792 13087.383724 6060.722947 13332.093581 6066.812212 13665.466431 C 6073.408916 13999.345925 6149.017291 14421.381767 6204.328115 14740.061891 C 6259.1315 15058.742016 6292.622458 15274.066425 6351.992792 15428.086708 C 6410.855688 15582.106991 6495.59796 15675.329794 6586.429497 15698.635494 C 6676.753595 15721.43455 6774.181836 15675.329794 6820.358763 15590.719967 C 6867.043128 15506.110141 6862.983618 15384.008535 6812.239743 15377.422141 C 6761.495867 15371.342393 6664.575065 15480.777857 6655.948606 15523.336094 C 6647.322147 15565.387684 6727.497471 15540.055401 6772.152081 15491.417416 C 6816.299253 15442.779432 6824.925711 15371.342393 6802.598406 15309.024976 C 6780.271101 15246.707559 6727.497471 15194.01641 6703.14041 15129.67241 C 6679.290789 15065.32841 6683.350299 14989.33156 6676.753595 14963.999277 C 6670.66433 14938.666993 6653.918851 14963.999277 6655.948606 14987.811623 C 6657.978361 15012.130615 6679.290789 15035.436316 6721.408206 15039.996127 C 6763.525622 15044.049292 6826.955466 15029.356568 6912.205177 15030.369859 C 6997.962327 15031.38315 7105.539343 15048.102457 7194.341125 15019.7303 C 7282.635468 14991.358143 7352.662016 14917.387875 7417.106738 14880.402741 C 7481.044021 14843.417608 7540.414355 14843.417608 7600.292128 14847.470773 C 7660.67734 14852.030584 7722.077429 14860.64356 7761.150213 14843.417608 C 7800.222997 14826.698301 7816.968476 14784.64671 7817.983354 14771.473923 C 7818.998231 14758.807781 7804.282507 14776.033734 7772.313866 14775.020442 C 7740.852663 14774.007151 7692.138543 14754.754616 7659.662462 14767.420757 C 7626.678943 14780.086899 7609.933464 14824.671718 7619.574801 14843.417608 C 7629.216137 14862.670143 7664.73685 14856.083749 7699.750124 14856.083749 C 7734.763398 14856.083749 7768.254356 14862.670143 7804.282507 14819.098616 C 7840.310659 14776.033734 7877.861127 14682.810931 7886.487586 14624.040034 C 7895.114044 14564.76249 7873.801617 14539.430207 7887.502463 14515.111215 C 7901.203309 14490.792223 7949.91743 14467.486522 7974.27449 14436.074491 C 7998.63155 14404.155814 7998.63155 14364.130806 7949.91743 14271.414649 C 7901.203309 14178.698492 7804.282507 14032.784539 7733.748521 13895.483564 C 7662.707095 13758.182588 7618.559923 13629.494588 7601.814444 13551.471155 C 7584.561527 13473.447722 7595.217741 13446.088856 7629.216137 13426.836321 C 7662.707095 13408.090431 7720.047674 13397.450872 7735.778276 13365.02555 C 7751.508877 13332.093581 7726.136939 13277.375849 7658.647585 13233.804322 C 7591.158231 13190.73944 7481.044021 13158.820763 7467.343174 13184.153046 C 7453.642328 13209.48533 7536.354845 13292.068574 7600.292128 13338.173329 C 7664.73685 13384.784731 7711.421215 13395.42429 7863.145403 13400.490746 C 8015.377029 13406.063849 8272.648478 13406.063849 8466.997521 13540.831596 C 8661.346564 13676.10599 8792.265762 13946.14813 8891.216319 14251.148822 C 8990.674315 14556.149514 9058.163669 14896.108757 9081.505852 15130.685701 C 9104.340596 15364.756 9083.535607 15493.443999 9104.340596 15565.387684 C 9125.653024 15637.331369 9189.082868 15652.024093 9222.573826 15709.781699 C 9256.572222 15768.045951 9260.631732 15869.375084 9289.048303 15961.07795 C 9317.972312 16052.780816 9370.745942 16135.36406 9420.982379 16164.749509 C 9471.726254 16194.641603 9520.440375 16171.335902 9541.752802 16147.01691 C 9562.557791 16122.697918 9556.468526 16097.365635 9546.82719 16116.111525 C 9537.185854 16135.36406 9524.499885 16198.694768 9541.752802 16239.733067 C 9558.498281 16280.771367 9604.675208 16300.023902 9641.718237 16300.023902 C 9678.761266 16300.023902 9706.162959 16280.771367 9716.819173 16252.399209 C 9727.475386 16224.027052 9720.878683 16186.028627 9715.804295 16185.015335 C 9710.222469 16184.002044 9706.162959 16219.973886 9714.789418 16245.30617 C 9722.908438 16270.638453 9744.220865 16285.331178 9774.667191 16267.091934 C 9805.113516 16249.359335 9845.708616 16198.694768 9860.42434 16157.656469 C 9875.140064 16116.61817 9864.48385 16084.699493 9854.842514 16078.1131 C 9845.708616 16072.033351 9837.082157 16090.779241 9846.723494 16109.018485 C 9855.857391 16126.751084 9883.259084 16143.977036 9913.197971 16127.764375 C 9942.629418 16112.058359 9974.090621 16063.420375 9976.120376 15991.983336 C 9978.65757 15920.039651 9951.255877 15824.790266 9932.988082 15791.351652 C 9915.227726 15757.406392 9906.601267 15784.765258 9924.869062 15788.311778 C 9942.629418 15791.351652 9986.77659 15770.072534 10016.715476 15734.100691 C 10046.146924 15698.635494 10060.862648 15647.464282 10010.118773 15580.080408 C 9959.374897 15512.696534 9843.171422 15428.086708 9733.564651 15379.448724 C 9623.957881 15331.317385 9520.440375 15318.651244 9465.636989 15381.475307 C 9410.833604 15445.312661 9404.2369 15584.640219 9436.205541 15679.382959 C 9467.666744 15774.632345 9537.185854 15824.790266 9603.66033 15801.991211 C 9670.134807 15778.68551 9733.564651 15681.409542 9756.906834 15594.773133 C 9780.249017 15508.643369 9762.996099 15432.646519 9727.475386 15312.06485 C 9691.447235 15191.989827 9636.643849 15027.329985 9599.60082 14777.047025 C 9562.557791 14526.764065 9543.782557 14191.364633 9537.185854 13824.046524 C 9531.096589 13456.728415 9537.185854 13057.491629 9467.666744 12788.46278 C 9398.147635 12519.43393 9252.512712 12380.106372 9084.550485 12031.534153 C 8916.588257 11683.468579 8726.806163 11126.158345 8631.915116 10881.448487 C 8536.51663 10636.231984 8536.51663 10704.122504 8469.027276 11028.882376 C 8401.537921 11354.148895 8266.559213 11936.791413 8118.894535 12304.109522 C 7971.229858 12671.427631 7810.371772 12823.421331 7802.252752 12920.190654 C 7793.626294 13017.466622 7937.231461 13059.518212 8101.641617 12722.092197 C 8266.559213 12384.159537 8452.281797 11666.242626 8519.771151 10957.445337 C 8587.260505 10248.141403 8536.51663 9546.943799 8291.93115 8724.151235 C 8046.838232 7900.852025 7607.903709 6954.944563 7244.577561 6346.969762 C 6881.758852 5738.994961 6594.548517 5468.95282 6404.766423 5177.631562 C 6214.984329 4886.310303 6121.615598 4573.709926 6054.126244 4248.950053 C 5986.636889 3923.683534 5944.519473 3585.750874 5817.659784 3353.707158 C 5691.307534 3121.663443 5480.213012 2995.002026 5146.825751 2825.782373 C 4812.93105 2657.069365 4357.251049 2446.304768 4108.098621 2264.418973 C 3858.946192 2083.039824 3816.828776 1931.046124 3833.574254 1711.66855 C 3850.319733 1491.78433 3926.435547 1205.022882 4027.923297 955.753214 C 4128.90361 706.483545 4255.763298 495.718948 4277.075726 333.085688 C 4297.880715 169.945783 4213.645882 55.950508 4116.725079 30.618225 C 4019.296839 5.285941 3909.690068 68.61665 3909.690068 172.479012 C 3909.690068 275.834728 4019.296839 419.722097 4065.981204 427.828428 C 4112.158131 436.441404 4095.412652 309.779988 4006.61087 293.06068 C 3917.809088 275.834728 3757.458441 369.057531 3641.762405 503.825278 C 3525.558931 639.099671 3453.502627 816.425655 3394.639732 968.419355 C 3335.269398 1120.413056 3289.092471 1247.074473 3265.750288 1390.455196 C 3242.408106 1534.342566 3242.408106 1694.442597 3240.378351 1783.105589 C 3238.348596 1871.768581 3234.289086 1888.994533 3229.722137 1905.71384 " stroke="#231f20" stroke-width="46.192001" stroke-opacity="1" stroke-miterlimit="22.926001"/></g><g fill="#000000" fill-opacity="1"><g transform="translate(105.671103, 174.562807)"><g><path d="M 10.734375 -25.609375 C 10.773438 -25.703125 10.867188 -25.71875 11.015625 -25.65625 C 11.160156 -25.59375 11.210938 -25.515625 11.171875 -25.421875 C 10.972656 -24.984375 10.632812 -24.28125 10.15625 -23.3125 C 9.707031 -22.414062 9.382812 -21.75 9.1875 -21.3125 C 8.96875 -20.789062 8.695312 -20.101562 8.375 -19.25 C 8.082031 -18.445312 7.847656 -17.851562 7.671875 -17.46875 C 7.628906 -17.375 7.535156 -17.359375 7.390625 -17.421875 C 7.242188 -17.484375 7.191406 -17.5625 7.234375 -17.65625 C 7.671875 -18.65625 7.894531 -19.414062 7.90625 -19.9375 C 7.914062 -20.457031 7.703125 -20.8125 7.265625 -21 C 6.921875 -21.15625 6.382812 -21.234375 5.65625 -21.234375 L -3.296875 -21.0625 L -7.125 -12.34375 L -2.203125 -7.21875 C -1.523438 -6.507812 -0.914062 -6.035156 -0.375 -5.796875 C 0.332031 -5.484375 0.972656 -5.550781 1.546875 -6 C 2.117188 -6.445312 2.679688 -7.296875 3.234375 -8.546875 C 3.285156 -8.660156 3.382812 -8.6875 3.53125 -8.625 C 3.675781 -8.5625 3.722656 -8.472656 3.671875 -8.359375 C 3.472656 -7.921875 3.164062 -7.296875 2.75 -6.484375 C 2.300781 -5.566406 1.925781 -4.769531 1.625 -4.09375 C 1.363281 -3.488281 1.070312 -2.757812 0.75 -1.90625 C 0.476562 -1.144531 0.238281 -0.535156 0.03125 -0.078125 C -0.0195312 0.046875 -0.117188 0.078125 -0.265625 0.015625 C -0.410156 -0.046875 -0.457031 -0.140625 -0.40625 -0.265625 C -0.101562 -0.941406 0.03125 -1.570312 0 -2.15625 C -0.0390625 -2.75 -0.285156 -3.394531 -0.734375 -4.09375 C -1.179688 -4.800781 -1.878906 -5.65625 -2.828125 -6.65625 L -17.90625 -22.40625 C -17.945312 -22.5 -17.941406 -22.597656 -17.890625 -22.703125 C -17.847656 -22.816406 -17.789062 -22.863281 -17.71875 -22.84375 L 4.265625 -23.328125 C 5.765625 -23.335938 6.929688 -23.421875 7.765625 -23.578125 C 8.609375 -23.734375 9.25 -23.96875 9.6875 -24.28125 C 10.132812 -24.601562 10.484375 -25.046875 10.734375 -25.609375 Z M -7.640625 -12.9375 L -4.09375 -21.015625 L -15.15625 -20.765625 Z M -7.640625 -12.9375 "/></g></g></g><g fill="#000000" fill-opacity="1"><g transform="translate(115.706959, 151.883674)"><g><path d="M 11.796875 -15.765625 C 11.835938 -15.828125 11.921875 -15.804688 12.046875 -15.703125 C 12.171875 -15.609375 12.210938 -15.53125 12.171875 -15.46875 C 11.796875 -14.988281 11.488281 -14.617188 11.25 -14.359375 L 9.921875 -12.75 L 8.65625 -11.078125 C 8.457031 -10.773438 8.164062 -10.378906 7.78125 -9.890625 C 7.738281 -9.835938 7.65625 -9.859375 7.53125 -9.953125 C 7.40625 -10.054688 7.363281 -10.132812 7.40625 -10.1875 C 7.894531 -10.800781 8.191406 -11.285156 8.296875 -11.640625 C 8.410156 -11.992188 8.351562 -12.34375 8.125 -12.6875 C 7.90625 -13.039062 7.484375 -13.460938 6.859375 -13.953125 L 1.609375 -18.09375 C 0.328125 -19.09375 -0.789062 -19.578125 -1.75 -19.546875 C -2.71875 -19.523438 -3.609375 -19.003906 -4.421875 -17.984375 C -4.941406 -17.304688 -5.285156 -16.460938 -5.453125 -15.453125 C -5.628906 -14.453125 -5.613281 -13.398438 -5.40625 -12.296875 L 1.359375 -6.96875 C 1.984375 -6.476562 2.488281 -6.160156 2.875 -6.015625 C 3.257812 -5.867188 3.613281 -5.894531 3.9375 -6.09375 C 4.257812 -6.300781 4.660156 -6.707031 5.140625 -7.3125 C 5.191406 -7.375 5.28125 -7.351562 5.40625 -7.25 C 5.53125 -7.15625 5.566406 -7.078125 5.515625 -7.015625 C 5.140625 -6.523438 4.832031 -6.15625 4.59375 -5.90625 L 3.28125 -4.296875 L 2 -2.609375 C 1.800781 -2.316406 1.515625 -1.929688 1.140625 -1.453125 C 1.085938 -1.378906 1 -1.390625 0.875 -1.484375 C 0.75 -1.585938 0.710938 -1.675781 0.765625 -1.75 C 1.242188 -2.351562 1.535156 -2.832031 1.640625 -3.1875 C 1.753906 -3.550781 1.695312 -3.898438 1.46875 -4.234375 C 1.25 -4.578125 0.828125 -4.992188 0.203125 -5.484375 L -6.078125 -10.4375 C -6.816406 -11.007812 -7.410156 -11.335938 -7.859375 -11.421875 C -8.304688 -11.503906 -8.691406 -11.335938 -9.015625 -10.921875 C -9.285156 -10.585938 -9.59375 -9.878906 -9.9375 -8.796875 L -9.984375 -8.734375 C -10.054688 -8.640625 -10.148438 -8.613281 -10.265625 -8.65625 C -10.378906 -8.695312 -10.425781 -8.78125 -10.40625 -8.90625 L -9.296875 -13.6875 C -9.285156 -13.726562 -9.253906 -13.785156 -9.203125 -13.859375 C -9.078125 -14.015625 -8.691406 -14.015625 -8.046875 -13.859375 C -7.410156 -13.703125 -6.722656 -13.332031 -5.984375 -12.75 L -5.875 -12.65625 C -6.175781 -14.25 -6.238281 -15.601562 -6.0625 -16.71875 C -5.894531 -17.84375 -5.476562 -18.828125 -4.8125 -19.671875 C -3.894531 -20.835938 -2.878906 -21.484375 -1.765625 -21.609375 C -0.648438 -21.742188 0.539062 -21.304688 1.8125 -20.296875 L 8.015625 -15.421875 C 8.640625 -14.929688 9.140625 -14.613281 9.515625 -14.46875 C 9.898438 -14.320312 10.253906 -14.347656 10.578125 -14.546875 C 10.910156 -14.742188 11.316406 -15.148438 11.796875 -15.765625 Z M 11.796875 -15.765625 "/></g></g></g><g fill="#000000" fill-opacity="1"><g transform="translate(127.328429, 137.472796)"><g><path d="M -9.828125 -18.96875 C -10.203125 -18.632812 -10.582031 -18.46875 -10.96875 -18.46875 C -11.363281 -18.46875 -11.722656 -18.644531 -12.046875 -19 C -12.367188 -19.351562 -12.515625 -19.726562 -12.484375 -20.125 C -12.460938 -20.519531 -12.265625 -20.882812 -11.890625 -21.21875 C -11.535156 -21.539062 -11.164062 -21.691406 -10.78125 -21.671875 C -10.40625 -21.648438 -10.054688 -21.460938 -9.734375 -21.109375 C -9.410156 -20.753906 -9.253906 -20.390625 -9.265625 -20.015625 C -9.285156 -19.640625 -9.472656 -19.289062 -9.828125 -18.96875 Z M 1.6875 -1.53125 C 1.644531 -1.5 1.566406 -1.539062 1.453125 -1.65625 C 1.347656 -1.78125 1.316406 -1.859375 1.359375 -1.890625 C 1.929688 -2.410156 2.300781 -2.835938 2.46875 -3.171875 C 2.644531 -3.515625 2.65625 -3.875 2.5 -4.25 C 2.34375 -4.632812 1.992188 -5.117188 1.453125 -5.703125 L -3.640625 -11.28125 C -4.304688 -12.019531 -4.859375 -12.476562 -5.296875 -12.65625 C -5.734375 -12.832031 -6.128906 -12.757812 -6.484375 -12.4375 C -6.859375 -12.101562 -7.191406 -11.523438 -7.484375 -10.703125 L -7.515625 -10.671875 C -7.597656 -10.597656 -7.703125 -10.59375 -7.828125 -10.65625 C -7.960938 -10.726562 -8.007812 -10.816406 -7.96875 -10.921875 L -5.875 -15.984375 L -5.765625 -16.109375 C -5.722656 -16.160156 -5.660156 -16.1875 -5.578125 -16.1875 C -5.503906 -16.1875 -5.4375 -16.15625 -5.375 -16.09375 C -5.269531 -15.976562 -4.925781 -15.578125 -4.34375 -14.890625 C -3.757812 -14.210938 -3.078125 -13.445312 -2.296875 -12.59375 L 2.828125 -6.96875 C 3.367188 -6.382812 3.8125 -5.988281 4.15625 -5.78125 C 4.507812 -5.570312 4.863281 -5.539062 5.21875 -5.6875 C 5.570312 -5.832031 6.039062 -6.171875 6.625 -6.703125 C 6.675781 -6.753906 6.753906 -6.71875 6.859375 -6.59375 C 6.972656 -6.476562 7.003906 -6.394531 6.953125 -6.34375 C 6.492188 -5.925781 6.125 -5.609375 5.84375 -5.390625 L 4.265625 -4 L 2.75 -2.5625 C 2.488281 -2.289062 2.132812 -1.945312 1.6875 -1.53125 Z M 1.6875 -1.53125 "/></g></g></g><g fill="#000000" fill-opacity="1"><g transform="translate(132.686482, 130.789283)"><g><path d="M 25.296875 -15.1875 C 25.367188 -15.226562 25.445312 -15.175781 25.53125 -15.03125 C 25.613281 -14.894531 25.617188 -14.804688 25.546875 -14.765625 C 25.015625 -14.460938 24.59375 -14.238281 24.28125 -14.09375 L 22.421875 -13.046875 L 20.640625 -12 C 20.335938 -11.78125 19.921875 -11.519531 19.390625 -11.21875 C 19.335938 -11.1875 19.269531 -11.238281 19.1875 -11.375 C 19.101562 -11.519531 19.085938 -11.609375 19.140625 -11.640625 C 19.816406 -12.023438 20.273438 -12.359375 20.515625 -12.640625 C 20.765625 -12.929688 20.847656 -13.28125 20.765625 -13.6875 C 20.691406 -14.09375 20.457031 -14.640625 20.0625 -15.328125 L 16.796875 -20.984375 C 15.984375 -22.390625 15.132812 -23.28125 14.25 -23.65625 C 13.363281 -24.039062 12.390625 -23.925781 11.328125 -23.3125 C 10.609375 -22.894531 9.992188 -22.257812 9.484375 -21.40625 C 8.984375 -20.550781 8.648438 -19.5625 8.484375 -18.4375 C 8.554688 -18.332031 8.679688 -18.128906 8.859375 -17.828125 L 12.734375 -11.109375 C 13.128906 -10.421875 13.484375 -9.941406 13.796875 -9.671875 C 14.117188 -9.398438 14.46875 -9.296875 14.84375 -9.359375 C 15.21875 -9.429688 15.738281 -9.660156 16.40625 -10.046875 C 16.445312 -10.078125 16.507812 -10.019531 16.59375 -9.875 C 16.675781 -9.738281 16.695312 -9.65625 16.65625 -9.625 C 16.125 -9.320312 15.6875 -9.09375 15.34375 -8.9375 L 13.53125 -7.90625 L 11.703125 -6.828125 C 11.429688 -6.628906 11.03125 -6.375 10.5 -6.0625 C 10.425781 -6.019531 10.347656 -6.066406 10.265625 -6.203125 C 10.179688 -6.347656 10.175781 -6.441406 10.25 -6.484375 C 10.914062 -6.867188 11.363281 -7.203125 11.59375 -7.484375 C 11.832031 -7.765625 11.910156 -8.109375 11.828125 -8.515625 C 11.753906 -8.921875 11.519531 -9.46875 11.125 -10.15625 L 7.859375 -15.8125 C 7.046875 -17.21875 6.195312 -18.109375 5.3125 -18.484375 C 4.425781 -18.867188 3.46875 -18.765625 2.4375 -18.171875 C 1.707031 -17.753906 1.09375 -17.125 0.59375 -16.28125 C 0.101562 -15.445312 -0.234375 -14.46875 -0.421875 -13.34375 L 3.84375 -5.953125 C 4.238281 -5.265625 4.585938 -4.78125 4.890625 -4.5 C 5.203125 -4.226562 5.539062 -4.128906 5.90625 -4.203125 C 6.28125 -4.273438 6.800781 -4.503906 7.46875 -4.890625 C 7.539062 -4.929688 7.617188 -4.878906 7.703125 -4.734375 C 7.785156 -4.597656 7.789062 -4.507812 7.71875 -4.46875 C 7.1875 -4.15625 6.765625 -3.929688 6.453125 -3.796875 L 4.640625 -2.765625 L 2.8125 -1.6875 C 2.53125 -1.488281 2.125 -1.234375 1.59375 -0.921875 C 1.519531 -0.878906 1.441406 -0.925781 1.359375 -1.0625 C 1.273438 -1.207031 1.269531 -1.300781 1.34375 -1.34375 C 2.007812 -1.726562 2.460938 -2.0625 2.703125 -2.34375 C 2.941406 -2.632812 3.019531 -2.976562 2.9375 -3.375 C 2.851562 -3.78125 2.613281 -4.328125 2.21875 -5.015625 L -1.78125 -11.9375 C -2.25 -12.75 -2.675781 -13.273438 -3.0625 -13.515625 C -3.445312 -13.765625 -3.867188 -13.753906 -4.328125 -13.484375 C -4.691406 -13.273438 -5.238281 -12.726562 -5.96875 -11.84375 L -6.03125 -11.796875 C -6.125 -11.742188 -6.210938 -11.757812 -6.296875 -11.84375 C -6.390625 -11.925781 -6.410156 -12.019531 -6.359375 -12.125 L -3.5625 -16.15625 C -3.53125 -16.195312 -3.476562 -16.238281 -3.40625 -16.28125 C -3.21875 -16.382812 -2.859375 -16.242188 -2.328125 -15.859375 C -1.796875 -15.472656 -1.296875 -14.875 -0.828125 -14.0625 L -0.75 -13.921875 C -0.5 -15.460938 -0.09375 -16.703125 0.46875 -17.640625 C 1.039062 -18.585938 1.773438 -19.320312 2.671875 -19.84375 C 3.710938 -20.445312 4.695312 -20.671875 5.625 -20.515625 C 6.5625 -20.359375 7.40625 -19.816406 8.15625 -18.890625 C 8.414062 -20.484375 8.832031 -21.769531 9.40625 -22.75 C 9.976562 -23.738281 10.710938 -24.492188 11.609375 -25.015625 C 12.835938 -25.722656 13.972656 -25.914062 15.015625 -25.59375 C 16.066406 -25.269531 17 -24.398438 17.8125 -22.984375 L 21.6875 -16.265625 C 22.082031 -15.578125 22.429688 -15.09375 22.734375 -14.8125 C 23.035156 -14.539062 23.367188 -14.4375 23.734375 -14.5 C 24.109375 -14.570312 24.628906 -14.800781 25.296875 -15.1875 Z M 25.296875 -15.1875 "/></g></g></g><g fill="#000000" fill-opacity="1"><g transform="translate(157.370089, 117.603283)"><g><path d="M -6.296875 -23.609375 C -6.367188 -23.835938 -6.238281 -24.132812 -5.90625 -24.5 C -5.570312 -24.875 -5.191406 -25.175781 -4.765625 -25.40625 C -4.335938 -25.644531 -4.117188 -25.695312 -4.109375 -25.5625 L -2.390625 -14.671875 C -2.390625 -14.617188 -2.441406 -14.5625 -2.546875 -14.5 C -2.660156 -14.4375 -2.726562 -14.4375 -2.75 -14.5 Z M -6.296875 -23.609375 "/></g></g></g><g fill="#000000" fill-opacity="1"><g transform="translate(160.019123, 115.196419)"><g><path d="M 14.5625 -1.6875 C 12.101562 -1.320312 9.832031 -1.570312 7.75 -2.4375 C 5.664062 -3.300781 3.953125 -4.632812 2.609375 -6.4375 C 1.273438 -8.25 0.429688 -10.316406 0.078125 -12.640625 C -0.328125 -15.347656 0.0078125 -17.773438 1.09375 -19.921875 C 2.1875 -22.066406 3.726562 -23.785156 5.71875 -25.078125 C 7.71875 -26.378906 9.84375 -27.195312 12.09375 -27.53125 C 14.59375 -27.90625 16.878906 -27.644531 18.953125 -26.75 C 21.023438 -25.863281 22.71875 -24.535156 24.03125 -22.765625 C 25.34375 -21.003906 26.160156 -19.039062 26.484375 -16.875 C 26.835938 -14.476562 26.53125 -12.179688 25.5625 -9.984375 C 24.59375 -7.796875 23.132812 -5.957031 21.1875 -4.46875 C 19.25 -2.988281 17.039062 -2.0625 14.5625 -1.6875 Z M 15.859375 -2.703125 C 17.734375 -2.984375 19.351562 -3.671875 20.71875 -4.765625 C 22.09375 -5.859375 23.085938 -7.3125 23.703125 -9.125 C 24.316406 -10.945312 24.445312 -13.035156 24.09375 -15.390625 C 23.726562 -17.867188 22.921875 -20.003906 21.671875 -21.796875 C 20.421875 -23.585938 18.832031 -24.894531 16.90625 -25.71875 C 14.988281 -26.539062 12.875 -26.773438 10.5625 -26.421875 C 7.5 -25.960938 5.253906 -24.65625 3.828125 -22.5 C 2.398438 -20.34375 1.929688 -17.628906 2.421875 -14.359375 C 2.785156 -11.910156 3.601562 -9.734375 4.875 -7.828125 C 6.144531 -5.929688 7.738281 -4.519531 9.65625 -3.59375 C 11.570312 -2.664062 13.640625 -2.367188 15.859375 -2.703125 Z M 15.859375 -2.703125 "/></g></g></g><g fill="#000000" fill-opacity="1"><g transform="translate(187.789659, 111.870847)"><g/></g></g><g fill="#000000" fill-opacity="1"><g transform="translate(195.200474, 111.655208)"><g><path d="M 8 -1.703125 C 7.8125 -0.867188 7.789062 -0.238281 7.9375 0.1875 C 8.082031 0.625 8.472656 0.992188 9.109375 1.296875 C 9.742188 1.609375 10.789062 1.925781 12.25 2.25 C 12.332031 2.269531 12.351562 2.359375 12.3125 2.515625 C 12.28125 2.671875 12.222656 2.738281 12.140625 2.71875 C 11.066406 2.476562 10.238281 2.273438 9.65625 2.109375 L 6.265625 1.328125 L 3.6875 0.78125 C 3.207031 0.707031 2.550781 0.578125 1.71875 0.390625 C 1.664062 0.378906 1.65625 0.296875 1.6875 0.140625 C 1.726562 -0.015625 1.773438 -0.0859375 1.828125 -0.078125 C 2.835938 0.140625 3.597656 0.238281 4.109375 0.21875 C 4.617188 0.195312 5 0.015625 5.25 -0.328125 C 5.507812 -0.671875 5.722656 -1.226562 5.890625 -2 L 9.953125 -20.078125 C 10.117188 -20.847656 10.160156 -21.4375 10.078125 -21.84375 C 9.992188 -22.25 9.722656 -22.578125 9.265625 -22.828125 C 8.816406 -23.078125 8.085938 -23.3125 7.078125 -23.53125 C 7.023438 -23.539062 7.015625 -23.625 7.046875 -23.78125 C 7.085938 -23.9375 7.132812 -24.007812 7.1875 -24 L 9.078125 -23.53125 C 10.171875 -23.226562 11.023438 -23.007812 11.640625 -22.875 C 12.265625 -22.738281 12.992188 -22.617188 13.828125 -22.515625 C 15.878906 -22.140625 16.988281 -21.9375 17.15625 -21.90625 C 19.457031 -21.382812 21.203125 -20.4375 22.390625 -19.0625 C 23.578125 -17.6875 23.929688 -15.921875 23.453125 -13.765625 C 23.054688 -12.015625 22.296875 -10.644531 21.171875 -9.65625 C 20.046875 -8.664062 18.765625 -8.03125 17.328125 -7.75 C 15.898438 -7.476562 14.484375 -7.5 13.078125 -7.8125 C 12.296875 -7.988281 11.671875 -8.195312 11.203125 -8.4375 C 11.117188 -8.457031 11.085938 -8.53125 11.109375 -8.65625 C 11.128906 -8.738281 11.164062 -8.8125 11.21875 -8.875 C 11.28125 -8.945312 11.335938 -8.96875 11.390625 -8.9375 C 11.785156 -8.738281 12.242188 -8.582031 12.765625 -8.46875 C 14.609375 -8.050781 16.300781 -8.253906 17.84375 -9.078125 C 19.382812 -9.910156 20.394531 -11.390625 20.875 -13.515625 C 21.175781 -14.890625 21.164062 -16.140625 20.84375 -17.265625 C 20.519531 -18.390625 19.941406 -19.328125 19.109375 -20.078125 C 18.273438 -20.828125 17.289062 -21.328125 16.15625 -21.578125 C 15.082031 -21.816406 14.316406 -21.929688 13.859375 -21.921875 C 13.398438 -21.921875 13.023438 -21.753906 12.734375 -21.421875 C 12.453125 -21.097656 12.207031 -20.46875 12 -19.53125 Z M 8 -1.703125 "/></g></g></g><g fill="#000000" fill-opacity="1"><g transform="translate(213.950788, 115.97908)"><g><path d="M 16.140625 -10.234375 C 16.679688 -9.992188 17.128906 -9.628906 17.484375 -9.140625 C 17.847656 -8.660156 17.953125 -8.238281 17.796875 -7.875 C 17.679688 -7.625 17.488281 -7.4375 17.21875 -7.3125 C 16.945312 -7.195312 16.644531 -7.210938 16.3125 -7.359375 C 16.0625 -7.460938 15.867188 -7.628906 15.734375 -7.859375 C 15.597656 -8.085938 15.507812 -8.222656 15.46875 -8.265625 C 15.15625 -8.828125 14.769531 -9.207031 14.3125 -9.40625 C 13.96875 -9.550781 13.539062 -9.5625 13.03125 -9.4375 C 12.519531 -9.3125 11.671875 -8.941406 10.484375 -8.328125 L 7.078125 -0.46875 C 6.765625 0.257812 6.613281 0.84375 6.625 1.28125 C 6.644531 1.71875 6.878906 2.101562 7.328125 2.4375 C 7.773438 2.769531 8.550781 3.175781 9.65625 3.65625 C 9.726562 3.6875 9.734375 3.773438 9.671875 3.921875 C 9.609375 4.066406 9.539062 4.125 9.46875 4.09375 C 8.6875 3.757812 8.066406 3.472656 7.609375 3.234375 L 5 2.0625 L 3.03125 1.25 C 2.695312 1.144531 2.25 0.972656 1.6875 0.734375 C 1.613281 0.703125 1.609375 0.613281 1.671875 0.46875 C 1.734375 0.320312 1.800781 0.265625 1.875 0.296875 C 2.582031 0.597656 3.125 0.757812 3.5 0.78125 C 3.875 0.800781 4.195312 0.65625 4.46875 0.34375 C 4.75 0.0390625 5.046875 -0.472656 5.359375 -1.203125 L 8.53125 -8.546875 C 8.90625 -9.410156 9.070312 -10.066406 9.03125 -10.515625 C 9 -10.972656 8.738281 -11.304688 8.25 -11.515625 C 7.863281 -11.679688 7.097656 -11.789062 5.953125 -11.84375 L 5.875 -11.875 C 5.769531 -11.914062 5.722656 -12 5.734375 -12.125 C 5.753906 -12.257812 5.828125 -12.332031 5.953125 -12.34375 L 10.84375 -12.484375 C 10.894531 -12.484375 10.960938 -12.46875 11.046875 -12.4375 C 11.234375 -12.351562 11.328125 -11.984375 11.328125 -11.328125 C 11.335938 -10.671875 11.160156 -9.914062 10.796875 -9.0625 L 10.703125 -8.84375 C 12.234375 -9.632812 13.382812 -10.117188 14.15625 -10.296875 C 14.9375 -10.484375 15.597656 -10.460938 16.140625 -10.234375 Z M 16.140625 -10.234375 "/></g></g></g><g fill="#000000" fill-opacity="1"><g transform="translate(225.347578, 120.478188)"><g><path d="M 7.40625 5.5 C 6.132812 4.664062 5.21875 3.609375 4.65625 2.328125 C 4.09375 1.046875 3.898438 -0.3125 4.078125 -1.75 C 4.253906 -3.1875 4.757812 -4.535156 5.59375 -5.796875 C 6.539062 -7.242188 7.695312 -8.242188 9.0625 -8.796875 C 10.4375 -9.347656 11.828125 -9.519531 13.234375 -9.3125 C 14.640625 -9.101562 15.910156 -8.625 17.046875 -7.875 C 18.335938 -7.019531 19.253906 -5.953125 19.796875 -4.671875 C 20.347656 -3.390625 20.535156 -2.046875 20.359375 -0.640625 C 20.179688 0.753906 19.707031 2.039062 18.9375 3.21875 C 18.019531 4.601562 16.898438 5.609375 15.578125 6.234375 C 14.265625 6.867188 12.890625 7.113281 11.453125 6.96875 C 10.023438 6.820312 8.675781 6.332031 7.40625 5.5 Z M 8.71875 5.5 C 10.019531 6.351562 11.320312 6.585938 12.625 6.203125 C 13.9375 5.828125 15.207031 4.703125 16.4375 2.828125 C 17.3125 1.492188 17.867188 0.132812 18.109375 -1.25 C 18.359375 -2.644531 18.265625 -3.929688 17.828125 -5.109375 C 17.398438 -6.296875 16.632812 -7.253906 15.53125 -7.984375 C 14.257812 -8.816406 12.976562 -9.023438 11.6875 -8.609375 C 10.40625 -8.191406 9.21875 -7.15625 8.125 -5.5 C 7.25 -4.164062 6.675781 -2.785156 6.40625 -1.359375 C 6.132812 0.0664062 6.1875 1.390625 6.5625 2.609375 C 6.9375 3.835938 7.65625 4.800781 8.71875 5.5 Z M 8.71875 5.5 "/></g></g></g><g fill="#000000" fill-opacity="1"><g transform="translate(239.468599, 129.834227)"><g><path d="M 10.265625 7.03125 C 10.328125 7.09375 10.335938 7.1875 10.296875 7.3125 C 10.253906 7.4375 10.1875 7.492188 10.09375 7.484375 C 8.90625 7.304688 7.9375 7.070312 7.1875 6.78125 C 6.445312 6.488281 5.78125 6.070312 5.1875 5.53125 C 4.394531 4.78125 3.914062 3.984375 3.75 3.140625 C 3.582031 2.304688 3.890625 1.472656 4.671875 0.640625 L 11.171875 -6.3125 C 11.660156 -6.832031 11.960938 -7.226562 12.078125 -7.5 C 12.203125 -7.769531 12.195312 -8.03125 12.0625 -8.28125 C 11.9375 -8.53125 11.632812 -8.882812 11.15625 -9.34375 C 11.09375 -9.394531 11.113281 -9.476562 11.21875 -9.59375 C 11.332031 -9.707031 11.421875 -9.738281 11.484375 -9.6875 C 12.210938 -9 13 -8.644531 13.84375 -8.625 C 14.6875 -8.601562 15.398438 -8.90625 15.984375 -9.53125 C 16.035156 -9.59375 16.140625 -9.546875 16.296875 -9.390625 C 16.429688 -9.265625 16.472656 -9.171875 16.421875 -9.109375 L 14.421875 -6.984375 C 15.765625 -5.765625 17.234375 -4.578125 18.828125 -3.421875 C 18.878906 -3.367188 18.863281 -3.257812 18.78125 -3.09375 C 18.707031 -2.9375 18.578125 -2.757812 18.390625 -2.5625 C 18.253906 -2.40625 18.082031 -2.273438 17.875 -2.171875 C 17.664062 -2.078125 17.53125 -2.078125 17.46875 -2.171875 C 16.582031 -3.554688 15.378906 -4.957031 13.859375 -6.375 L 6.984375 0.953125 C 5.472656 2.566406 5.507812 4.113281 7.09375 5.59375 C 7.988281 6.425781 9.023438 6.898438 10.203125 7.015625 Z M 10.265625 7.03125 "/></g></g></g><g fill="#000000" fill-opacity="1"><g transform="translate(248.131434, 137.595237)"><g><path d="M 10.375 9.765625 C 10.425781 9.828125 10.4375 9.910156 10.40625 10.015625 C 10.375 10.128906 10.304688 10.1875 10.203125 10.1875 C 7.953125 9.726562 6.191406 8.6875 4.921875 7.0625 C 3.984375 5.863281 3.46875 4.625 3.375 3.34375 C 3.289062 2.0625 3.535156 0.851562 4.109375 -0.28125 C 4.691406 -1.425781 5.519531 -2.421875 6.59375 -3.265625 C 7.832031 -4.234375 9.195312 -4.832031 10.6875 -5.0625 C 12.1875 -5.289062 13.625 -5.140625 15 -4.609375 C 16.375 -4.078125 17.523438 -3.222656 18.453125 -2.046875 C 19.367188 -0.867188 19.742188 0.265625 19.578125 1.359375 C 19.410156 2.460938 18.765625 3.453125 17.640625 4.328125 C 17.359375 4.554688 17.132812 4.691406 16.96875 4.734375 C 16.8125 4.773438 16.675781 4.722656 16.5625 4.578125 L 10.40625 -3.25 C 9.863281 -2.894531 9.4375 -2.597656 9.125 -2.359375 C 7.289062 -0.921875 6.140625 0.671875 5.671875 2.421875 C 5.203125 4.179688 5.570312 5.835938 6.78125 7.390625 C 7.289062 8.035156 7.816406 8.515625 8.359375 8.828125 C 8.898438 9.148438 9.566406 9.453125 10.359375 9.734375 Z M 17.03125 -2.546875 C 16.300781 -3.492188 15.390625 -4.046875 14.296875 -4.203125 C 13.210938 -4.359375 12.0625 -4.117188 10.84375 -3.484375 L 15.90625 2.75 C 17.007812 1.914062 17.640625 1.035156 17.796875 0.109375 C 17.960938 -0.804688 17.707031 -1.691406 17.03125 -2.546875 Z M 17.03125 -2.546875 "/></g></g></g><g fill="#000000" fill-opacity="1"><g transform="translate(256.955579, 148.581575)"><g><path d="M 3.953125 8.328125 C 3.140625 6.828125 2.789062 5.382812 2.90625 4 C 3.019531 2.613281 3.472656 1.390625 4.265625 0.328125 C 5.066406 -0.722656 6.050781 -1.566406 7.21875 -2.203125 C 8.71875 -3.003906 10.222656 -3.335938 11.734375 -3.203125 C 13.253906 -3.078125 14.625 -2.59375 15.84375 -1.75 C 17.070312 -0.914062 18.015625 0.113281 18.671875 1.34375 C 19.210938 2.351562 19.503906 3.378906 19.546875 4.421875 C 19.597656 5.460938 19.351562 6.128906 18.8125 6.421875 C 18.539062 6.578125 18.253906 6.613281 17.953125 6.53125 C 17.648438 6.457031 17.414062 6.269531 17.25 5.96875 C 16.957031 5.425781 17.039062 4.773438 17.5 4.015625 C 17.769531 3.472656 17.90625 2.9375 17.90625 2.40625 C 17.90625 1.875 17.722656 1.269531 17.359375 0.59375 C 16.597656 -0.820312 15.5 -1.632812 14.0625 -1.84375 C 12.632812 -2.050781 11.050781 -1.6875 9.3125 -0.75 C 7.34375 0.3125 5.976562 1.695312 5.21875 3.40625 C 4.46875 5.125 4.628906 6.976562 5.703125 8.96875 C 6.515625 10.46875 7.570312 11.457031 8.875 11.9375 L 8.90625 12.015625 C 8.945312 12.085938 8.945312 12.171875 8.90625 12.265625 C 8.875 12.359375 8.820312 12.378906 8.75 12.328125 C 7.601562 11.910156 6.644531 11.378906 5.875 10.734375 C 5.101562 10.097656 4.460938 9.296875 3.953125 8.328125 Z M 3.953125 8.328125 "/></g></g></g><g fill="#000000" fill-opacity="1"><g transform="translate(263.796991, 161.16873)"><g><path d="M 5.859375 10.984375 C 5.890625 11.066406 5.851562 11.148438 5.75 11.234375 C 5.65625 11.328125 5.578125 11.34375 5.515625 11.28125 C 4.535156 10.582031 3.78125 9.929688 3.25 9.328125 C 2.726562 8.722656 2.332031 8.039062 2.0625 7.28125 C 1.695312 6.25 1.628906 5.328125 1.859375 4.515625 C 2.097656 3.703125 2.757812 3.101562 3.84375 2.71875 L 12.8125 -0.453125 C 13.488281 -0.679688 13.941406 -0.882812 14.171875 -1.0625 C 14.410156 -1.25 14.53125 -1.484375 14.53125 -1.765625 C 14.53125 -2.046875 14.421875 -2.5 14.203125 -3.125 C 14.171875 -3.207031 14.234375 -3.273438 14.390625 -3.328125 C 14.546875 -3.390625 14.640625 -3.378906 14.671875 -3.296875 C 15.003906 -2.347656 15.535156 -1.671875 16.265625 -1.265625 C 16.992188 -0.859375 17.765625 -0.800781 18.578125 -1.09375 C 18.648438 -1.113281 18.722656 -1.019531 18.796875 -0.8125 C 18.859375 -0.632812 18.851562 -0.535156 18.78125 -0.515625 L 16.015625 0.46875 C 16.648438 2.164062 17.40625 3.890625 18.28125 5.640625 C 18.300781 5.710938 18.238281 5.800781 18.09375 5.90625 C 17.957031 6.019531 17.757812 6.125 17.5 6.21875 C 17.300781 6.28125 17.085938 6.304688 16.859375 6.296875 C 16.640625 6.296875 16.519531 6.242188 16.5 6.140625 C 16.34375 4.492188 15.921875 2.691406 15.234375 0.734375 L 5.765625 4.078125 C 3.679688 4.816406 3 6.203125 3.71875 8.234375 C 4.125 9.390625 4.820312 10.285156 5.8125 10.921875 Z M 5.859375 10.984375 "/></g></g></g></svg>