<svg xmlns="http://www.w3.org/2000/svg" xmlns:xlink="http://www.w3.org/1999/xlink" width="500" zoomAndPan="magnify" viewBox="0 0 375 374.999991" height="500" preserveAspectRatio="xMidYMid meet" version="1.0"><defs><clipPath id="70afb31ee3"><path d="M 0 110 L 375 110 L 375 364.40625 L 0 364.40625 Z M 0 110 " clip-rule="nonzero"/></clipPath></defs><g clip-path="url(#70afb31ee3)"><path fill="#000000" d="M 294.859375 364.40625 C 292.992188 364.40625 289.867188 363.3125 284.304688 361.285156 C 275.210938 358 268.269531 355.730469 247.929688 352.566406 C 228.726562 349.527344 212.082031 348.917969 206.519531 351.027344 C 201.890625 352.769531 199.210938 352.8125 198.074219 351.066406 C 196.816406 349.121094 198.199219 346.40625 202.867188 341.660156 C 208.144531 336.351562 220.40625 335.945312 228.523438 335.660156 C 230.027344 335.621094 231.570312 335.582031 232.625 335.457031 C 232.015625 334.363281 230.351562 331.972656 225.886719 327.148438 C 221.542969 322.445312 216.019531 316.96875 211.714844 312.753906 C 209.199219 310.28125 206.4375 307.765625 203.757812 305.292969 C 194.664062 297.023438 189.105469 291.753906 189.304688 287.777344 C 189.347656 286.644531 189.875 285.628906 190.847656 284.941406 C 194.421875 282.226562 202.378906 287.980469 224.953125 309.511719 C 228.117188 312.511719 230.839844 315.105469 231.730469 315.792969 C 235.058594 318.269531 252.964844 317.496094 270.21875 312.875 C 277.566406 310.890625 291.289062 305.171875 305.742188 295.5625 C 316.539062 288.386719 331.15625 276.75 339.4375 262.113281 C 354.5 235.4375 351.898438 209.082031 348.613281 191.570312 C 344.957031 172.1875 349.382812 152.078125 351.292969 148.347656 C 352.589844 145.796875 354.902344 144.78125 358.113281 143.402344 C 360.667969 142.269531 364.160156 140.765625 368.707031 137.808594 C 369.683594 137.160156 370.210938 136.714844 370.535156 136.390625 C 367.9375 135.578125 359.125 136.144531 356.082031 136.390625 C 355.390625 136.429688 354.742188 136.46875 354.214844 136.511719 C 349.871094 136.792969 348.488281 134.441406 346.945312 131.6875 C 345.28125 128.765625 343.007812 124.832031 335.703125 120.535156 C 331.277344 117.941406 323.277344 114.941406 313.980469 114.210938 C 286.902344 112.0625 259.703125 132.660156 248.09375 141.457031 C 242.207031 145.917969 234.816406 149.363281 225.480469 153.742188 C 213.421875 159.378906 198.441406 166.390625 180.78125 178.515625 C 172.335938 184.3125 164.625 189.867188 157.601562 195.175781 C 162.632812 193.878906 168.15625 192.339844 174.082031 190.71875 C 194.136719 185.164062 216.832031 178.878906 237.660156 176.242188 C 262.21875 173.121094 278.863281 175.878906 288.488281 184.636719 C 293.925781 189.582031 295.875 194.851562 294.332031 200.285156 C 291.613281 209.734375 278.09375 219.058594 254.140625 228.097656 C 235.464844 235.152344 211.027344 241.601562 187.195312 245.816406 C 170.0625 248.855469 156.625 251.453125 145.625 253.882812 C 161.011719 266.816406 173.390625 278.859375 174.488281 279.953125 C 175.136719 280.601562 175.179688 281.65625 174.527344 282.304688 C 173.878906 282.953125 172.824219 282.996094 172.175781 282.347656 C 171.890625 282.0625 158.128906 268.640625 141.484375 254.816406 C 120.128906 259.722656 108.515625 263.980469 95.769531 269.777344 C 94.511719 270.34375 93.332031 270.871094 92.238281 271.398438 C 82.332031 275.941406 79.652344 277.15625 78.109375 275.25 C 76.445312 273.183594 78.394531 270.628906 89.191406 256.601562 C 90.453125 254.9375 91.832031 253.15625 93.292969 251.25 C 97.394531 245.898438 102.875 239.410156 110.183594 231.949219 C 103.035156 227.695312 96.621094 224.894531 91.832031 224.652344 C 83.753906 224.246094 72.222656 225.015625 60.042969 225.828125 C 36.414062 227.410156 14.128906 228.949219 8.402344 222.828125 C 7.671875 222.058594 6.941406 221.328125 6.25 220.597656 C 2.761719 217.03125 0.0390625 214.234375 1.175781 211.355469 C 2.3125 208.476562 6.699219 206.652344 25.617188 205.960938 C 32.4375 205.71875 40.152344 205.515625 48.351562 205.3125 C 78.230469 204.582031 115.378906 203.730469 142.578125 198.703125 C 144.730469 198.300781 147.042969 197.8125 149.480469 197.246094 C 158.167969 190.472656 167.910156 183.296875 178.914062 175.796875 C 196.816406 163.511719 211.917969 156.457031 224.097656 150.742188 C 233.273438 146.445312 240.539062 143.039062 246.144531 138.820312 C 258.078125 129.78125 286.011719 108.65625 314.347656 110.886719 C 324.210938 111.65625 332.777344 114.902344 337.488281 117.65625 C 345.566406 122.402344 348.207031 126.984375 349.953125 130.023438 C 351.453125 132.660156 351.898438 133.265625 354.09375 133.144531 C 354.660156 133.105469 355.269531 133.0625 355.960938 133.023438 C 367.773438 132.210938 373.214844 132.375 374.230469 135.292969 C 374.960938 137.441406 372.726562 139.265625 370.695312 140.566406 C 365.945312 143.6875 362.292969 145.269531 359.613281 146.445312 C 356.570312 147.78125 355.1875 148.429688 354.457031 149.847656 C 352.753906 153.214844 348.652344 172.59375 352.101562 190.921875 C 354.417969 203.246094 355.148438 213.785156 354.417969 224.085938 C 353.402344 238.316406 349.421875 251.613281 342.5625 263.738281 C 326.933594 291.386719 288.445312 311.457031 271.273438 316.078125 C 255.480469 320.335938 235.058594 322.28125 229.902344 318.472656 C 228.847656 317.660156 226.289062 315.269531 222.800781 311.941406 C 217.886719 307.28125 211.148438 300.835938 205.179688 295.765625 C 195.925781 287.941406 193.449219 287.65625 193 287.699219 C 192.878906 287.820312 192.878906 287.859375 192.878906 287.980469 C 192.757812 290.578125 200.226562 297.386719 206.234375 302.863281 C 208.957031 305.335938 211.757812 307.890625 214.316406 310.402344 C 233.761719 329.5 237.089844 334.445312 236.480469 336.917969 C 236.277344 337.730469 235.710938 338.296875 234.898438 338.539062 C 233.882812 338.824219 232.136719 338.90625 228.847656 339.027344 C 222.191406 339.230469 209.808594 339.632812 205.464844 344.011719 C 202.746094 346.769531 201.769531 348.269531 201.40625 349 C 202.09375 348.960938 203.433594 348.714844 205.503906 347.90625 C 212.933594 345.066406 232.664062 346.730469 248.621094 349.242188 C 269.242188 352.488281 276.347656 354.757812 285.644531 358.121094 C 287.511719 358.8125 290.191406 359.785156 292.222656 360.394531 C 291.695312 359.90625 291.042969 359.296875 290.230469 358.609375 C 283.332031 352.566406 276.835938 350.054688 266.886719 346.40625 C 261.855469 344.582031 258.605469 343.890625 256.25 343.40625 C 252.800781 342.714844 250.691406 342.269531 247.808594 338.984375 C 247.199219 338.296875 247.28125 337.242188 247.96875 336.632812 C 248.660156 336.027344 249.714844 336.105469 250.324219 336.796875 C 252.4375 339.230469 253.574219 339.472656 256.902344 340.121094 C 259.378906 340.609375 262.746094 341.296875 268.023438 343.242188 C 276.957031 346.488281 284.710938 349.324219 292.425781 356.054688 C 296.523438 359.621094 298.1875 361.527344 297.132812 363.273438 C 296.523438 364.082031 295.914062 364.40625 294.859375 364.40625 Z M 113.023438 233.695312 C 105.59375 241.277344 99.992188 247.84375 95.851562 253.234375 C 94.390625 255.183594 93.007812 256.964844 91.710938 258.585938 C 87.042969 264.628906 83.144531 269.695312 81.601562 272.292969 C 83.632812 271.5625 87.121094 269.980469 90.734375 268.316406 C 91.832031 267.832031 93.007812 267.265625 94.265625 266.695312 C 107.460938 260.695312 119.761719 256.4375 138.074219 252.101562 C 129.832031 245.410156 121.0625 238.761719 113.023438 233.695312 Z M 115.378906 231.300781 C 124.105469 236.855469 133.527344 244.03125 142.214844 251.167969 C 153.988281 248.492188 168.238281 245.777344 186.464844 242.53125 C 234.652344 233.976562 286.050781 216.421875 290.964844 199.351562 C 292.179688 195.21875 290.558594 191.203125 286.089844 187.109375 C 265.914062 168.742188 213.257812 183.296875 174.855469 193.921875 C 165.882812 196.394531 157.804688 198.625 150.859375 200.285156 C 136.042969 211.921875 124.429688 222.300781 115.378906 231.300781 Z M 86.714844 221.164062 C 88.542969 221.164062 90.289062 221.207031 91.914062 221.289062 C 97.351562 221.570312 104.578125 224.734375 112.496094 229.476562 C 120.617188 221.367188 130.765625 212.125 143.472656 201.90625 C 143.351562 201.949219 143.1875 201.949219 143.066406 201.988281 C 115.582031 207.054688 78.273438 207.949219 48.3125 208.679688 C 40.109375 208.882812 32.398438 209.042969 25.617188 209.328125 C 17.820312 209.609375 12.339844 210.097656 8.769531 210.828125 C 4.710938 211.636719 4.222656 212.53125 4.179688 212.652344 C 3.855469 213.503906 6.65625 216.382812 8.566406 218.328125 C 9.257812 219.058594 9.988281 219.789062 10.757812 220.597656 C 15.425781 225.542969 39.988281 223.882812 59.757812 222.542969 C 69.585938 221.8125 79.042969 221.164062 86.714844 221.164062 Z M 86.714844 221.164062 " fill-opacity="1" fill-rule="nonzero"/></g></svg>