<svg xmlns="http://www.w3.org/2000/svg" xmlns:xlink="http://www.w3.org/1999/xlink" width="500" zoomAndPan="magnify" viewBox="0 0 375 374.999991" height="500" preserveAspectRatio="xMidYMid meet" version="1.0"><defs><clipPath id="43a53babde"><path d="M 53.046875 165 L 196 165 L 196 367.5 L 53.046875 367.5 Z M 53.046875 165 " clip-rule="nonzero"/></clipPath></defs><g clip-path="url(#43a53babde)"><path fill="#000000" d="M 152.988281 367.5 C 142.121094 367.5 134.953125 367.15625 132.585938 363.429688 C 131.757812 362.140625 131.574219 360.53125 131.988281 358.554688 C 126.886719 363.382812 120.085938 366.027344 112.640625 366.027344 C 111.90625 366.027344 111.171875 366.003906 110.4375 365.960938 C 102.945312 365.453125 95.179688 362.257812 87.941406 356.734375 C 79.742188 350.480469 72.226562 341.347656 65.632812 329.59375 C 57.890625 315.796875 53.640625 300.546875 53.320312 285.503906 C 53.066406 273.039062 55.59375 260.9375 60.28125 252.335938 C 63.957031 245.574219 68.503906 241.6875 73.078125 241.390625 C 78.660156 241.042969 81.855469 239.527344 84.496094 235.984375 C 87.183594 232.371094 89.230469 226.738281 92.308594 218.203125 C 93.917969 213.71875 95.753906 208.660156 98.121094 202.65625 C 106.414062 181.609375 128.609375 165.625 149.75 165.464844 C 158.457031 165.394531 166.429688 167.925781 173.414062 172.960938 C 181.15625 178.550781 187.429688 187.0625 192.046875 198.285156 C 200.296875 218.34375 192.964844 240.652344 185.890625 262.226562 C 180.535156 278.558594 175.457031 293.96875 176.746094 308.273438 C 177.273438 314.164062 177.917969 319.683594 178.558594 325.019531 C 180.652344 342.636719 182.28125 356.550781 176.355469 363.199219 C 173.78125 366.097656 169.945312 367.5 164.636719 367.5 C 164.566406 367.5 164.523438 367.5 164.453125 367.5 C 161.765625 367.476562 159.261719 367.5 156.824219 367.5 C 155.46875 367.476562 154.207031 367.5 152.988281 367.5 Z M 135.042969 355.125 C 133.414062 358.574219 133.089844 360.992188 134.054688 362.507812 C 136.167969 365.84375 144.832031 365.820312 156.800781 365.773438 C 159.238281 365.773438 161.765625 365.75 164.453125 365.773438 C 164.523438 365.773438 164.566406 365.773438 164.636719 365.773438 C 169.4375 365.773438 172.839844 364.554688 175.089844 362.050781 C 180.511719 355.976562 178.90625 342.40625 176.882812 325.226562 C 176.238281 319.867188 175.597656 314.347656 175.066406 308.410156 C 173.757812 293.738281 178.882812 278.167969 184.304688 261.675781 C 191.289062 240.398438 198.527344 218.410156 190.507812 198.929688 C 186.003906 188.003906 179.9375 179.746094 172.472656 174.34375 C 165.785156 169.511719 158.15625 167.097656 149.816406 167.167969 C 129.347656 167.328125 107.839844 182.851562 99.777344 203.277344 C 97.433594 209.234375 95.59375 214.316406 93.984375 218.78125 C 87.78125 235.9375 85.484375 242.355469 73.238281 243.113281 C 69.332031 243.34375 65.195312 247.023438 61.84375 253.164062 C 57.292969 261.515625 54.835938 273.289062 55.085938 285.480469 C 55.386719 300.246094 59.566406 315.21875 67.171875 328.765625 C 73.652344 340.3125 81.003906 349.261719 89.023438 355.378906 C 95.984375 360.691406 103.429688 363.75 110.574219 364.234375 C 111.265625 364.28125 111.976562 364.304688 112.664062 364.304688 C 121.121094 364.304688 128.65625 360.691406 133.597656 354.230469 C 138.695312 343.511719 139.339844 333.804688 135.34375 327.570312 C 132.585938 323.269531 127.761719 320.925781 121.785156 321.015625 C 115.375 321.109375 110.644531 322.972656 107.679688 326.582031 C 102.832031 332.539062 104.417969 341.28125 104.417969 341.371094 C 104.507812 341.832031 104.210938 342.292969 103.726562 342.382812 C 103.269531 342.476562 102.808594 342.152344 102.714844 341.695312 C 102.648438 341.300781 100.96875 332.054688 106.324219 325.5 C 109.609375 321.476562 114.800781 319.382812 121.742188 319.292969 C 121.855469 319.292969 121.949219 319.292969 122.0625 319.292969 C 128.519531 319.292969 133.734375 321.890625 136.765625 326.652344 C 139.683594 331.207031 140.351562 337.390625 138.835938 344.40625 C 141.203125 337.945312 142.441406 330.101562 142.488281 321.222656 C 142.535156 308.824219 140.214844 294.957031 135.960938 282.191406 C 128.378906 259.421875 129.964844 250.679688 131.804688 240.539062 C 131.964844 239.664062 132.125 238.789062 132.285156 237.894531 C 134.238281 226.691406 131.988281 208.476562 131.964844 208.292969 C 131.894531 207.808594 132.242188 207.394531 132.699219 207.324219 C 133.183594 207.257812 133.597656 207.601562 133.664062 208.0625 C 133.757812 208.820312 135.960938 226.691406 133.964844 238.167969 C 133.804688 239.066406 133.640625 239.964844 133.480469 240.8125 C 131.6875 250.726562 130.128906 259.285156 137.570312 281.617188 C 145.660156 305.859375 148.003906 337.945312 135.042969 355.125 Z M 135.042969 355.125 " fill-opacity="1" fill-rule="nonzero"/></g><path fill="#000000" d="M 278.09375 354.917969 C 274.992188 354.917969 272.53125 354.644531 270.578125 353.816406 C 268.1875 352.824219 266.558594 351.078125 265.523438 348.203125 C 262.398438 349.144531 258.058594 348.914062 252.679688 348.664062 C 251.300781 348.59375 249.855469 348.523438 248.339844 348.457031 C 244.226562 348.292969 240.6875 348.480469 237.5625 348.664062 C 229.3125 349.121094 223.867188 349.398438 221.132812 341.808594 C 219.136719 336.21875 215.851562 332.285156 212.585938 331.550781 C 210.820312 331.160156 209.1875 331.6875 207.714844 333.136719 C 206.636719 334.21875 202.824219 337.992188 199.125 341.140625 C 193.539062 345.925781 192.300781 345.878906 191.519531 345.441406 C 191.082031 345.191406 190.644531 344.613281 191.011719 343.328125 C 191.65625 340.980469 194.320312 338.519531 199.148438 334.058594 C 205.1875 328.492188 214.332031 320.050781 225.914062 305.765625 C 235.21875 294.289062 242.664062 282.445312 247.601562 271.289062 C 246.820312 267.125 246.222656 263.191406 245.855469 259.652344 C 245.050781 251.554688 244.960938 243.78125 245.582031 237.753906 C 246.222656 231.453125 247.535156 228.070312 249.441406 227.703125 C 251.394531 227.3125 253.070312 229.820312 254.75 235.546875 C 257.503906 244.953125 255.484375 257.558594 249.371094 271.519531 C 251.625 283.320312 255.253906 297.003906 258.5625 309.492188 C 259.621094 313.449219 260.628906 317.246094 261.550781 320.785156 C 261.777344 320.925781 262.007812 321.085938 262.238281 321.246094 C 265.984375 323.800781 270.53125 328.515625 271.105469 336.449219 C 271.453125 341.234375 270.71875 344.363281 268.832031 346.269531 C 268.328125 346.777344 267.753906 347.214844 267.085938 347.558594 C 267.960938 349.972656 269.269531 351.398438 271.222656 352.203125 C 274.578125 353.609375 279.882812 353.238281 287.925781 352.6875 C 289.191406 352.59375 290.523438 352.503906 291.902344 352.410156 L 292.75 352.367188 C 304.859375 351.582031 312.164062 351.125 313.796875 348.433594 C 314.484375 347.304688 314.257812 345.605469 313.128906 343.050781 C 310.625 337.371094 303.640625 333.644531 297.460938 330.355469 C 294.152344 328.582031 291.027344 326.925781 288.914062 325.109375 C 284.984375 321.753906 284.824219 312.113281 284.523438 294.636719 C 284.339844 283.710938 284.089844 270.140625 282.894531 253.371094 C 279.609375 208.0625 274.761719 171.03125 261.664062 137.496094 C 254.65625 119.554688 244.066406 102.191406 232.621094 89.863281 C 226.464844 83.238281 220.308594 78.339844 214.355469 75.304688 C 207.945312 72.058594 201.902344 71.070312 196.367188 72.359375 C 191.011719 73.625 186.945312 75.257812 184.328125 77.144531 C 188.324219 74.820312 192.023438 73.855469 194.6875 74.519531 C 196.480469 74.980469 197.722656 76.132812 198.34375 77.878906 C 199.332031 80.707031 198.941406 83.996094 197.261719 86.640625 C 195.585938 89.308594 192.828125 91.011719 189.679688 91.359375 C 185.796875 91.769531 180.054688 88.023438 179.273438 83.492188 C 179.25 83.332031 179.226562 83.144531 179.203125 82.984375 C 178.972656 83.191406 178.722656 83.398438 178.492188 83.628906 C 168.519531 92.644531 164.199219 104.628906 166.359375 117.417969 C 167.507812 124.226562 169.003906 128.664062 171.117188 131.402344 C 172.816406 133.609375 174.929688 134.734375 178.191406 135.148438 C 182.050781 135.65625 182.582031 134.160156 184.71875 126.25 C 185.292969 124.132812 186.003906 121.488281 186.945312 118.429688 C 187.128906 117.855469 187.292969 117.277344 187.476562 116.726562 C 190.253906 107.6875 192.253906 101.179688 196.574219 98.925781 C 198.617188 97.867188 201.03125 97.84375 203.996094 98.808594 C 205.050781 99.15625 206.246094 99.546875 207.488281 99.9375 C 218.03125 103.273438 232.460938 107.871094 230.808594 115.324219 C 229.886719 119.417969 224.375 125.675781 216.722656 131.238281 C 211.601562 134.988281 201.261719 141.453125 189.679688 142.761719 C 180.949219 143.753906 171.691406 144.328125 163.050781 141.796875 C 154.089844 139.175781 146.554688 133.402344 140.050781 124.132812 C 134.101562 115.691406 130.355469 105.25 128.011719 96.324219 C 127.644531 99.636719 127.230469 103.085938 126.796875 106.675781 C 126.449219 109.390625 126.082031 110.839844 125.003906 111.183594 C 123.808594 111.574219 122.796875 110.449219 120.777344 108.238281 C 119.488281 106.835938 117.902344 105.113281 115.765625 103.179688 C 112.757812 100.417969 109.679688 98.417969 106.714844 96.464844 C 102.347656 93.589844 98.238281 90.875 95.066406 86.296875 C 89.460938 78.203125 91.78125 74.105469 99.339844 65.273438 C 100.050781 64.445312 100.832031 63.503906 101.730469 62.398438 C 110.527344 51.773438 128.816406 29.648438 163.742188 15.730469 C 191.359375 4.714844 217.089844 0 238.089844 2.09375 C 249.71875 3.242188 249.601562 8.210938 249.234375 22.929688 L 249.210938 23.78125 C 249.121094 27.554688 249.371094 31.671875 249.601562 35.652344 C 250.152344 44.851562 250.335938 50.117188 247.785156 51.0625 C 245.972656 51.726562 243.558594 49.886719 239.722656 44.851562 C 226.28125 27.210938 216.492188 19.664062 204.84375 17.894531 C 204.386719 17.824219 204.039062 17.386719 204.132812 16.90625 C 204.203125 16.445312 204.636719 16.125 205.121094 16.191406 C 217.273438 18.03125 227.359375 25.761719 241.125 43.792969 C 245.582031 49.65625 246.984375 49.519531 247.210938 49.425781 C 247.417969 49.359375 248.085938 48.851562 248.222656 45.402344 C 248.339844 42.828125 248.132812 39.375 247.902344 35.742188 C 247.671875 31.71875 247.417969 27.554688 247.511719 23.714844 L 247.535156 22.863281 C 247.902344 8.257812 247.96875 4.785156 237.929688 3.773438 C 217.183594 1.703125 191.75 6.371094 164.382812 17.296875 C 129.875 31.050781 111.769531 52.945312 103.0625 63.480469 C 102.140625 64.585938 101.359375 65.527344 100.648438 66.378906 C 96.902344 70.75 94.605469 73.808594 93.917969 76.546875 C 93.25 79.167969 93.984375 81.695312 96.492188 85.285156 C 99.476562 89.585938 103.453125 92.207031 107.679688 94.992188 C 110.6875 96.96875 113.8125 99.039062 116.9375 101.867188 C 119.121094 103.871094 120.820312 105.710938 122.039062 107.042969 C 122.957031 108.054688 123.992188 109.183594 124.476562 109.457031 C 124.613281 109.207031 124.84375 108.46875 125.09375 106.445312 C 125.761719 101.109375 126.335938 96.074219 126.820312 91.359375 C 126.632812 90.53125 126.472656 89.722656 126.3125 88.941406 C 123.878906 76.914062 123.347656 66.378906 123.902344 61.6875 C 124.40625 57.410156 125.808594 52.488281 128.035156 52.648438 C 129.230469 52.738281 130.792969 53.980469 130.539062 63.734375 C 130.355469 71.117188 129.691406 80.316406 128.542969 91.242188 C 131 102.257812 135.113281 114.082031 141.453125 123.097656 C 147.75 132.023438 154.964844 137.589844 163.535156 140.09375 C 171.898438 142.535156 180.949219 141.957031 189.496094 140.992188 C 200.6875 139.726562 210.726562 133.425781 215.734375 129.792969 C 222.835938 124.617188 228.347656 118.496094 229.152344 114.886719 C 230.464844 108.953125 216.332031 104.492188 207.003906 101.5 C 205.765625 101.109375 204.570312 100.71875 203.488281 100.375 C 200.984375 99.546875 199.007812 99.546875 197.402344 100.375 C 193.703125 102.28125 191.792969 108.515625 189.152344 117.140625 C 188.992188 117.691406 188.808594 118.269531 188.625 118.84375 C 187.683594 121.855469 186.96875 124.476562 186.417969 126.59375 C 184.328125 134.277344 183.476562 137.449219 178.007812 136.761719 C 174.308594 136.277344 171.757812 134.921875 169.785156 132.34375 C 167.507812 129.378906 165.878906 124.683594 164.707031 117.601562 C 162.453125 104.214844 166.957031 91.65625 177.386719 82.25 C 178.101562 81.605469 178.8125 80.984375 179.523438 80.410156 C 179.914062 79.144531 180.789062 77.765625 182.421875 76.382812 C 185.199219 74.015625 189.773438 72.082031 196 70.609375 C 201.925781 69.207031 208.359375 70.242188 215.160156 73.691406 C 221.296875 76.796875 227.613281 81.835938 233.910156 88.621094 C 245.511719 101.109375 256.21875 118.660156 263.296875 136.804688 C 276.460938 170.546875 281.355469 207.714844 284.640625 253.1875 C 285.859375 270 286.085938 283.617188 286.273438 294.542969 C 286.546875 310.988281 286.730469 320.902344 290.0625 323.753906 C 292.039062 325.433594 295.070312 327.066406 298.289062 328.789062 C 304.699219 332.21875 311.957031 336.082031 314.714844 342.292969 C 316.09375 345.398438 316.277344 347.628906 315.265625 349.261719 C 313.175781 352.734375 306.375 353.171875 292.84375 354.023438 L 291.992188 354.066406 C 290.589844 354.160156 289.28125 354.25 288.019531 354.34375 C 284.132812 354.710938 280.847656 354.917969 278.09375 354.917969 Z M 245.191406 346.683594 C 246.222656 346.683594 247.28125 346.707031 248.382812 346.753906 C 249.921875 346.824219 251.347656 346.890625 252.75 346.960938 C 257.988281 347.214844 262.167969 347.445312 264.996094 346.59375 C 264.628906 345.144531 264.351562 343.488281 264.167969 341.554688 C 263.753906 337.164062 262.167969 330.238281 260.03125 321.960938 C 255.757812 319.429688 251.210938 318.578125 248.222656 318.671875 C 239.8125 318.921875 239.148438 310.894531 239.148438 310.804688 C 239.125 310.320312 239.46875 309.90625 239.953125 309.882812 C 240.433594 309.859375 240.824219 310.207031 240.871094 310.6875 C 240.894531 310.941406 241.445312 317.152344 248.175781 316.945312 C 251.074219 316.851562 255.300781 317.566406 259.4375 319.660156 C 258.632812 316.578125 257.78125 313.335938 256.886719 309.976562 C 253.785156 298.316406 250.40625 285.574219 248.132812 274.28125 C 243.261719 284.722656 236.183594 295.832031 227.222656 306.894531 C 215.574219 321.269531 206.382812 329.757812 200.296875 335.34375 C 196 339.300781 193.171875 341.921875 192.644531 343.785156 C 194.550781 342.980469 200.320312 338.058594 206.476562 331.917969 C 208.359375 330.03125 210.589844 329.34375 212.933594 329.871094 C 216.816406 330.746094 220.492188 335 222.71875 341.234375 C 225.019531 347.628906 229.152344 347.398438 237.449219 346.9375 C 239.792969 346.824219 242.339844 346.683594 245.191406 346.683594 Z M 262.191406 323.386719 C 264.101562 330.929688 265.523438 337.207031 265.890625 341.371094 C 266.050781 343.121094 266.28125 344.613281 266.582031 345.902344 C 266.949219 345.671875 267.292969 345.417969 267.59375 345.121094 C 269.109375 343.578125 269.660156 340.867188 269.359375 336.632812 C 268.925781 329.988281 265.410156 325.824219 262.191406 323.386719 Z M 249.761719 229.429688 C 249.738281 229.429688 249.738281 229.429688 249.761719 229.429688 C 249.304688 229.519531 247.96875 231.222656 247.28125 237.960938 C 246.660156 243.871094 246.777344 251.53125 247.558594 259.511719 C 247.832031 262.273438 248.269531 265.285156 248.796875 268.4375 C 248.867188 268.253906 248.9375 268.070312 249.027344 267.886719 C 254.082031 255.257812 255.484375 244.265625 253.09375 236.054688 C 251.1875 229.566406 249.855469 229.429688 249.761719 229.429688 Z M 181.042969 81.535156 C 180.925781 82.089844 180.902344 82.664062 181.019531 83.238281 C 181.617188 86.804688 186.488281 90 189.542969 89.679688 C 192.140625 89.402344 194.4375 87.976562 195.839844 85.769531 C 197.238281 83.558594 197.5625 80.847656 196.757812 78.5 C 196.34375 77.304688 195.515625 76.546875 194.296875 76.246094 C 191.21875 75.464844 186.1875 77.488281 181.042969 81.535156 Z M 127.921875 54.488281 C 127.347656 54.949219 126.175781 57.453125 125.648438 61.941406 C 125.164062 66.078125 125.554688 75.121094 127.4375 85.539062 C 128.21875 77.074219 128.703125 69.78125 128.863281 63.734375 C 129.023438 56.625 128.175781 54.855469 127.921875 54.488281 Z M 127.921875 54.488281 " fill-opacity="1" fill-rule="nonzero"/></svg>