<svg xmlns="http://www.w3.org/2000/svg" xmlns:xlink="http://www.w3.org/1999/xlink" width="500" zoomAndPan="magnify" viewBox="0 0 375 374.999991" height="500" preserveAspectRatio="xMidYMid meet" version="1.0"><path fill="#000000" d="M 194.597656 375 C 192.914062 375 191.335938 374.972656 189.835938 374.898438 C 180.828125 374.484375 175.574219 372.753906 173.296875 369.496094 C 171.539062 367.015625 171.640625 363.683594 173.609375 359.625 C 175.550781 355.621094 180.675781 350.53125 194.15625 349.109375 C 196.226562 348.90625 198.375 348.773438 200.550781 348.773438 C 197.597656 346.5 194.3125 343.761719 190.742188 340.429688 C 179.277344 329.707031 173.246094 313.070312 175.34375 298.058594 C 176.6875 288.394531 181.992188 274.957031 199.59375 265.890625 C 200.109375 265.632812 200.757812 265.839844 201.042969 266.355469 C 201.300781 266.871094 201.09375 267.515625 200.574219 267.800781 C 183.804688 276.429688 178.757812 289.195312 177.464844 298.367188 C 175.445312 312.707031 181.242188 328.621094 192.214844 338.90625 C 196.71875 343.117188 200.730469 346.371094 204.226562 348.878906 C 213.980469 349.316406 223.167969 351.617188 225.523438 354.691406 C 227.4375 357.171875 226.222656 358.59375 225.808594 358.957031 C 224.046875 360.558594 219.570312 359.859375 213.800781 357.148438 C 211.210938 355.933594 207.71875 353.996094 203.449219 350.972656 C 200.496094 350.867188 197.445312 350.945312 194.363281 351.28125 C 188.695312 351.875 178.734375 353.863281 175.496094 360.582031 C 173.894531 363.941406 173.710938 366.472656 175.007812 368.308594 C 179.328125 374.457031 199.4375 373.371094 220.527344 371.253906 C 252.230469 368.074219 259.53125 366.113281 265.378906 361.824219 C 270.582031 358 269.855469 340.066406 269.339844 326.96875 L 269.261719 324.980469 C 268.976562 317.589844 271.617188 314.152344 274.046875 312.550781 C 271.253906 288.574219 263.851562 258.164062 254.042969 231.941406 C 239.421875 192.746094 222.160156 167.167969 210.28125 152.566406 C 206.140625 147.476562 202.285156 143.371094 198.53125 139.367188 C 190.328125 130.582031 183.234375 123.011719 178.578125 110.375 C 171.976562 92.417969 175.007812 72.007812 175.136719 71.15625 C 175.214844 70.5625 175.757812 70.171875 176.351562 70.25 C 176.949219 70.328125 177.335938 70.871094 177.257812 71.464844 C 177.230469 71.671875 174.203125 92.1875 180.597656 109.625 C 185.097656 121.847656 191.699219 128.925781 200.082031 137.894531 C 203.835938 141.921875 207.71875 146.058594 211.910156 151.199219 C 223.917969 165.898438 241.308594 191.710938 256.035156 231.164062 C 265.765625 257.261719 273.167969 287.464844 276.066406 311.519531 C 280.3125 309.992188 286.058594 311.105469 292.164062 314.722656 C 296.539062 317.304688 299.101562 320.378906 299.980469 324.101562 C 301.195312 329.113281 299.410156 335.054688 294.15625 343.347656 C 289.652344 350.480469 284.96875 353.941406 281.320312 352.859375 C 277.128906 351.617188 275.082031 344.746094 275.238281 332.445312 C 275.289062 327.277344 274.980469 321.386719 274.308594 315.007812 C 272.210938 316.96875 271.203125 320.328125 271.382812 324.875 L 271.460938 326.867188 C 272.054688 341.929688 272.730469 359.007812 266.648438 363.503906 C 263.644531 365.722656 260.410156 367.402344 253.628906 368.929688 C 247.132812 370.375 237.300781 371.71875 220.761719 373.371094 C 209.53125 374.457031 201.195312 375 194.597656 375 Z M 207.691406 351.179688 C 210.511719 353.011719 212.867188 354.277344 214.757812 355.15625 C 221.226562 358.207031 223.972656 357.714844 224.410156 357.328125 C 224.566406 357.199219 224.410156 356.65625 223.867188 355.933594 C 222.390625 354.070312 215.898438 351.953125 207.691406 351.179688 Z M 276.378906 313.6875 C 277.128906 320.585938 277.515625 326.917969 277.4375 332.472656 C 277.257812 347.742188 280.570312 350.378906 281.992188 350.816406 C 282.226562 350.894531 282.484375 350.917969 282.742188 350.917969 C 285.304688 350.917969 288.980469 347.636719 292.421875 342.210938 C 297.261719 334.566406 299.023438 328.957031 297.960938 324.617188 C 297.210938 321.464844 294.960938 318.832031 291.128906 316.554688 C 285.410156 313.144531 279.976562 312.113281 276.378906 313.6875 Z M 276.378906 313.6875 " fill-opacity="1" fill-rule="nonzero"/><path fill="#000000" d="M 145.527344 372.417969 C 135.773438 372.417969 128.835938 370.945312 124.878906 368.023438 C 122.675781 366.421875 121.382812 364.355469 121.046875 361.902344 C 120.476562 357.792969 122.78125 353.8125 127.699219 350.378906 C 131.710938 347.585938 137.324219 345.234375 143.535156 343.761719 C 144.285156 343.582031 145.039062 343.425781 145.789062 343.273438 C 139.679688 336.632812 132.589844 326.296875 131.347656 315.238281 C 130.105469 304.050781 132.070312 296.738281 133.625 290.875 C 134.996094 285.785156 135.980469 282.117188 134.453125 277.878906 C 134.21875 277.230469 133.445312 276.5625 132.484375 275.8125 C 131.476562 276.042969 130.441406 276.226562 129.433594 276.300781 C 124.359375 276.664062 119.753906 274.90625 116.128906 271.160156 C 109.554688 264.417969 111.289062 248.964844 112.972656 234.03125 C 113.644531 228.011719 114.292969 222.328125 114.316406 217.652344 C 114.34375 211.476562 112.402344 204.449219 110.332031 197.035156 C 107.148438 185.511719 103.835938 173.601562 107.824219 163.753906 C 117.707031 139.390625 110.4375 133.757812 110.359375 133.679688 C 109.867188 133.34375 109.761719 132.699219 110.074219 132.207031 C 110.410156 131.71875 111.082031 131.589844 111.574219 131.925781 C 111.832031 132.105469 114.035156 133.734375 114.863281 138.640625 C 115.898438 144.972656 114.1875 153.679688 109.789062 164.53125 C 106.0625 173.730469 109.273438 185.277344 112.378906 196.441406 C 114.472656 204.011719 116.464844 211.167969 116.441406 217.652344 C 116.414062 222.457031 115.765625 228.195312 115.09375 234.265625 C 113.542969 248.035156 111.78125 263.667969 117.65625 269.6875 C 120.839844 272.941406 124.851562 274.519531 129.277344 274.183594 C 129.585938 274.15625 129.898438 274.132812 130.207031 274.082031 C 125.808594 270.59375 120.398438 264.417969 125.886719 248.191406 C 126.6875 245.8125 127.570312 243.128906 128.472656 240.257812 C 132.640625 227.390625 137.816406 211.375 144.726562 198.816406 C 148.582031 191.816406 152.464844 186.828125 156.554688 183.597656 C 161.394531 179.773438 166.519531 178.507812 171.746094 179.851562 C 179.300781 181.765625 184.117188 186.648438 185.71875 193.960938 C 187.09375 200.1875 186.003906 207.9375 182.667969 215.765625 C 179.507812 223.207031 174.59375 230.003906 169.15625 234.367188 C 157.5625 243.722656 155.3125 249.199219 152.90625 255.011719 C 151.636719 258.0625 150.34375 261.238281 147.625 264.984375 C 144.183594 269.738281 139.65625 273.277344 134.894531 275.0625 C 135.589844 275.707031 136.136719 276.355469 136.417969 277.15625 C 138.179688 282.011719 137.066406 286.171875 135.644531 291.417969 C 134.117188 297.101562 132.226562 304.179688 133.417969 314.980469 C 134.660156 326.089844 142.164062 336.503906 148.246094 342.808594 C 151.378906 342.34375 154.300781 342.1875 156.785156 342.367188 C 161.160156 342.675781 163.851562 344.019531 164.628906 346.269531 C 165.222656 348 164.707031 349.601562 163.28125 350.558594 C 161.910156 351.488281 159.816406 351.773438 157.511719 351.332031 C 155.078125 350.894531 152.621094 349.679688 150.574219 347.921875 C 149.644531 347.121094 148.609375 346.164062 147.523438 345.082031 C 146.359375 345.289062 145.191406 345.519531 143.976562 345.804688 C 138.023438 347.199219 132.667969 349.445312 128.863281 352.082031 C 125.914062 354.125 122.523438 357.429688 123.089844 361.566406 C 123.351562 363.449219 124.332031 364.976562 126.066406 366.242188 C 130.054688 369.160156 137.945312 370.503906 148.945312 370.140625 C 157.355469 369.859375 164.601562 368.667969 164.679688 368.644531 C 165.277344 368.539062 165.820312 368.929688 165.921875 369.523438 C 166.027344 370.089844 165.636719 370.660156 165.042969 370.761719 C 164.964844 370.761719 157.5625 372.003906 149.023438 372.285156 C 147.832031 372.390625 146.667969 372.417969 145.527344 372.417969 Z M 150.238281 344.769531 C 150.859375 345.363281 151.457031 345.90625 152.023438 346.371094 C 155.621094 349.445312 160.230469 350.144531 162.144531 348.851562 C 162.792969 348.414062 162.945312 347.820312 162.6875 347.019531 C 161.9375 344.820312 156.8125 344.019531 150.238281 344.769531 Z M 167.707031 181.503906 C 160.332031 181.503906 153.421875 187.578125 146.617188 199.902344 C 139.808594 212.277344 134.660156 228.195312 130.519531 240.984375 C 129.585938 243.851562 128.734375 246.539062 127.90625 248.941406 C 125.394531 256.355469 125.007812 262.066406 126.714844 266.378906 C 128.136719 269.945312 130.804688 271.9375 132.953125 273.539062 C 137.765625 272.117188 142.449219 268.65625 145.941406 263.796875 C 148.503906 260.257812 149.695312 257.335938 150.964844 254.261719 C 153.34375 248.476562 155.828125 242.480469 167.835938 232.765625 C 172.988281 228.605469 177.699219 222.121094 180.726562 214.992188 C 183.882812 207.550781 184.917969 200.261719 183.648438 194.449219 C 182.226562 187.886719 178.035156 183.675781 171.226562 181.945312 C 170.0625 181.660156 168.871094 181.503906 167.707031 181.503906 Z M 167.707031 181.503906 " fill-opacity="1" fill-rule="nonzero"/><path fill="#000000" d="M 115.121094 123.734375 C 109.246094 123.734375 103.628906 123.191406 98.609375 122.082031 C 87.972656 119.753906 81.167969 115.234375 78.890625 109.058594 C 74.179688 96.269531 75.652344 91.875 82.484375 85.183594 C 88.980469 78.828125 111.160156 61.335938 125.085938 57.71875 C 136.730469 54.695312 143.535156 55.445312 146.824219 55.808594 C 147.261719 55.859375 147.625 55.886719 147.910156 55.910156 C 149.203125 55.03125 154.019531 48.316406 158.261719 42.347656 C 162.273438 36.714844 166.90625 30.230469 171.488281 24.363281 C 172.390625 21.1875 173.117188 18.214844 173.375 15.605469 C 173.84375 11.289062 172.445312 8.113281 169.753906 7.3125 C 166.15625 6.253906 160.28125 9.613281 155.285156 19.480469 C 148.117188 33.640625 145.398438 45.242188 144.960938 49.402344 C 144.90625 49.996094 144.363281 50.40625 143.796875 50.355469 C 143.199219 50.304688 142.785156 49.761719 142.835938 49.195312 C 142.890625 48.675781 144.234375 36.636719 153.398438 18.550781 C 155.90625 13.566406 158.882812 9.742188 162.015625 7.441406 C 164.914062 5.324219 167.863281 4.546875 170.375 5.296875 C 174.125 6.40625 176.09375 10.4375 175.523438 15.863281 C 175.367188 17.257812 175.109375 18.730469 174.773438 20.28125 C 176.480469 18.1875 178.164062 16.25 179.769531 14.496094 C 183.960938 9.949219 189.164062 5.890625 194.027344 3.382812 C 199.359375 0.621094 203.785156 0 206.476562 1.628906 C 209.917969 3.695312 210.253906 8.734375 207.511719 16.585938 C 204.328125 25.683594 197.082031 37.851562 188.621094 48.289062 C 185.359375 52.320312 174.230469 65.394531 167.992188 64.878906 C 166.878906 64.773438 164.886719 64.128906 164.34375 60.871094 C 162.84375 52.011719 166.285156 41.132812 169.3125 31.496094 C 169.441406 31.082031 169.570312 30.644531 169.699219 30.230469 C 166.3125 34.75 163 39.402344 160.023438 43.585938 C 151.480469 55.550781 149.515625 58.109375 148.039062 58.054688 C 147.675781 58.03125 147.210938 58.003906 146.617188 57.925781 C 143.457031 57.589844 136.886719 56.894531 125.628906 59.785156 C 112.273438 63.25 90.144531 80.664062 83.988281 86.710938 C 76.921875 93.632812 77 97.742188 80.882812 108.335938 C 82.875 113.734375 89.316406 117.867188 99.050781 120.011719 C 108.289062 122.054688 120.089844 122.132812 131.425781 120.246094 C 140.558594 118.722656 146.824219 114.535156 150.085938 107.765625 C 152.515625 102.703125 152.257812 97.972656 152.257812 97.921875 C 152.230469 97.328125 152.671875 96.835938 153.265625 96.785156 C 153.863281 96.761719 154.355469 97.199219 154.40625 97.769531 C 154.433594 97.972656 154.714844 103.011719 152.078125 108.566406 C 147.652344 117.867188 138.621094 121.175781 131.8125 122.3125 C 126.171875 123.269531 120.53125 123.734375 115.121094 123.734375 Z M 173.425781 25.347656 C 172.804688 27.542969 172.082031 29.816406 171.332031 32.140625 C 168.382812 41.519531 165.015625 52.164062 166.414062 60.511719 C 166.777344 62.628906 167.761719 62.707031 168.121094 62.734375 C 171.460938 63.015625 179.019531 56.660156 186.910156 46.921875 C 195.246094 36.636719 202.335938 24.75 205.441406 15.863281 C 207.746094 9.277344 207.691406 4.855469 205.335938 3.4375 C 201.117188 0.902344 189.65625 6.871094 181.296875 15.914062 C 178.785156 18.628906 176.121094 21.859375 173.425781 25.347656 Z M 173.425781 25.347656 " fill-opacity="1" fill-rule="nonzero"/></svg>