<svg xmlns="http://www.w3.org/2000/svg" xmlns:xlink="http://www.w3.org/1999/xlink" width="500" zoomAndPan="magnify" viewBox="0 0 375 374.999991" height="500" preserveAspectRatio="xMidYMid meet" version="1.0"><defs><g/></defs><g fill="#000000" fill-opacity="1"><g transform="translate(8.791179, 213.783119)"><g><path d="M 65.960938 -38.386719 C 65.890625 -38.421875 65.75 -38.492188 65.363281 -38.492188 C 64.625 -38.492188 63.214844 -38.246094 61.453125 -37.859375 C 61.101562 -37.789062 60.820312 -37.753906 60.539062 -37.683594 C 57.757812 -37.15625 54.9375 -36.695312 52.296875 -36.273438 C 52.050781 -36.238281 51.839844 -36.203125 51.628906 -36.132812 L 51.523438 -36.132812 L 51.488281 -36.097656 L 51.242188 -36.0625 L 51.277344 -36.308594 C 51.3125 -36.414062 53.566406 -46.558594 53.671875 -47.15625 L 53.671875 -47.226562 C 53.707031 -47.367188 53.742188 -47.542969 53.777344 -47.683594 C 56.769531 -62.476562 60.046875 -76.949219 62.863281 -89.171875 C 63.320312 -91.285156 63.742188 -93.433594 64.132812 -95.476562 L 64.167969 -95.652344 C 64.238281 -96.074219 64.34375 -96.496094 64.414062 -96.953125 C 64.589844 -97.835938 64.625 -98.46875 64.625 -99.066406 C 64.554688 -100.125 64.0625 -101.003906 63.179688 -101.425781 C 62.792969 -101.601562 62.371094 -101.707031 61.878906 -101.707031 C 61.3125 -101.707031 60.714844 -101.566406 60.117188 -101.285156 C 59.339844 -100.933594 58.496094 -100.371094 57.792969 -99.699219 C 56.488281 -98.46875 55.082031 -97.128906 53.8125 -95.6875 C 51.136719 -92.65625 48.566406 -89.242188 45.675781 -84.945312 C 36.484375 -71.175781 29.40625 -56.382812 24.617188 -40.992188 C 24.40625 -40.253906 24.230469 -39.761719 24.089844 -39.410156 C 23.914062 -39.019531 22.257812 -32.894531 22.1875 -32.578125 C 22.011719 -31.90625 21.835938 -31.238281 21.660156 -30.605469 L 21.625 -30.429688 L 21.484375 -30.394531 C 21.234375 -30.359375 20.953125 -30.285156 20.671875 -30.214844 L 20.636719 -30.214844 C 20.214844 -30.109375 19.792969 -30.003906 19.40625 -29.898438 C 18.980469 -29.792969 18.488281 -29.6875 18.03125 -29.582031 C 17.574219 -29.476562 17.117188 -29.371094 16.65625 -29.230469 L 15.496094 -28.914062 C 13.382812 -28.386719 11.234375 -27.820312 9.085938 -27.222656 C 8.453125 -27.046875 7.851562 -26.730469 7.253906 -26.414062 L 7.007812 -26.308594 C 6.691406 -26.132812 6.480469 -25.886719 6.375 -25.566406 C 6.234375 -25.109375 6.339844 -24.617188 6.585938 -24.335938 C 7.113281 -23.738281 7.710938 -23.632812 8.242188 -23.632812 C 8.453125 -23.632812 8.699219 -23.667969 8.910156 -23.667969 L 10.460938 -23.914062 L 10.53125 -23.914062 C 11.199219 -24.089844 11.832031 -24.300781 11.902344 -24.828125 C 11.9375 -25.003906 11.902344 -25.109375 11.832031 -25.179688 L 11.691406 -25.425781 L 12.007812 -25.496094 C 14.402344 -26.273438 20.601562 -27.820312 20.8125 -27.820312 L 21.023438 -27.855469 L 20.988281 -27.644531 C 19.757812 -22.433594 18.699219 -17.46875 17.996094 -13.277344 C 17.292969 -9.085938 16.832031 -5.316406 16.550781 -1.832031 C 16.515625 -1.585938 16.480469 -1.304688 16.445312 -1.019531 L 16.410156 -0.808594 C 16.199219 0.457031 15.847656 2.394531 17.679688 2.746094 C 17.679688 2.746094 17.714844 2.78125 17.75 2.78125 C 17.925781 2.78125 18.207031 2.675781 18.347656 2.570312 C 18.875 1.796875 18.804688 0.84375 18.699219 -0.0351562 C 18.664062 -0.386719 18.664062 -0.738281 18.664062 -1.054688 C 18.699219 -1.375 18.699219 -1.691406 18.769531 -1.972656 L 18.875 -2.992188 C 19.828125 -9.824219 20.8125 -16.871094 22.433594 -23.84375 C 22.574219 -24.371094 22.679688 -24.96875 22.785156 -25.601562 C 22.960938 -26.484375 23.101562 -27.433594 23.382812 -28.421875 L 23.417969 -28.527344 L 23.558594 -28.597656 C 24.195312 -28.808594 47.015625 -33.667969 47.226562 -33.703125 L 47.472656 -33.773438 L 47.402344 -33.527344 L 45.851562 -27.082031 C 44.480469 -21.304688 43.105469 -15.496094 41.769531 -9.683594 C 41.558594 -8.875 41.34375 -7.890625 41.273438 -6.9375 C 41.203125 -6.410156 41.734375 -5.988281 42.121094 -5.882812 C 42.226562 -5.847656 42.367188 -5.8125 42.472656 -5.8125 C 43 -5.8125 43.527344 -6.128906 43.953125 -6.621094 C 44.585938 -7.429688 44.761719 -8.242188 44.902344 -8.980469 L 44.902344 -9.015625 C 44.9375 -9.191406 44.972656 -9.332031 45.007812 -9.507812 C 46.769531 -16.941406 48.53125 -24.476562 50.21875 -31.765625 L 50.785156 -34.371094 L 50.820312 -34.511719 L 50.960938 -34.546875 C 51.066406 -34.617188 51.980469 -34.832031 54.796875 -35.535156 C 58.390625 -36.378906 64.871094 -37.929688 65.960938 -38.386719 Z M 61.277344 -96.460938 C 61.242188 -96.25 61.171875 -96.003906 61.101562 -95.792969 C 60.011719 -90.507812 58.777344 -85.296875 57.546875 -79.945312 C 57.050781 -77.796875 56.523438 -75.578125 55.996094 -73.464844 C 55.75 -72.476562 55.1875 -69.835938 55.1875 -69.800781 L 53.847656 -63.53125 C 52.683594 -58.109375 51.488281 -52.507812 50.324219 -46.875 C 49.867188 -44.761719 49.058594 -41.027344 48.742188 -39.867188 L 48.742188 -39.796875 C 48.671875 -39.265625 48.496094 -38.527344 48.320312 -37.683594 L 48.210938 -37.226562 L 48.210938 -37.191406 C 48.105469 -36.695312 48 -36.203125 47.894531 -35.710938 L 47.859375 -35.570312 L 47.71875 -35.535156 C 47.261719 -35.394531 46.699219 -35.324219 46.136719 -35.21875 C 45.570312 -35.148438 44.9375 -35.042969 44.339844 -34.902344 C 40.289062 -34.054688 36.167969 -33.28125 32.1875 -32.539062 C 30.5 -32.222656 28.808594 -31.90625 27.117188 -31.589844 L 26.941406 -31.554688 C 26.660156 -31.519531 26.414062 -31.449219 26.167969 -31.449219 C 25.992188 -31.449219 24.652344 -31.238281 24.335938 -31.167969 L 24.054688 -31.097656 L 24.125 -31.378906 C 24.125 -31.414062 24.160156 -31.484375 24.160156 -31.554688 C 25.566406 -36.976562 33.421875 -65.257812 50.394531 -88.21875 C 53.214844 -92.058594 58.355469 -98.503906 60.785156 -98.503906 C 60.820312 -98.503906 60.855469 -98.503906 60.855469 -98.503906 C 60.925781 -98.503906 60.960938 -98.503906 60.996094 -98.503906 C 61.738281 -98.292969 61.59375 -97.585938 61.277344 -96.460938 Z M 61.277344 -96.460938 "/></g></g></g><g fill="#000000" fill-opacity="1"><g transform="translate(63.516144, 213.783119)"><g><path d="M 32.46875 -21.058594 C 32.222656 -21.058594 31.800781 -20.8125 31.167969 -20.355469 C 30.570312 -19.933594 29.792969 -19.441406 28.84375 -18.945312 C 27.890625 -18.417969 26.800781 -18.066406 25.53125 -17.820312 C 23.066406 -17.398438 21.414062 -18.242188 20.566406 -20.320312 C 20.425781 -20.671875 20.320312 -21.023438 20.179688 -21.378906 C 19.828125 -22.433594 19.40625 -23.453125 18.910156 -24.40625 C 16.796875 -27.996094 13.980469 -27.960938 10.425781 -24.335938 C 10.109375 -23.949219 9.71875 -23.523438 9.332031 -23.03125 C 8.910156 -22.46875 8.523438 -22.011719 8.136719 -21.589844 C 7.78125 -21.164062 7.464844 -20.988281 7.21875 -20.988281 C 6.867188 -20.953125 6.65625 -21.269531 6.691406 -21.90625 C 6.691406 -22.539062 6.761719 -23.242188 6.867188 -23.984375 C 6.9375 -24.371094 6.972656 -24.722656 7.007812 -25.003906 C 7.042969 -25.320312 7.078125 -25.636719 7.113281 -25.921875 C 7.21875 -26.765625 7.253906 -27.46875 7.148438 -27.996094 C 7.078125 -28.5625 6.726562 -28.808594 6.09375 -28.84375 C 5.847656 -28.808594 5.597656 -28.738281 5.386719 -28.527344 C 5.140625 -28.351562 4.964844 -28.175781 4.824219 -27.960938 C 4.683594 -27.714844 4.613281 -27.574219 4.578125 -27.46875 C 4.542969 -26.90625 4.472656 -26.203125 4.4375 -25.425781 C 4.4375 -25.390625 4.4375 -25.355469 4.4375 -25.355469 C 4.367188 -24.511719 4.296875 -23.667969 4.226562 -22.855469 C 4.121094 -21.695312 4.050781 -20.566406 3.980469 -19.40625 C 3.980469 -19.230469 3.980469 -19.050781 3.980469 -18.875 C 3.875 -18.136719 3.910156 -17.46875 4.050781 -16.871094 C 4.226562 -16.269531 4.753906 -15.882812 5.597656 -15.742188 C 6.410156 -15.671875 7.042969 -15.847656 7.535156 -16.304688 C 7.996094 -16.761719 8.417969 -17.292969 8.769531 -17.890625 C 8.910156 -18.066406 9.015625 -18.277344 9.15625 -18.453125 C 9.472656 -18.910156 9.789062 -19.371094 10.109375 -19.828125 C 10.953125 -21.234375 11.9375 -22.539062 13.101562 -23.738281 C 14.050781 -24.6875 14.757812 -25.179688 15.285156 -25.179688 C 15.8125 -25.179688 16.304688 -24.722656 16.761719 -23.738281 C 17.011719 -23.207031 17.257812 -22.644531 17.433594 -22.046875 C 17.574219 -21.695312 17.679688 -21.34375 17.820312 -21.023438 C 18.628906 -18.945312 19.652344 -17.609375 20.988281 -17.011719 C 22.292969 -16.445312 24.160156 -16.515625 26.554688 -17.257812 C 27.222656 -17.46875 27.785156 -17.644531 28.246094 -17.855469 C 28.667969 -18.066406 29.125 -18.277344 29.546875 -18.558594 C 30.003906 -18.804688 30.5 -19.160156 30.992188 -19.546875 C 31.484375 -19.933594 31.90625 -20.285156 32.222656 -20.601562 C 32.503906 -20.882812 32.613281 -21.058594 32.46875 -21.058594 Z M 32.46875 -21.058594 "/></g></g></g><g fill="#000000" fill-opacity="1"><g transform="translate(91.582953, 213.783119)"><g><path d="M 6.65625 -13.171875 C 6.304688 -13.101562 5.988281 -13.066406 5.671875 -13.101562 C 5.351562 -13.136719 5.105469 -13.207031 4.894531 -13.347656 C 4.71875 -13.523438 4.613281 -13.734375 4.542969 -14.015625 C 4.507812 -14.261719 4.507812 -14.542969 4.542969 -14.828125 C 4.542969 -15.039062 4.578125 -15.25 4.578125 -15.460938 C 4.613281 -15.566406 4.613281 -15.636719 4.613281 -15.707031 C 4.648438 -15.988281 4.683594 -16.269531 4.71875 -16.585938 C 4.789062 -16.871094 4.859375 -17.152344 4.929688 -17.433594 L 5.175781 -18.347656 L 5.742188 -20.109375 C 5.917969 -20.707031 6.058594 -21.304688 6.234375 -21.90625 C 6.234375 -21.941406 6.234375 -21.976562 6.269531 -22.011719 C 6.445312 -22.574219 6.515625 -23.136719 6.480469 -23.738281 C 6.445312 -24.054688 6.304688 -24.335938 6.023438 -24.546875 C 5.707031 -24.757812 5.351562 -24.828125 4.929688 -24.792969 C 4.15625 -24.6875 3.417969 -24.441406 2.746094 -24.125 L 2.675781 -24.054688 C 2.289062 -23.773438 2.042969 -23.453125 1.9375 -23.03125 C 1.902344 -22.855469 1.902344 -22.679688 1.9375 -22.503906 C 1.9375 -22.46875 1.9375 -22.46875 1.9375 -22.46875 C 1.9375 -22.433594 1.972656 -22.398438 1.972656 -22.363281 L 2.007812 -22.292969 C 2.007812 -22.257812 2.042969 -22.257812 2.078125 -22.222656 C 2.148438 -22.117188 2.289062 -22.082031 2.429688 -22.082031 C 2.570312 -22.046875 2.710938 -22.082031 2.851562 -22.117188 L 3.132812 -22.222656 C 3.273438 -22.292969 3.453125 -22.328125 3.558594 -22.328125 C 3.59375 -22.328125 3.628906 -22.328125 3.664062 -22.328125 C 3.699219 -22.292969 3.699219 -22.257812 3.734375 -22.222656 C 3.769531 -22.117188 3.769531 -22.011719 3.769531 -21.871094 C 3.699219 -21.378906 3.59375 -20.917969 3.453125 -20.390625 C 3.417969 -20.285156 3.382812 -20.144531 3.34375 -20.003906 L 2.816406 -18.136719 C 2.640625 -17.503906 2.464844 -16.871094 2.324219 -16.234375 C 2.183594 -15.601562 2.113281 -14.96875 2.113281 -14.332031 C 2.148438 -13.699219 2.289062 -13.101562 2.535156 -12.539062 C 2.78125 -11.9375 3.238281 -11.515625 3.910156 -11.269531 C 4.613281 -11.058594 5.351562 -10.988281 6.128906 -11.128906 C 6.515625 -11.199219 6.902344 -11.269531 7.289062 -11.375 C 7.675781 -11.515625 8.066406 -11.65625 8.417969 -11.832031 C 10.917969 -12.820312 13.347656 -14.402344 15.707031 -16.65625 C 18.101562 -18.875 19.617188 -20.460938 20.285156 -21.414062 C 20.285156 -21.414062 20.285156 -21.414062 20.285156 -21.449219 C 20.320312 -21.484375 20.320312 -21.554688 20.320312 -21.589844 C 20.320312 -21.660156 20.320312 -21.695312 20.320312 -21.765625 C 20.285156 -21.800781 20.179688 -21.871094 19.933594 -21.941406 C 18.769531 -20.636719 16.796875 -18.910156 13.980469 -16.761719 C 11.128906 -14.578125 8.699219 -13.382812 6.65625 -13.171875 Z M 7.78125 -30.039062 C 7.710938 -30.109375 7.605469 -30.179688 7.5 -30.214844 C 7.429688 -30.25 7.359375 -30.285156 7.253906 -30.324219 C 7.21875 -30.324219 7.21875 -30.324219 7.183594 -30.324219 C 6.726562 -30.464844 6.269531 -30.535156 5.777344 -30.5 C 5.28125 -30.5 4.824219 -30.394531 4.332031 -30.179688 C 4.085938 -30.074219 3.839844 -29.933594 3.628906 -29.757812 C 3.417969 -29.546875 3.308594 -29.335938 3.238281 -29.054688 C 3.273438 -28.773438 3.34375 -28.5625 3.558594 -28.386719 C 3.734375 -28.246094 3.945312 -28.140625 4.191406 -28.070312 C 4.648438 -27.960938 5.140625 -27.925781 5.597656 -27.960938 C 6.09375 -28.03125 6.585938 -28.140625 7.042969 -28.386719 C 7.253906 -28.492188 7.464844 -28.632812 7.640625 -28.808594 C 7.851562 -28.984375 7.960938 -29.195312 7.960938 -29.40625 C 7.996094 -29.652344 7.925781 -29.863281 7.78125 -30.039062 Z M 7.78125 -30.039062 "/></g></g></g><g fill="#000000" fill-opacity="1"><g transform="translate(106.479147, 213.783119)"><g><path d="M 38.5625 -19.265625 C 38.492188 -19.335938 38.386719 -19.335938 38.28125 -19.335938 C 38.210938 -19.335938 38.105469 -19.335938 38.035156 -19.300781 C 37.894531 -19.265625 37.71875 -19.195312 37.578125 -19.125 L 36.695312 -18.699219 C 36.554688 -18.628906 36.378906 -18.558594 36.203125 -18.488281 C 35.78125 -18.3125 35.394531 -18.101562 34.972656 -17.925781 C 34.371094 -17.679688 33.808594 -17.46875 33.210938 -17.292969 C 32.613281 -17.117188 32.046875 -17.046875 31.484375 -17.117188 C 31.203125 -17.152344 30.992188 -17.222656 30.746094 -17.363281 C 30.570312 -17.503906 30.394531 -17.714844 30.285156 -17.925781 C 30.074219 -18.347656 29.933594 -18.769531 29.863281 -19.265625 C 29.863281 -19.335938 29.828125 -19.40625 29.828125 -19.476562 C 29.722656 -20.039062 29.582031 -20.566406 29.300781 -21.058594 C 29.054688 -21.519531 28.738281 -21.976562 28.316406 -22.328125 C 27.46875 -23.101562 26.414062 -23.453125 25.144531 -23.347656 C 23.878906 -23.207031 22.679688 -22.714844 21.554688 -21.90625 C 20.496094 -21.09375 19.546875 -20.179688 18.699219 -19.195312 L 18.03125 -18.453125 C 17.820312 -18.207031 17.609375 -17.960938 17.398438 -17.679688 C 17.222656 -17.398438 17.011719 -17.1875 16.832031 -17.011719 C 16.621094 -16.832031 16.410156 -16.726562 16.199219 -16.691406 C 15.988281 -17.152344 15.917969 -17.679688 15.988281 -18.277344 C 15.988281 -18.3125 15.988281 -18.3125 15.988281 -18.3125 C 15.988281 -18.417969 15.988281 -18.523438 15.988281 -18.628906 C 15.988281 -18.839844 15.988281 -19.050781 15.988281 -19.265625 C 15.988281 -19.371094 15.988281 -19.476562 15.988281 -19.546875 C 15.988281 -19.757812 15.988281 -19.96875 15.988281 -20.214844 C 16.023438 -20.847656 15.882812 -21.484375 15.671875 -22.046875 C 15.53125 -22.363281 15.320312 -22.574219 15.074219 -22.785156 C 14.792969 -22.960938 14.507812 -23.066406 14.191406 -23.136719 C 13.875 -23.242188 13.523438 -23.242188 13.171875 -23.242188 C 12.820312 -23.207031 12.46875 -23.101562 12.113281 -22.960938 C 11.445312 -22.609375 10.847656 -22.152344 10.355469 -21.625 L 8.839844 -20.074219 C 8.347656 -19.546875 7.890625 -18.980469 7.464844 -18.417969 C 7.148438 -18.066406 6.867188 -17.679688 6.585938 -17.328125 C 6.410156 -17.152344 6.269531 -16.976562 6.128906 -16.796875 L 5.777344 -16.375 C 5.742188 -16.339844 5.707031 -16.304688 5.707031 -16.269531 C 5.597656 -16.164062 5.527344 -16.09375 5.457031 -16.023438 C 5.457031 -16.023438 5.457031 -16.058594 5.457031 -16.09375 L 5.492188 -16.339844 C 5.636719 -16.941406 5.777344 -17.574219 5.988281 -18.207031 L 6.269531 -19.195312 C 6.304688 -19.335938 6.339844 -19.511719 6.375 -19.652344 C 6.410156 -19.792969 6.445312 -19.96875 6.480469 -20.144531 C 6.65625 -20.671875 6.796875 -21.234375 6.972656 -21.765625 C 7.21875 -22.503906 7.429688 -23.242188 7.605469 -23.984375 C 7.675781 -24.300781 7.746094 -24.652344 7.816406 -24.96875 C 7.816406 -24.96875 7.816406 -24.96875 7.816406 -25.003906 C 7.890625 -25.320312 7.925781 -25.636719 7.890625 -25.992188 C 7.851562 -26.167969 7.78125 -26.34375 7.675781 -26.484375 C 7.535156 -26.625 7.394531 -26.730469 7.21875 -26.800781 C 6.902344 -26.90625 6.550781 -26.976562 6.199219 -26.941406 L 6.164062 -26.941406 L 6.058594 -26.90625 C 6.023438 -26.871094 5.988281 -26.871094 5.917969 -26.835938 C 5.882812 -26.800781 5.8125 -26.765625 5.777344 -26.730469 C 5.671875 -26.625 5.597656 -26.554688 5.527344 -26.449219 C 5.386719 -26.238281 5.28125 -26.027344 5.210938 -25.851562 C 5.140625 -25.566406 5.070312 -25.285156 5 -25.039062 C 4.964844 -24.933594 4.964844 -24.863281 4.929688 -24.792969 L 3.453125 -18.558594 L 2.535156 -14.402344 L 2.289062 -13.382812 C 2.183594 -12.996094 2.183594 -12.609375 2.289062 -12.21875 C 2.359375 -11.867188 2.605469 -11.585938 2.921875 -11.375 C 3.238281 -11.199219 3.59375 -11.128906 4.015625 -11.164062 C 4.472656 -11.199219 4.859375 -11.375 5.210938 -11.691406 C 5.386719 -11.796875 5.527344 -11.972656 5.671875 -12.113281 C 5.742188 -12.21875 5.847656 -12.324219 5.917969 -12.433594 C 5.953125 -12.46875 5.988281 -12.539062 6.023438 -12.574219 L 7.464844 -14.367188 C 8.136719 -15.214844 8.839844 -16.058594 9.542969 -16.90625 C 9.824219 -17.257812 10.070312 -17.574219 10.355469 -17.925781 L 11.832031 -19.6875 C 12.042969 -20.003906 12.289062 -20.25 12.574219 -20.496094 C 12.820312 -20.707031 13.066406 -20.777344 13.3125 -20.671875 C 13.382812 -20.671875 13.453125 -20.566406 13.453125 -20.460938 C 13.488281 -20.320312 13.488281 -20.179688 13.488281 -20.003906 L 13.488281 -18.980469 C 13.523438 -18.699219 13.523438 -18.417969 13.523438 -18.136719 C 13.523438 -17.75 13.523438 -17.363281 13.523438 -16.941406 C 13.558594 -16.269531 13.664062 -15.601562 13.875 -14.96875 C 14.015625 -14.652344 14.191406 -14.367188 14.4375 -14.121094 C 14.6875 -13.875 15.003906 -13.734375 15.390625 -13.664062 C 15.777344 -13.628906 16.164062 -13.699219 16.550781 -13.875 C 16.90625 -14.050781 17.257812 -14.261719 17.574219 -14.507812 C 17.890625 -14.792969 18.171875 -15.039062 18.417969 -15.355469 C 18.699219 -15.636719 18.945312 -15.917969 19.195312 -16.199219 C 19.441406 -16.480469 19.6875 -16.761719 19.933594 -17.046875 C 20.671875 -17.960938 21.449219 -18.804688 22.257812 -19.617188 C 22.820312 -20.144531 23.417969 -20.601562 24.019531 -20.988281 C 24.6875 -21.414062 25.320312 -21.589844 25.957031 -21.519531 C 26.519531 -21.304688 26.941406 -20.917969 27.1875 -20.320312 C 27.46875 -19.757812 27.679688 -19.195312 27.785156 -18.523438 C 27.960938 -17.890625 28.28125 -17.292969 28.667969 -16.796875 C 29.089844 -16.269531 29.652344 -15.917969 30.324219 -15.742188 C 30.992188 -15.566406 31.695312 -15.53125 32.433594 -15.671875 C 33.140625 -15.777344 33.878906 -16.023438 34.582031 -16.304688 C 35.957031 -16.941406 37.296875 -17.75 38.492188 -18.699219 L 38.527344 -18.734375 C 38.527344 -18.769531 38.527344 -18.769531 38.527344 -18.769531 C 38.5625 -18.804688 38.5625 -18.839844 38.597656 -18.875 C 38.597656 -18.910156 38.597656 -18.945312 38.632812 -18.980469 C 38.632812 -19.089844 38.597656 -19.160156 38.527344 -19.230469 Z M 38.5625 -19.265625 "/></g></g></g><g fill="#000000" fill-opacity="1"><g transform="translate(143.173749, 213.783119)"><g><path d="M 22.996094 -77.691406 C 22.890625 -78.640625 22.363281 -79.203125 21.449219 -79.414062 C 20.917969 -79.519531 20.355469 -79.378906 19.828125 -79.0625 C 19.546875 -78.886719 19.335938 -78.710938 19.160156 -78.464844 C 18.980469 -78.253906 18.839844 -78.042969 18.734375 -77.867188 C 18.558594 -77.550781 18.417969 -77.125 18.347656 -76.632812 C 18.3125 -76.316406 18.347656 -76.035156 18.453125 -75.789062 C 18.628906 -75.472656 18.875 -75.226562 19.195312 -75.117188 C 19.476562 -75.011719 19.757812 -75.011719 20.074219 -75.082031 C 20.039062 -74.976562 19.96875 -74.90625 19.863281 -74.800781 C 19.546875 -74.378906 19.195312 -73.992188 18.804688 -73.640625 C 18.347656 -73.21875 17.960938 -72.972656 17.679688 -72.828125 L 17.644531 -72.792969 C 17.398438 -72.6875 17.222656 -72.546875 17.117188 -72.335938 C 16.976562 -72.125 16.941406 -71.914062 17.011719 -71.667969 C 17.046875 -71.457031 17.1875 -71.316406 17.398438 -71.246094 C 17.46875 -71.210938 17.574219 -71.175781 17.679688 -71.175781 C 17.785156 -71.175781 17.925781 -71.210938 18.03125 -71.246094 C 18.734375 -71.597656 19.335938 -71.984375 19.863281 -72.441406 C 20.355469 -72.863281 20.8125 -73.324219 21.234375 -73.851562 C 21.730469 -74.414062 22.117188 -74.976562 22.433594 -75.507812 C 22.820312 -76.105469 22.996094 -76.84375 22.996094 -77.691406 Z M 22.996094 -77.691406 "/></g></g></g><g fill="#000000" fill-opacity="1"><g transform="translate(154.090569, 213.783119)"><g><path d="M 63.285156 -64.273438 C 63.566406 -69.660156 63.074219 -74.203125 61.914062 -77.972656 C 61.03125 -80.929688 59.695312 -83.148438 57.96875 -84.59375 C 56.628906 -85.71875 55.222656 -86.351562 53.8125 -86.496094 C 51.066406 -86.777344 48.496094 -86.496094 46.171875 -85.613281 C 43.632812 -84.699219 41.132812 -83.394531 38.632812 -81.632812 C 34.195312 -78.570312 30.074219 -74.484375 26.238281 -69.378906 C 19.015625 -59.800781 14.121094 -49.09375 11.550781 -37.296875 C 10.53125 -32.613281 10.25 -28.527344 10.636719 -25.039062 C 10.8125 -23.523438 10.671875 -21.90625 10.179688 -20.074219 C 8.980469 -15.601562 8.03125 -11.09375 7.324219 -6.480469 C 6.867188 -3.558594 6.726562 -0.5625 6.902344 2.429688 C 7.042969 5.175781 7.746094 7.5 8.980469 9.4375 C 10.601562 11.9375 13.101562 13.277344 16.410156 13.453125 C 16.65625 13.453125 16.941406 13.453125 17.1875 13.453125 C 20.425781 13.453125 23.632812 12.503906 26.765625 10.566406 C 28.492188 9.542969 29.96875 8.558594 31.238281 7.570312 C 32.539062 6.621094 33.28125 6.023438 33.492188 5.847656 C 37.964844 1.796875 42.050781 -3.273438 45.710938 -9.367188 C 52.683594 -20.917969 57.828125 -33.808594 61.101562 -48.035156 C 62.300781 -53.355469 63.039062 -58.777344 63.285156 -64.273438 Z M 12.503906 -18.136719 C 12.46875 -18.242188 12.433594 -18.277344 12.46875 -18.277344 C 12.46875 -18.242188 12.539062 -18.207031 12.574219 -18.101562 C 12.644531 -18.03125 12.714844 -17.925781 12.785156 -17.820312 C 12.855469 -17.714844 12.925781 -17.574219 12.996094 -17.46875 C 13.066406 -17.398438 13.136719 -17.292969 13.171875 -17.257812 C 13.207031 -17.1875 13.242188 -17.152344 13.242188 -17.117188 C 14.757812 -15.214844 16.691406 -13.980469 19.050781 -13.417969 C 21.164062 -13.03125 23.101562 -12.925781 24.792969 -13.171875 C 27.328125 -13.417969 29.757812 -14.015625 32.082031 -15.003906 C 32.117188 -15.039062 32.152344 -15.039062 32.1875 -15.039062 C 32.222656 -15.074219 32.257812 -15.074219 32.292969 -15.109375 C 32.578125 -15.214844 32.824219 -15.355469 33 -15.460938 C 33.210938 -15.601562 33.351562 -15.707031 33.457031 -15.847656 C 33.5625 -15.953125 33.667969 -16.058594 33.703125 -16.128906 C 33.773438 -16.234375 33.808594 -16.304688 33.808594 -16.339844 C 33.84375 -16.375 33.84375 -16.410156 33.84375 -16.410156 C 33.84375 -16.480469 33.84375 -16.550781 33.84375 -16.585938 C 33.808594 -16.65625 33.808594 -16.691406 33.773438 -16.726562 C 33.738281 -16.761719 33.703125 -16.796875 33.703125 -16.832031 C 33.667969 -16.832031 33.667969 -16.871094 33.667969 -16.871094 C 33.457031 -16.976562 33.140625 -17.011719 32.71875 -16.941406 C 32.292969 -16.90625 31.871094 -16.761719 31.414062 -16.621094 C 30.921875 -16.480469 30.535156 -16.304688 30.179688 -16.164062 C 29.863281 -16.023438 29.6875 -15.953125 29.6875 -15.953125 C 29.476562 -15.917969 29.265625 -15.882812 29.054688 -15.847656 C 27.152344 -15.460938 25.214844 -15.25 23.277344 -15.25 C 21.234375 -15.214844 19.546875 -15.496094 18.136719 -16.058594 C 16.691406 -16.621094 15.566406 -17.714844 14.757812 -19.371094 C 14.617188 -19.617188 14.472656 -19.863281 14.367188 -20.074219 C 14.121094 -20.496094 13.910156 -20.882812 13.769531 -21.269531 C 13.628906 -21.695312 13.558594 -22.1875 13.59375 -22.785156 C 14.15625 -25.460938 15.109375 -28.703125 16.375 -32.46875 C 17.679688 -36.203125 18.980469 -39.726562 20.25 -43 C 24.089844 -52.296875 26.730469 -58.109375 28.175781 -60.433594 C 28.808594 -61.558594 29.195312 -62.335938 29.300781 -62.757812 C 29.441406 -63.179688 29.300781 -63.425781 28.914062 -63.496094 C 28.246094 -63.707031 27.363281 -62.933594 26.308594 -61.066406 C 26.273438 -61.03125 26.238281 -60.960938 26.238281 -60.925781 C 26.203125 -60.890625 26.203125 -60.855469 26.167969 -60.820312 C 24.335938 -57.722656 22.539062 -54.09375 20.707031 -49.972656 C 19.335938 -46.839844 17.890625 -43.070312 16.269531 -38.703125 C 14.6875 -34.300781 13.488281 -30.851562 12.644531 -28.351562 C 12.925781 -35.746094 14.898438 -43.5625 18.523438 -51.875 C 22.1875 -60.152344 26.554688 -67.160156 31.660156 -72.933594 C 34.902344 -76.386719 38.527344 -79.238281 42.507812 -81.492188 C 43.527344 -82.058594 44.621094 -82.585938 45.851562 -83.007812 C 47.050781 -83.464844 48.210938 -83.78125 49.269531 -83.921875 C 52.898438 -84.347656 55.292969 -83.394531 56.523438 -81.035156 C 57.441406 -79.449219 58.109375 -77.761719 58.496094 -75.929688 C 58.53125 -75.859375 58.53125 -75.789062 58.566406 -75.71875 C 59.589844 -71.949219 59.941406 -67.792969 59.625 -63.285156 C 58.320312 -44.65625 52.332031 -26.625 41.769531 -9.226562 C 38.949219 -4.578125 35.640625 -0.527344 31.835938 2.957031 C 31.695312 3.132812 30.921875 3.734375 29.582031 4.789062 C 28.246094 5.882812 26.589844 6.9375 24.652344 7.996094 C 22.679688 9.085938 20.671875 9.683594 18.664062 9.859375 C 16.65625 9.964844 15.074219 9.613281 13.875 8.804688 C 13.734375 8.699219 13.558594 8.59375 13.417969 8.488281 C 12.890625 8.171875 12.398438 7.816406 11.902344 7.359375 C 11.410156 6.902344 10.953125 6.269531 10.53125 5.421875 C 9.648438 3.0625 9.226562 0.878906 9.296875 -1.234375 C 9.332031 -3.910156 9.578125 -6.515625 10.109375 -9.085938 C 10.601562 -11.65625 11.128906 -13.769531 11.621094 -15.460938 C 12.148438 -17.1875 12.46875 -18.066406 12.503906 -18.136719 Z M 12.503906 -18.136719 "/></g></g></g><g fill="#000000" fill-opacity="1"><g transform="translate(205.293978, 213.783119)"><g><path d="M 22.996094 -77.691406 C 22.890625 -78.640625 22.363281 -79.203125 21.449219 -79.414062 C 20.917969 -79.519531 20.355469 -79.378906 19.828125 -79.0625 C 19.546875 -78.886719 19.335938 -78.710938 19.160156 -78.464844 C 18.980469 -78.253906 18.839844 -78.042969 18.734375 -77.867188 C 18.558594 -77.550781 18.417969 -77.125 18.347656 -76.632812 C 18.3125 -76.316406 18.347656 -76.035156 18.453125 -75.789062 C 18.628906 -75.472656 18.875 -75.226562 19.195312 -75.117188 C 19.476562 -75.011719 19.757812 -75.011719 20.074219 -75.082031 C 20.039062 -74.976562 19.96875 -74.90625 19.863281 -74.800781 C 19.546875 -74.378906 19.195312 -73.992188 18.804688 -73.640625 C 18.347656 -73.21875 17.960938 -72.972656 17.679688 -72.828125 L 17.644531 -72.792969 C 17.398438 -72.6875 17.222656 -72.546875 17.117188 -72.335938 C 16.976562 -72.125 16.941406 -71.914062 17.011719 -71.667969 C 17.046875 -71.457031 17.1875 -71.316406 17.398438 -71.246094 C 17.46875 -71.210938 17.574219 -71.175781 17.679688 -71.175781 C 17.785156 -71.175781 17.925781 -71.210938 18.03125 -71.246094 C 18.734375 -71.597656 19.335938 -71.984375 19.863281 -72.441406 C 20.355469 -72.863281 20.8125 -73.324219 21.234375 -73.851562 C 21.730469 -74.414062 22.117188 -74.976562 22.433594 -75.507812 C 22.820312 -76.105469 22.996094 -76.84375 22.996094 -77.691406 Z M 22.996094 -77.691406 "/></g></g></g><g fill="#000000" fill-opacity="1"><g transform="translate(216.210798, 213.783119)"><g><path d="M 54.128906 -68.5 C 54.726562 -70.328125 55.117188 -72.054688 55.328125 -73.675781 C 55.539062 -75.578125 55.539062 -77.300781 55.257812 -78.816406 C 54.867188 -80.789062 54.164062 -82.304688 53.109375 -83.324219 C 51.769531 -84.628906 50.078125 -85.261719 48.035156 -85.261719 C 44.375 -85.261719 40.21875 -83.5 35.570312 -79.945312 C 30.921875 -76.386719 26.90625 -71.949219 23.488281 -66.597656 L 22.539062 -65.011719 L 22.996094 -66.738281 C 23.984375 -70.292969 25.039062 -73.921875 26.203125 -77.621094 C 27.398438 -81.316406 28.457031 -84.59375 29.441406 -87.375 L 29.441406 -87.410156 C 29.546875 -87.691406 29.546875 -87.972656 29.40625 -88.21875 C 29.300781 -88.429688 29.089844 -88.570312 28.773438 -88.640625 C 28.738281 -88.640625 28.667969 -88.640625 28.632812 -88.640625 C 28.351562 -88.640625 28.105469 -88.570312 27.855469 -88.359375 C 27.609375 -88.183594 27.433594 -87.972656 27.328125 -87.691406 C 26.238281 -84.59375 25.144531 -81.316406 24.054688 -77.832031 C 23.066406 -74.660156 22.117188 -71.351562 21.199219 -67.933594 C 20.25 -64.378906 19.300781 -60.714844 18.382812 -56.875 L 18.382812 -56.839844 C 17.714844 -55.152344 17.046875 -53.320312 16.339844 -51.382812 C 14.933594 -47.367188 13.59375 -43.105469 12.324219 -38.632812 L 12.324219 -38.492188 L 12.183594 -38.421875 C 11.515625 -37.929688 10.882812 -37.4375 10.320312 -36.90625 C 9.507812 -36.167969 8.839844 -35.429688 8.277344 -34.652344 C 7.570312 -33.667969 7.113281 -32.71875 6.902344 -31.835938 C 6.761719 -31.203125 6.761719 -30.605469 6.902344 -30.109375 C 7.148438 -29.476562 7.535156 -29.019531 8.171875 -28.808594 C 8.453125 -28.667969 8.804688 -28.632812 9.191406 -28.632812 C 9.261719 -28.632812 9.332031 -28.632812 9.4375 -28.632812 L 9.753906 -28.667969 L 9.648438 -28.351562 C 8.277344 -22.609375 7.148438 -17.082031 6.234375 -11.726562 C 5.597656 -8.03125 5.105469 -4.71875 4.824219 -1.796875 C 4.613281 0.0703125 4.472656 1.726562 4.4375 3.203125 C 4.332031 4.789062 4.402344 6.480469 4.613281 8.207031 C 4.683594 8.59375 4.789062 9.015625 5 9.542969 C 5.035156 9.648438 5.105469 9.753906 5.140625 9.859375 L 5.210938 9.964844 C 5.246094 10.035156 5.28125 10.109375 5.386719 10.214844 C 5.421875 10.25 5.527344 10.320312 5.636719 10.390625 C 5.742188 10.460938 5.882812 10.496094 6.058594 10.496094 C 6.09375 10.53125 6.164062 10.53125 6.199219 10.53125 C 6.375 10.53125 6.585938 10.460938 6.761719 10.390625 C 6.9375 10.320312 7.078125 10.214844 7.183594 10.109375 C 7.359375 9.964844 7.464844 9.859375 7.535156 9.753906 C 7.605469 9.683594 7.640625 9.613281 7.675781 9.542969 C 7.746094 9.402344 7.816406 9.332031 7.851562 9.226562 C 7.925781 9.085938 7.960938 8.945312 7.996094 8.804688 C 8.136719 8.382812 8.277344 7.925781 8.382812 7.464844 C 8.488281 7.113281 8.558594 6.691406 8.664062 6.199219 C 9.015625 4.578125 9.332031 2.921875 9.613281 1.199219 C 10.070312 -1.304688 10.496094 -3.804688 10.917969 -6.234375 L 10.953125 -6.339844 L 11.339844 -8.664062 C 12.289062 -14.367188 13.488281 -20.953125 14.863281 -28.386719 C 14.96875 -28.914062 15.074219 -29.441406 15.179688 -29.933594 L 15.214844 -30.144531 L 15.390625 -30.214844 C 15.742188 -30.324219 16.09375 -30.464844 16.445312 -30.570312 C 18.101562 -31.203125 19.792969 -31.871094 21.484375 -32.683594 C 24.863281 -34.230469 28.070312 -36.0625 31.132812 -38.140625 C 31.871094 -38.667969 32.753906 -39.304688 33.703125 -40.042969 C 34.652344 -40.78125 35.464844 -41.414062 36.097656 -41.910156 L 36.203125 -42.015625 L 36.34375 -42.015625 C 37.011719 -41.910156 37.648438 -41.839844 38.175781 -41.734375 C 38.738281 -41.628906 39.339844 -41.484375 40.007812 -41.308594 C 40.078125 -41.308594 40.148438 -41.273438 40.21875 -41.238281 C 40.394531 -41.203125 40.535156 -41.167969 40.640625 -41.167969 C 40.710938 -41.167969 40.746094 -41.167969 40.78125 -41.167969 C 40.78125 -41.203125 40.816406 -41.238281 40.816406 -41.238281 C 40.851562 -41.308594 40.886719 -41.378906 40.886719 -41.449219 C 40.886719 -41.484375 40.851562 -41.558594 40.746094 -41.59375 C 40.675781 -41.664062 40.535156 -41.734375 40.324219 -41.804688 C 39.65625 -42.050781 38.878906 -42.261719 38 -42.472656 C 37.824219 -42.507812 37.683594 -42.578125 37.507812 -42.613281 L 37.050781 -42.71875 L 37.4375 -43.070312 C 38.246094 -43.777344 39.054688 -44.515625 39.796875 -45.289062 C 42.507812 -47.894531 44.902344 -50.785156 47.015625 -53.882812 C 49.058594 -56.875 50.820312 -60.082031 52.261719 -63.496094 C 52.96875 -65.152344 53.601562 -66.808594 54.128906 -68.5 Z M 11.445312 -35.359375 C 11.339844 -34.972656 11.199219 -34.511719 11.058594 -33.949219 C 10.917969 -33.386719 10.777344 -32.824219 10.636719 -32.328125 L 10.460938 -31.589844 L 10.425781 -31.378906 L 10.355469 -31.167969 L 10.285156 -30.921875 L 10.070312 -30.886719 L 10 -30.886719 C 9.859375 -30.851562 9.71875 -30.851562 9.613281 -30.851562 C 9.507812 -30.851562 9.402344 -30.851562 9.332031 -30.886719 L 9.296875 -30.886719 C 9.261719 -30.886719 9.226562 -30.921875 9.191406 -30.957031 C 9.15625 -30.992188 9.121094 -31.0625 9.085938 -31.132812 C 9.015625 -31.273438 9.015625 -31.484375 9.085938 -31.800781 C 9.121094 -32.789062 9.753906 -34.019531 10.953125 -35.535156 L 11.691406 -36.378906 Z M 13.488281 -39.65625 L 15.214844 -45.394531 L 15.777344 -45.359375 L 14.402344 -39.9375 L 14.367188 -39.832031 L 14.296875 -39.761719 L 13.910156 -39.445312 L 13.242188 -38.878906 Z M 12.714844 -36.554688 C 12.785156 -36.660156 12.855469 -36.765625 12.960938 -36.871094 C 13.066406 -36.941406 13.136719 -37.011719 13.242188 -37.085938 C 13.3125 -37.121094 13.382812 -37.15625 13.417969 -37.191406 L 13.875 -37.402344 L 13.769531 -36.941406 L 12.75 -31.695312 L 12.714844 -31.484375 L 12.503906 -31.414062 L 11.972656 -31.238281 L 11.550781 -31.097656 L 11.621094 -31.484375 C 11.726562 -32.011719 11.867188 -32.648438 12.007812 -33.386719 C 12.183594 -34.125 12.324219 -34.832031 12.46875 -35.429688 C 12.574219 -36.0625 12.679688 -36.414062 12.714844 -36.554688 Z M 6.234375 5.742188 C 5.917969 4.261719 5.882812 1.65625 6.234375 -2.042969 C 6.585938 -5.777344 7.042969 -9.085938 7.605469 -11.972656 C 8.207031 -14.863281 8.734375 -17.503906 9.191406 -19.898438 C 9.894531 -23.738281 10.53125 -26.625 11.023438 -28.527344 C 11.09375 -28.632812 11.164062 -28.738281 11.269531 -28.808594 C 11.375 -28.878906 11.480469 -28.914062 11.585938 -28.949219 C 11.726562 -28.984375 11.796875 -29.019531 11.867188 -29.019531 C 12.007812 -29.019531 12.078125 -28.984375 12.148438 -28.914062 C 12.183594 -28.84375 12.21875 -28.773438 12.183594 -28.667969 C 11.9375 -27.328125 11.585938 -25.25 11.09375 -22.398438 C 10.636719 -19.511719 10.179688 -16.726562 9.71875 -14.015625 C 9.296875 -11.445312 8.980469 -9.648438 8.804688 -8.558594 L 8.417969 -6.164062 C 8.382812 -6.058594 8.3125 -5.421875 8.136719 -4.261719 C 7.996094 -3.097656 7.816406 -1.796875 7.605469 -0.316406 C 7.113281 3.417969 6.832031 5.386719 6.796875 5.597656 L 6.585938 6.832031 Z M 32.859375 -41.875 C 32.71875 -41.769531 32.46875 -41.59375 32.117188 -41.378906 C 31.800781 -41.167969 31.449219 -40.957031 31.097656 -40.710938 C 30.851562 -40.570312 30.640625 -40.429688 30.464844 -40.289062 C 30.25 -40.148438 30.109375 -40.078125 30.039062 -40.007812 C 27.117188 -38 24.054688 -36.238281 20.847656 -34.722656 C 19.265625 -33.949219 17.644531 -33.28125 16.058594 -32.683594 L 15.671875 -32.539062 L 15.742188 -32.964844 C 16.199219 -35.324219 16.585938 -37.367188 16.941406 -39.054688 L 16.976562 -39.230469 L 17.117188 -39.304688 C 19.476562 -40.605469 21.800781 -41.449219 24.054688 -41.910156 C 26.308594 -42.332031 28.246094 -42.542969 29.828125 -42.542969 C 31.238281 -42.542969 32.152344 -42.472656 32.613281 -42.367188 C 32.648438 -42.367188 32.648438 -42.367188 32.648438 -42.367188 C 32.71875 -42.367188 32.753906 -42.367188 32.789062 -42.367188 L 33.492188 -42.332031 Z M 51.699219 -68.746094 C 51.207031 -67.160156 50.609375 -65.574219 49.9375 -64.027344 C 48.601562 -60.785156 46.945312 -57.757812 45.007812 -54.902344 C 43.035156 -51.980469 40.78125 -49.269531 38.246094 -46.769531 C 37.011719 -45.535156 35.710938 -44.375 34.300781 -43.210938 L 34.195312 -43.140625 L 34.054688 -43.140625 C 33.773438 -43.175781 33.457031 -43.175781 33.140625 -43.210938 C 32.398438 -43.28125 31.589844 -43.316406 30.675781 -43.316406 C 30.359375 -43.351562 30.039062 -43.351562 29.722656 -43.351562 C 26.34375 -43.351562 23.207031 -42.929688 20.355469 -42.15625 C 19.476562 -41.910156 18.628906 -41.628906 17.785156 -41.308594 L 17.363281 -41.167969 L 17.46875 -41.59375 C 17.925781 -43.8125 18.382812 -45.992188 18.839844 -48.105469 C 19.511719 -51.171875 20.179688 -54.128906 20.847656 -56.945312 L 20.847656 -56.980469 C 21.34375 -58.25 21.871094 -59.480469 22.398438 -60.679688 C 23.171875 -62.371094 23.914062 -63.917969 24.6875 -65.328125 C 25.601562 -67.054688 26.519531 -68.5 27.398438 -69.695312 C 29.722656 -72.757812 32.117188 -75.367188 34.546875 -77.480469 C 35.289062 -78.113281 35.957031 -78.675781 36.589844 -79.132812 C 37.332031 -79.699219 38.035156 -80.15625 38.738281 -80.613281 C 40.289062 -81.5625 41.804688 -82.269531 43.246094 -82.726562 C 44.445312 -83.113281 45.535156 -83.289062 46.558594 -83.289062 C 46.945312 -83.289062 47.296875 -83.253906 47.648438 -83.21875 C 49.058594 -83.007812 50.183594 -82.445312 51.066406 -81.492188 C 51.875 -80.578125 52.4375 -79.378906 52.71875 -77.902344 C 52.96875 -76.597656 52.96875 -75.117188 52.757812 -73.464844 C 52.578125 -72.019531 52.226562 -70.433594 51.699219 -68.746094 Z M 51.699219 -68.746094 "/></g></g></g><g fill="#000000" fill-opacity="1"><g transform="translate(234.311591, 213.783119)"><g><path d="M 25.214844 -22.152344 C 25.003906 -22.117188 24.828125 -21.976562 24.6875 -21.800781 L 24.652344 -21.730469 L 24.617188 -21.695312 L 24.582031 -21.589844 L 24.476562 -21.449219 C 24.230469 -21.023438 23.984375 -20.566406 23.738281 -20.144531 C 22.679688 -18.453125 21.449219 -16.832031 20.074219 -15.355469 C 18.699219 -13.839844 17.117188 -12.574219 15.390625 -11.515625 C 14.542969 -11.023438 13.628906 -10.636719 12.714844 -10.390625 C 11.761719 -10.109375 10.917969 -10.144531 10.214844 -10.496094 C 9.894531 -10.707031 9.71875 -11.023438 9.683594 -11.445312 C 9.613281 -11.832031 9.648438 -12.289062 9.71875 -12.75 C 9.894531 -13.628906 10.144531 -14.542969 10.460938 -15.460938 C 10.707031 -16.164062 10.988281 -16.832031 11.269531 -17.539062 C 11.339844 -17.75 11.445312 -17.960938 11.515625 -18.171875 L 12.078125 -19.546875 C 12.253906 -20.003906 12.433594 -20.460938 12.609375 -20.917969 L 13.628906 -23.667969 C 13.769531 -24.054688 13.910156 -24.40625 14.015625 -24.792969 C 14.050781 -24.863281 14.085938 -24.96875 14.121094 -25.039062 C 14.15625 -25.214844 14.226562 -25.355469 14.261719 -25.53125 C 14.367188 -25.8125 14.472656 -26.132812 14.578125 -26.414062 C 14.578125 -26.484375 14.617188 -26.589844 14.652344 -26.660156 C 14.96875 -27.503906 15.109375 -28.386719 15.109375 -29.230469 C 15.039062 -29.722656 14.863281 -30.144531 14.472656 -30.429688 C 14.121094 -30.710938 13.664062 -30.851562 13.136719 -30.78125 C 12.855469 -30.746094 12.609375 -30.675781 12.398438 -30.570312 C 12.183594 -30.535156 11.9375 -30.464844 11.726562 -30.429688 C 11.902344 -30.921875 12.042969 -31.449219 12.113281 -31.941406 C 12.148438 -32.222656 12.183594 -32.503906 12.183594 -32.789062 C 12.183594 -32.929688 12.148438 -33.070312 12.148438 -33.210938 C 12.113281 -33.316406 12.113281 -33.421875 12.078125 -33.492188 C 12.078125 -33.527344 12.042969 -33.597656 12.042969 -33.632812 C 11.9375 -33.914062 11.761719 -34.125 11.480469 -34.230469 C 11.339844 -34.300781 11.199219 -34.335938 11.023438 -34.300781 C 10.917969 -34.300781 10.847656 -34.300781 10.777344 -34.265625 C 10.671875 -34.230469 10.601562 -34.230469 10.53125 -34.195312 C 10.214844 -34.019531 9.929688 -33.808594 9.71875 -33.5625 C 9.613281 -33.457031 9.542969 -33.351562 9.4375 -33.246094 C 9.4375 -33.246094 9.4375 -33.210938 9.402344 -33.210938 C 9.367188 -33.175781 9.332031 -33.140625 9.296875 -33.070312 C 9.261719 -33 9.191406 -32.929688 9.121094 -32.824219 C 8.734375 -32.328125 8.453125 -31.765625 8.277344 -31.203125 C 8.171875 -30.886719 8.136719 -30.605469 8.171875 -30.324219 C 8.171875 -30.003906 8.242188 -29.757812 8.382812 -29.511719 C 8.59375 -29.089844 8.945312 -28.773438 9.367188 -28.597656 C 9.367188 -28.5625 9.367188 -28.527344 9.332031 -28.527344 C 9.332031 -28.492188 9.296875 -28.457031 9.296875 -28.421875 C 9.050781 -27.925781 8.769531 -27.46875 8.488281 -26.976562 C 7.289062 -25.144531 5.882812 -23.417969 4.226562 -21.871094 L 4.261719 -21.871094 C 4.085938 -21.730469 4.050781 -21.554688 4.050781 -21.378906 C 4.050781 -21.234375 4.121094 -21.09375 4.296875 -21.023438 C 4.472656 -20.988281 4.613281 -21.023438 4.789062 -21.128906 C 4.859375 -21.164062 4.894531 -21.199219 4.929688 -21.234375 C 4.964844 -21.269531 4.964844 -21.269531 5 -21.269531 L 5.175781 -21.449219 C 5.597656 -21.871094 6.058594 -22.292969 6.480469 -22.714844 C 7.359375 -23.597656 8.171875 -24.546875 8.945312 -25.53125 C 9.613281 -26.414062 10.214844 -27.328125 10.777344 -28.316406 C 10.917969 -28.316406 11.09375 -28.316406 11.269531 -28.316406 C 11.550781 -28.316406 11.867188 -28.351562 12.148438 -28.421875 C 12.253906 -28.457031 12.363281 -28.457031 12.46875 -28.492188 C 12.503906 -28.492188 12.539062 -28.492188 12.574219 -28.527344 L 12.785156 -28.5625 C 12.785156 -28.527344 12.785156 -28.457031 12.75 -28.421875 C 12.75 -28.316406 12.75 -28.210938 12.714844 -28.105469 C 12.644531 -27.890625 12.574219 -27.644531 12.503906 -27.433594 C 12.324219 -26.976562 12.148438 -26.519531 11.9375 -26.097656 C 11.550781 -25.179688 11.164062 -24.300781 10.742188 -23.382812 C 10.601562 -23.066406 10.460938 -22.75 10.320312 -22.433594 C 10.070312 -21.835938 9.789062 -21.269531 9.542969 -20.671875 C 9.191406 -19.757812 8.839844 -18.839844 8.523438 -17.925781 C 7.890625 -16.058594 7.464844 -14.191406 7.324219 -12.324219 C 7.324219 -11.832031 7.324219 -11.375 7.394531 -10.917969 C 7.464844 -10.460938 7.605469 -10.035156 7.851562 -9.648438 C 8.066406 -9.261719 8.382812 -8.945312 8.769531 -8.699219 C 9.15625 -8.453125 9.613281 -8.3125 10.070312 -8.242188 C 11.058594 -8.136719 12.007812 -8.242188 12.996094 -8.558594 C 13.980469 -8.875 14.933594 -9.296875 15.8125 -9.824219 C 17.609375 -10.917969 19.230469 -12.21875 20.636719 -13.804688 C 22.046875 -15.355469 23.277344 -16.976562 24.335938 -18.734375 C 24.582031 -19.160156 24.828125 -19.617188 25.074219 -20.074219 C 25.214844 -20.285156 25.320312 -20.496094 25.460938 -20.707031 L 25.601562 -21.058594 L 25.707031 -21.234375 L 25.742188 -21.304688 L 25.777344 -21.34375 C 25.777344 -21.34375 25.777344 -21.378906 25.777344 -21.378906 C 25.777344 -21.378906 25.777344 -21.414062 25.8125 -21.414062 C 25.886719 -21.625 25.851562 -21.835938 25.742188 -21.976562 C 25.601562 -22.117188 25.425781 -22.1875 25.214844 -22.152344 Z M 10.285156 -31.484375 C 10.320312 -31.589844 10.390625 -31.695312 10.425781 -31.765625 C 10.425781 -31.625 10.390625 -31.484375 10.390625 -31.34375 C 10.320312 -31.132812 10.285156 -30.886719 10.214844 -30.675781 C 10.144531 -30.710938 10.109375 -30.78125 10.109375 -30.886719 C 10.109375 -31.0625 10.179688 -31.273438 10.285156 -31.484375 Z M 10.285156 -31.484375 "/></g></g></g><g fill="#000000" fill-opacity="1"><g transform="translate(254.70141, 213.783119)"><g><path d="M 20.496094 -21.199219 C 20.425781 -21.378906 20.285156 -21.449219 20.074219 -21.449219 C 19.863281 -21.449219 19.546875 -21.414062 19.050781 -21.34375 C 18.347656 -21.199219 17.082031 -21.023438 15.214844 -20.847656 C 15.953125 -22.75 16.339844 -24.757812 16.339844 -26.835938 C 16.269531 -28.386719 15.707031 -29.582031 14.652344 -30.464844 C 12.960938 -31.695312 10.742188 -31.449219 7.960938 -29.652344 C 6.375 -28.597656 5.035156 -27.292969 3.910156 -25.777344 C 2.816406 -24.265625 2.394531 -22.996094 2.675781 -21.941406 C 2.957031 -21.34375 3.238281 -20.917969 3.558594 -20.636719 L 3.628906 -20.566406 C 3.453125 -19.617188 3.238281 -18.523438 3.0625 -17.257812 C 2.816406 -15.707031 2.816406 -14.191406 3.097656 -12.75 C 3.453125 -10.953125 4.121094 -9.929688 5.175781 -9.71875 C 5.316406 -9.683594 5.457031 -9.683594 5.597656 -9.683594 C 6.515625 -9.683594 7.640625 -10.214844 8.980469 -11.304688 C 10.496094 -12.679688 11.761719 -14.15625 12.75 -15.671875 C 13.734375 -17.1875 14.402344 -18.417969 14.757812 -19.335938 C 15.25 -19.40625 15.882812 -19.511719 16.691406 -19.652344 C 17.539062 -19.828125 18.3125 -20.003906 19.015625 -20.214844 C 19.757812 -20.425781 20.214844 -20.636719 20.425781 -20.882812 C 20.496094 -20.988281 20.53125 -21.09375 20.496094 -21.199219 Z M 6.796875 -21.976562 C 7.253906 -23.03125 7.640625 -23.773438 7.960938 -24.265625 C 8.3125 -24.757812 8.59375 -25.039062 8.804688 -25.179688 C 9.050781 -25.320312 9.296875 -25.390625 9.507812 -25.390625 C 9.648438 -25.425781 9.789062 -25.460938 9.964844 -25.496094 L 10.144531 -25.53125 L 10.070312 -25.707031 C 9.894531 -26.203125 9.4375 -26.484375 8.769531 -26.519531 C 7.816406 -26.519531 6.9375 -25.992188 6.058594 -24.933594 C 5.8125 -24.617188 5.527344 -24.195312 5.246094 -23.703125 C 5.421875 -24.089844 5.671875 -24.476562 5.953125 -24.863281 C 6.199219 -25.320312 6.9375 -26.097656 8.136719 -27.152344 C 8.769531 -27.644531 9.367188 -28.03125 9.894531 -28.28125 C 11.761719 -29.125 13.136719 -29.089844 14.015625 -28.175781 C 14.578125 -27.46875 14.722656 -26.34375 14.4375 -24.757812 C 14.15625 -23.207031 13.769531 -21.871094 13.277344 -20.707031 C 12.324219 -20.636719 11.128906 -20.742188 9.753906 -20.988281 C 8.347656 -21.269531 7.359375 -21.589844 6.796875 -21.976562 Z M 5.988281 -19.40625 C 6.832031 -19.050781 7.851562 -18.839844 9.121094 -18.804688 C 10.390625 -18.734375 11.480469 -18.804688 12.433594 -18.945312 C 11.304688 -16.269531 9.753906 -14.121094 7.851562 -12.503906 C 7.21875 -12.007812 6.726562 -11.796875 6.375 -11.867188 C 5.988281 -11.9375 5.671875 -12.363281 5.492188 -13.136719 C 5.316406 -13.804688 5.28125 -14.472656 5.28125 -15.179688 C 5.351562 -16.339844 5.457031 -17.257812 5.597656 -17.890625 C 5.707031 -18.523438 5.847656 -19.050781 5.988281 -19.40625 Z M 5.988281 -19.40625 "/></g></g></g><g fill="#000000" fill-opacity="1"><g transform="translate(271.95703, 213.783119)"><g><path d="M 38.035156 -61.136719 L 43.527344 -61.59375 L 43.5625 -61.59375 C 43.597656 -61.59375 43.597656 -61.628906 43.597656 -61.628906 C 43.777344 -61.738281 43.953125 -61.878906 44.09375 -62.054688 C 44.128906 -62.125 44.128906 -62.160156 44.164062 -62.230469 C 44.164062 -62.335938 44.164062 -62.371094 44.128906 -62.441406 C 44.058594 -62.511719 43.988281 -62.582031 43.882812 -62.617188 C 43.527344 -62.722656 43.210938 -62.757812 42.859375 -62.757812 C 42.824219 -62.757812 42.789062 -62.757812 42.753906 -62.757812 C 42.121094 -62.757812 41.449219 -62.722656 40.816406 -62.6875 C 40.710938 -62.652344 40.605469 -62.652344 40.5 -62.652344 L 40.5 -62.6875 L 22.222656 -61.628906 L 25.425781 -74.273438 L 26.167969 -77.480469 L 26.519531 -79.0625 C 26.625 -79.414062 26.695312 -79.769531 26.730469 -80.085938 C 26.765625 -80.296875 26.800781 -80.472656 26.835938 -80.683594 C 27.082031 -81.738281 27.222656 -82.796875 27.292969 -83.886719 C 27.328125 -84.417969 27.292969 -84.945312 27.117188 -85.4375 C 27.046875 -85.683594 26.871094 -85.894531 26.660156 -86.070312 C 26.449219 -86.210938 26.167969 -86.28125 25.851562 -86.28125 C 25.53125 -86.246094 25.25 -86.140625 24.96875 -85.964844 C 24.6875 -85.789062 24.441406 -85.578125 24.265625 -85.332031 C 23.878906 -84.839844 23.597656 -84.347656 23.347656 -83.816406 L 23.03125 -83.007812 L 22.890625 -82.621094 L 22.75 -82.199219 C 22.574219 -81.667969 22.433594 -81.140625 22.257812 -80.613281 C 21.730469 -78.78125 21.234375 -76.949219 20.847656 -75.117188 C 20.777344 -74.800781 20.707031 -74.519531 20.636719 -74.203125 L 17.714844 -61.558594 C 17.539062 -61.523438 17.363281 -61.523438 17.1875 -61.488281 C 17.1875 -61.488281 17.152344 -61.488281 17.117188 -61.488281 L 16.375 -61.382812 L 14.898438 -61.207031 L 14.15625 -61.136719 L 13.417969 -61.101562 L 11.9375 -61.03125 C 9.964844 -60.925781 7.996094 -60.785156 5.988281 -60.644531 C 2.042969 -60.328125 -1.9375 -59.976562 -5.917969 -59.589844 C -6.832031 -59.480469 -7.78125 -59.375 -8.699219 -59.304688 C -11.726562 -58.988281 -14.792969 -58.671875 -17.820312 -58.320312 C -21.800781 -57.863281 -25.8125 -57.15625 -29.828125 -56.242188 L -29.828125 -55.785156 C -28.457031 -55.890625 -27.046875 -56.03125 -25.671875 -56.136719 C -23.101562 -56.382812 -20.566406 -56.59375 -18.03125 -56.804688 L -6.199219 -57.828125 L 5.636719 -58.8125 L 11.515625 -59.304688 C 11.832031 -59.304688 12.148438 -59.339844 12.46875 -59.375 C 13.136719 -59.445312 13.804688 -59.480469 14.472656 -59.519531 C 14.507812 -59.554688 14.542969 -59.554688 14.542969 -59.554688 C 15.425781 -59.625 16.304688 -59.660156 17.152344 -59.625 C 16.941406 -58.285156 16.691406 -56.945312 16.375 -55.574219 L 15.460938 -51.277344 L 13.664062 -42.613281 L 10.070312 -25.355469 L 9.15625 -21.023438 C 8.839844 -19.582031 8.558594 -18.171875 8.277344 -16.726562 L 6.621094 -8.066406 C 6.550781 -7.605469 6.445312 -7.113281 6.375 -6.65625 C 5.953125 -4.261719 5.457031 -1.867188 4.929688 0.527344 C 4.578125 1.972656 4.191406 3.417969 3.769531 4.824219 C 3.523438 5.527344 3.273438 6.269531 3.027344 6.972656 C 2.957031 7.148438 2.886719 7.324219 2.851562 7.535156 C 2.816406 7.746094 2.816406 7.960938 2.921875 8.171875 C 3.027344 8.382812 3.203125 8.488281 3.417969 8.558594 C 3.59375 8.628906 3.804688 8.664062 4.050781 8.59375 C 4.332031 8.523438 4.542969 8.382812 4.683594 8.171875 C 4.859375 7.996094 4.964844 7.816406 5.070312 7.640625 C 5.246094 7.289062 5.421875 6.9375 5.5625 6.585938 C 5.847656 5.847656 6.128906 5.140625 6.339844 4.402344 C 6.761719 2.992188 7.113281 1.550781 7.429688 0.140625 C 7.429688 0.140625 7.429688 0.105469 7.429688 0.0703125 C 8.066406 -2.816406 8.664062 -5.671875 9.191406 -8.558594 L 10.847656 -17.1875 C 10.917969 -17.644531 10.988281 -18.101562 11.09375 -18.523438 C 11.269531 -19.546875 11.445312 -20.53125 11.65625 -21.519531 L 12.785156 -25.8125 L 17.292969 -43.070312 L 21.871094 -60.152344 L 32.613281 -60.785156 C 32.859375 -60.785156 33.140625 -60.820312 33.421875 -60.820312 C 34.972656 -60.925781 36.484375 -61.03125 38.035156 -61.136719 Z M 18.875 -54.9375 L 18.699219 -54.410156 C 18.875 -55.152344 19.015625 -55.925781 19.160156 -56.664062 C 19.195312 -56.804688 19.230469 -56.980469 19.265625 -57.121094 L 19.546875 -58.601562 C 19.582031 -58.847656 19.652344 -59.058594 19.6875 -59.304688 C 19.757812 -59.519531 19.792969 -59.730469 19.863281 -59.90625 C 19.96875 -59.941406 20.039062 -59.941406 20.144531 -59.976562 L 19.863281 -58.917969 C 19.828125 -58.777344 19.792969 -58.671875 19.792969 -58.566406 C 19.6875 -58.25 19.617188 -57.933594 19.511719 -57.582031 C 19.40625 -57.265625 19.300781 -56.910156 19.230469 -56.59375 C 19.195312 -56.488281 19.195312 -56.382812 19.160156 -56.277344 C 19.050781 -55.820312 18.980469 -55.398438 18.875 -54.9375 Z M 21.304688 -64.589844 L 20.53125 -61.773438 L 20.320312 -61.773438 L 20.777344 -64.132812 C 20.882812 -64.695312 21.023438 -65.257812 21.164062 -65.820312 C 21.234375 -66.136719 21.304688 -66.421875 21.378906 -66.738281 L 22.539062 -71.949219 L 23.136719 -74.554688 C 23.171875 -74.835938 23.242188 -75.082031 23.3125 -75.367188 C 23.417969 -75.964844 23.558594 -76.5625 23.738281 -77.160156 C 23.773438 -77.335938 23.808594 -77.515625 23.878906 -77.691406 C 23.949219 -77.9375 24.019531 -78.21875 24.054688 -78.5 C 24.089844 -78.605469 24.089844 -78.710938 24.125 -78.816406 L 24.125 -78.921875 C 24.125 -78.957031 24.125 -78.957031 24.125 -78.957031 C 24.125 -78.957031 24.125 -78.957031 24.125 -78.992188 L 24.160156 -79.132812 L 24.265625 -79.769531 C 24.300781 -79.945312 24.335938 -80.085938 24.335938 -80.226562 C 24.476562 -80.964844 24.652344 -81.667969 24.792969 -82.375 L 24.828125 -82.375 C 24.898438 -82.550781 24.96875 -82.726562 25.039062 -82.902344 C 25.144531 -83.21875 25.285156 -83.570312 25.425781 -83.886719 C 25.425781 -83.886719 25.425781 -83.921875 25.425781 -83.921875 C 25.425781 -83.921875 25.425781 -83.886719 25.425781 -83.886719 C 25.425781 -83.640625 25.425781 -83.394531 25.425781 -83.148438 C 25.390625 -82.621094 25.355469 -82.128906 25.285156 -81.597656 L 25.039062 -80.050781 C 24.898438 -79.097656 24.722656 -78.148438 24.511719 -77.195312 C 24.511719 -77.125 24.476562 -77.054688 24.476562 -76.984375 C 24.230469 -75.929688 24.019531 -74.90625 23.738281 -73.886719 L 22.117188 -67.6875 Z M 25.425781 -84.558594 C 25.425781 -84.558594 25.425781 -84.59375 25.425781 -84.59375 C 25.425781 -84.59375 25.425781 -84.59375 25.425781 -84.558594 Z M 25.425781 -84.558594 "/></g></g></g><g fill="#000000" fill-opacity="1"><g transform="translate(289.071787, 213.783119)"><g><path d="M 8.558594 -12.644531 C 8.628906 -12.644531 8.664062 -12.644531 8.734375 -12.644531 C 8.769531 -12.644531 8.804688 -12.644531 8.839844 -12.644531 C 10.25 -12.609375 11.65625 -12.890625 13.066406 -13.453125 C 14.4375 -14.015625 15.777344 -14.722656 17.046875 -15.566406 C 18.3125 -16.410156 19.546875 -17.328125 20.742188 -18.277344 C 21.34375 -18.734375 21.90625 -19.230469 22.503906 -19.722656 C 22.925781 -20.074219 23.3125 -20.425781 23.703125 -20.777344 C 23.84375 -20.882812 23.984375 -21.023438 24.089844 -21.128906 L 24.230469 -21.269531 C 24.230469 -21.304688 24.230469 -21.34375 24.265625 -21.414062 C 24.265625 -21.414062 24.265625 -21.449219 24.230469 -21.484375 C 24.230469 -21.554688 24.195312 -21.589844 24.125 -21.625 C 24.019531 -21.695312 23.878906 -21.695312 23.773438 -21.660156 C 23.523438 -21.625 23.3125 -21.449219 23.171875 -21.199219 C 23.136719 -21.199219 23.136719 -21.164062 23.101562 -21.164062 C 22.117188 -20.425781 21.128906 -19.722656 20.109375 -19.050781 C 19.050781 -18.347656 17.996094 -17.714844 16.90625 -17.082031 C 15.847656 -16.445312 14.722656 -15.917969 13.59375 -15.53125 C 12.433594 -15.144531 11.304688 -14.898438 10.144531 -14.792969 C 9.472656 -14.792969 8.839844 -14.863281 8.207031 -15.003906 C 7.890625 -15.074219 7.605469 -15.179688 7.359375 -15.320312 C 7.113281 -15.496094 6.902344 -15.671875 6.691406 -15.882812 C 6.339844 -16.375 6.164062 -16.90625 6.128906 -17.574219 C 6.058594 -18.207031 6.128906 -18.839844 6.375 -19.476562 C 6.515625 -19.792969 6.691406 -20.074219 6.902344 -20.355469 C 7.148438 -20.636719 7.394531 -20.882812 7.675781 -21.09375 C 8.242188 -21.554688 8.875 -21.941406 9.542969 -22.257812 C 10.917969 -22.925781 12.183594 -23.808594 13.3125 -24.898438 C 14.4375 -26.027344 15.320312 -27.292969 15.917969 -28.703125 C 16.09375 -29.054688 16.164062 -29.441406 16.164062 -29.828125 C 16.128906 -30.25 15.953125 -30.570312 15.636719 -30.78125 C 15.039062 -31.203125 14.367188 -31.34375 13.558594 -31.167969 C 13.171875 -31.0625 12.785156 -30.921875 12.433594 -30.746094 C 12.078125 -30.570312 11.761719 -30.359375 11.445312 -30.109375 C 10.8125 -29.6875 10.179688 -29.195312 9.613281 -28.667969 C 8.488281 -27.609375 7.464844 -26.449219 6.585938 -25.179688 C 5.707031 -23.949219 4.964844 -22.644531 4.296875 -21.34375 C 3.945312 -20.636719 3.664062 -19.96875 3.488281 -19.265625 C 3.34375 -18.523438 3.273438 -17.855469 3.308594 -17.152344 C 3.382812 -16.480469 3.558594 -15.847656 3.839844 -15.25 C 4.15625 -14.6875 4.578125 -14.191406 5.070312 -13.804688 C 5.597656 -13.417969 6.199219 -13.136719 6.832031 -12.960938 C 6.9375 -12.925781 7.042969 -12.890625 7.148438 -12.890625 C 7.21875 -12.855469 7.253906 -12.855469 7.324219 -12.855469 C 7.359375 -12.820312 7.429688 -12.820312 7.5 -12.820312 C 7.605469 -12.785156 7.710938 -12.75 7.816406 -12.75 L 8.3125 -12.679688 Z M 10.425781 -24.546875 C 10.320312 -24.476562 10.214844 -24.441406 10.070312 -24.40625 C 9.929688 -24.335938 9.789062 -24.300781 9.648438 -24.265625 C 9.507812 -24.230469 9.402344 -24.195312 9.332031 -24.160156 C 9.226562 -24.160156 9.191406 -24.160156 9.191406 -24.160156 C 9.4375 -24.582031 9.683594 -25.003906 10 -25.390625 C 10.320312 -25.777344 10.601562 -26.097656 10.8125 -26.308594 C 10.882812 -26.378906 10.953125 -26.449219 10.988281 -26.519531 C 11.339844 -26.90625 11.726562 -27.257812 12.148438 -27.609375 C 12.324219 -27.75 12.539062 -27.925781 12.75 -28.070312 C 12.820312 -28.105469 12.855469 -28.140625 12.925781 -28.175781 C 12.960938 -28.210938 13.03125 -28.28125 13.101562 -28.316406 C 13.101562 -28.316406 13.136719 -28.351562 13.171875 -28.351562 C 13.207031 -28.386719 13.242188 -28.421875 13.277344 -28.457031 C 13.3125 -28.457031 13.347656 -28.492188 13.347656 -28.492188 C 13.417969 -28.492188 13.453125 -28.492188 13.523438 -28.492188 C 13.59375 -28.492188 13.628906 -28.457031 13.664062 -28.386719 C 13.699219 -28.351562 13.699219 -28.28125 13.664062 -28.210938 C 13.664062 -28.175781 13.628906 -28.105469 13.628906 -28.070312 C 13.628906 -27.996094 13.59375 -27.925781 13.558594 -27.855469 C 13.417969 -27.398438 13.171875 -26.941406 12.890625 -26.554688 C 12.21875 -25.671875 11.410156 -25.003906 10.460938 -24.546875 Z M 10.425781 -24.546875 "/></g></g></g><g fill="#000000" fill-opacity="1"><g transform="translate(308.229046, 213.783119)"><g><path d="M 3.0625 -21.164062 L 2.429688 -20.636719 L 1.796875 -20.144531 C 1.65625 -20.003906 1.550781 -19.898438 1.410156 -19.792969 C 1.339844 -19.722656 1.269531 -19.652344 1.199219 -19.617188 C 1.164062 -19.582031 1.164062 -19.582031 1.164062 -19.582031 C 0.949219 -19.40625 0.773438 -19.230469 0.597656 -19.015625 C 0.175781 -18.628906 -0.140625 -18.171875 -0.386719 -17.679688 C -0.632812 -17.152344 -0.773438 -16.65625 -0.773438 -16.128906 C -0.808594 -15.636719 -0.703125 -15.144531 -0.492188 -14.722656 C -0.246094 -14.296875 0.0703125 -13.980469 0.492188 -13.734375 C 1.375 -13.347656 2.324219 -13.207031 3.308594 -13.277344 C 5.316406 -13.382812 7.289062 -13.769531 9.261719 -14.4375 C 9.964844 -14.617188 10.636719 -14.828125 11.339844 -15.003906 C 12.609375 -15.320312 13.875 -15.707031 15.144531 -16.128906 C 15.496094 -16.269531 15.8125 -16.375 16.164062 -16.515625 C 16.796875 -16.726562 17.433594 -16.976562 18.066406 -17.222656 C 19.015625 -17.574219 20.003906 -17.960938 20.953125 -18.382812 C 21.90625 -18.769531 22.855469 -19.230469 23.808594 -19.6875 C 24.300781 -19.933594 24.757812 -20.179688 25.214844 -20.496094 C 25.425781 -20.636719 25.671875 -20.777344 25.851562 -20.988281 C 25.957031 -21.09375 26.0625 -21.199219 26.132812 -21.378906 C 26.132812 -21.449219 26.132812 -21.519531 26.097656 -21.589844 C 26.097656 -21.625 26.0625 -21.660156 26.0625 -21.660156 L 26.027344 -21.695312 C 26.027344 -21.730469 25.992188 -21.730469 25.992188 -21.730469 C 25.957031 -21.730469 25.957031 -21.730469 25.957031 -21.765625 L 25.921875 -21.765625 C 25.496094 -21.589844 25.074219 -21.378906 24.652344 -21.199219 C 24.125 -20.953125 23.558594 -20.742188 23.03125 -20.496094 C 22.082031 -20.109375 21.128906 -19.722656 20.144531 -19.335938 C 18.207031 -18.628906 16.269531 -17.996094 14.332031 -17.433594 C 13.347656 -17.1875 12.363281 -16.90625 11.375 -16.65625 C 11.199219 -16.621094 11.058594 -16.585938 10.882812 -16.515625 C 10.070312 -16.304688 9.261719 -16.128906 8.453125 -15.988281 C 7.464844 -15.8125 6.515625 -15.707031 5.527344 -15.671875 C 5.070312 -15.671875 4.578125 -15.671875 4.121094 -15.671875 C 4.085938 -15.671875 4.050781 -15.671875 4.050781 -15.671875 C 3.59375 -15.707031 3.167969 -15.742188 2.746094 -15.8125 C 2.535156 -15.882812 2.359375 -15.953125 2.21875 -16.058594 C 2.042969 -16.199219 1.972656 -16.339844 1.9375 -16.515625 C 1.902344 -16.691406 1.9375 -16.90625 2.042969 -17.082031 C 2.148438 -17.292969 2.289062 -17.503906 2.464844 -17.679688 C 3.203125 -18.453125 3.980469 -19.125 4.859375 -19.722656 C 5.707031 -20.320312 6.621094 -20.847656 7.535156 -21.269531 C 8.488281 -21.695312 9.4375 -22.046875 10.390625 -22.328125 C 10.882812 -22.46875 11.375 -22.574219 11.867188 -22.679688 C 12.363281 -22.820312 12.75 -22.820312 13.101562 -22.679688 C 13.382812 -22.46875 13.523438 -22.152344 13.453125 -21.695312 L 13.453125 -21.484375 C 13.453125 -21.414062 13.453125 -21.34375 13.488281 -21.269531 C 13.523438 -21.128906 13.558594 -20.988281 13.664062 -20.882812 C 13.769531 -20.777344 13.910156 -20.707031 14.050781 -20.671875 C 14.226562 -20.636719 14.402344 -20.636719 14.542969 -20.671875 C 14.863281 -20.777344 15.109375 -20.953125 15.355469 -21.128906 C 15.601562 -21.304688 15.8125 -21.519531 15.988281 -21.765625 C 16.304688 -22.257812 16.515625 -22.785156 16.550781 -23.347656 C 16.550781 -23.914062 16.339844 -24.371094 15.953125 -24.6875 C 15.566406 -25.003906 15.109375 -25.179688 14.617188 -25.25 C 14.226562 -25.285156 13.839844 -25.285156 13.453125 -25.285156 C 13.347656 -25.285156 13.242188 -25.285156 13.136719 -25.285156 L 12.363281 -25.214844 C 12.21875 -25.214844 12.042969 -25.179688 11.902344 -25.144531 C 11.796875 -25.144531 11.726562 -25.144531 11.621094 -25.109375 C 10.601562 -24.96875 9.613281 -24.722656 8.628906 -24.335938 C 6.621094 -23.558594 4.789062 -22.503906 3.0625 -21.164062 Z M 3.0625 -21.164062 "/></g></g></g><g fill="#000000" fill-opacity="1"><g transform="translate(329.111883, 213.783119)"><g><path d="M 38.035156 -61.136719 L 43.527344 -61.59375 L 43.5625 -61.59375 C 43.597656 -61.59375 43.597656 -61.628906 43.597656 -61.628906 C 43.777344 -61.738281 43.953125 -61.878906 44.09375 -62.054688 C 44.128906 -62.125 44.128906 -62.160156 44.164062 -62.230469 C 44.164062 -62.335938 44.164062 -62.371094 44.128906 -62.441406 C 44.058594 -62.511719 43.988281 -62.582031 43.882812 -62.617188 C 43.527344 -62.722656 43.210938 -62.757812 42.859375 -62.757812 C 42.824219 -62.757812 42.789062 -62.757812 42.753906 -62.757812 C 42.121094 -62.757812 41.449219 -62.722656 40.816406 -62.6875 C 40.710938 -62.652344 40.605469 -62.652344 40.5 -62.652344 L 40.5 -62.6875 L 22.222656 -61.628906 L 25.425781 -74.273438 L 26.167969 -77.480469 L 26.519531 -79.0625 C 26.625 -79.414062 26.695312 -79.769531 26.730469 -80.085938 C 26.765625 -80.296875 26.800781 -80.472656 26.835938 -80.683594 C 27.082031 -81.738281 27.222656 -82.796875 27.292969 -83.886719 C 27.328125 -84.417969 27.292969 -84.945312 27.117188 -85.4375 C 27.046875 -85.683594 26.871094 -85.894531 26.660156 -86.070312 C 26.449219 -86.210938 26.167969 -86.28125 25.851562 -86.28125 C 25.53125 -86.246094 25.25 -86.140625 24.96875 -85.964844 C 24.6875 -85.789062 24.441406 -85.578125 24.265625 -85.332031 C 23.878906 -84.839844 23.597656 -84.347656 23.347656 -83.816406 L 23.03125 -83.007812 L 22.890625 -82.621094 L 22.75 -82.199219 C 22.574219 -81.667969 22.433594 -81.140625 22.257812 -80.613281 C 21.730469 -78.78125 21.234375 -76.949219 20.847656 -75.117188 C 20.777344 -74.800781 20.707031 -74.519531 20.636719 -74.203125 L 17.714844 -61.558594 C 17.539062 -61.523438 17.363281 -61.523438 17.1875 -61.488281 C 17.1875 -61.488281 17.152344 -61.488281 17.117188 -61.488281 L 16.375 -61.382812 L 14.898438 -61.207031 L 14.15625 -61.136719 L 13.417969 -61.101562 L 11.9375 -61.03125 C 9.964844 -60.925781 7.996094 -60.785156 5.988281 -60.644531 C 2.042969 -60.328125 -1.9375 -59.976562 -5.917969 -59.589844 C -6.832031 -59.480469 -7.78125 -59.375 -8.699219 -59.304688 C -11.726562 -58.988281 -14.792969 -58.671875 -17.820312 -58.320312 C -21.800781 -57.863281 -25.8125 -57.15625 -29.828125 -56.242188 L -29.828125 -55.785156 C -28.457031 -55.890625 -27.046875 -56.03125 -25.671875 -56.136719 C -23.101562 -56.382812 -20.566406 -56.59375 -18.03125 -56.804688 L -6.199219 -57.828125 L 5.636719 -58.8125 L 11.515625 -59.304688 C 11.832031 -59.304688 12.148438 -59.339844 12.46875 -59.375 C 13.136719 -59.445312 13.804688 -59.480469 14.472656 -59.519531 C 14.507812 -59.554688 14.542969 -59.554688 14.542969 -59.554688 C 15.425781 -59.625 16.304688 -59.660156 17.152344 -59.625 C 16.941406 -58.285156 16.691406 -56.945312 16.375 -55.574219 L 15.460938 -51.277344 L 13.664062 -42.613281 L 10.070312 -25.355469 L 9.15625 -21.023438 C 8.839844 -19.582031 8.558594 -18.171875 8.277344 -16.726562 L 6.621094 -8.066406 C 6.550781 -7.605469 6.445312 -7.113281 6.375 -6.65625 C 5.953125 -4.261719 5.457031 -1.867188 4.929688 0.527344 C 4.578125 1.972656 4.191406 3.417969 3.769531 4.824219 C 3.523438 5.527344 3.273438 6.269531 3.027344 6.972656 C 2.957031 7.148438 2.886719 7.324219 2.851562 7.535156 C 2.816406 7.746094 2.816406 7.960938 2.921875 8.171875 C 3.027344 8.382812 3.203125 8.488281 3.417969 8.558594 C 3.59375 8.628906 3.804688 8.664062 4.050781 8.59375 C 4.332031 8.523438 4.542969 8.382812 4.683594 8.171875 C 4.859375 7.996094 4.964844 7.816406 5.070312 7.640625 C 5.246094 7.289062 5.421875 6.9375 5.5625 6.585938 C 5.847656 5.847656 6.128906 5.140625 6.339844 4.402344 C 6.761719 2.992188 7.113281 1.550781 7.429688 0.140625 C 7.429688 0.140625 7.429688 0.105469 7.429688 0.0703125 C 8.066406 -2.816406 8.664062 -5.671875 9.191406 -8.558594 L 10.847656 -17.1875 C 10.917969 -17.644531 10.988281 -18.101562 11.09375 -18.523438 C 11.269531 -19.546875 11.445312 -20.53125 11.65625 -21.519531 L 12.785156 -25.8125 L 17.292969 -43.070312 L 21.871094 -60.152344 L 32.613281 -60.785156 C 32.859375 -60.785156 33.140625 -60.820312 33.421875 -60.820312 C 34.972656 -60.925781 36.484375 -61.03125 38.035156 -61.136719 Z M 18.875 -54.9375 L 18.699219 -54.410156 C 18.875 -55.152344 19.015625 -55.925781 19.160156 -56.664062 C 19.195312 -56.804688 19.230469 -56.980469 19.265625 -57.121094 L 19.546875 -58.601562 C 19.582031 -58.847656 19.652344 -59.058594 19.6875 -59.304688 C 19.757812 -59.519531 19.792969 -59.730469 19.863281 -59.90625 C 19.96875 -59.941406 20.039062 -59.941406 20.144531 -59.976562 L 19.863281 -58.917969 C 19.828125 -58.777344 19.792969 -58.671875 19.792969 -58.566406 C 19.6875 -58.25 19.617188 -57.933594 19.511719 -57.582031 C 19.40625 -57.265625 19.300781 -56.910156 19.230469 -56.59375 C 19.195312 -56.488281 19.195312 -56.382812 19.160156 -56.277344 C 19.050781 -55.820312 18.980469 -55.398438 18.875 -54.9375 Z M 21.304688 -64.589844 L 20.53125 -61.773438 L 20.320312 -61.773438 L 20.777344 -64.132812 C 20.882812 -64.695312 21.023438 -65.257812 21.164062 -65.820312 C 21.234375 -66.136719 21.304688 -66.421875 21.378906 -66.738281 L 22.539062 -71.949219 L 23.136719 -74.554688 C 23.171875 -74.835938 23.242188 -75.082031 23.3125 -75.367188 C 23.417969 -75.964844 23.558594 -76.5625 23.738281 -77.160156 C 23.773438 -77.335938 23.808594 -77.515625 23.878906 -77.691406 C 23.949219 -77.9375 24.019531 -78.21875 24.054688 -78.5 C 24.089844 -78.605469 24.089844 -78.710938 24.125 -78.816406 L 24.125 -78.921875 C 24.125 -78.957031 24.125 -78.957031 24.125 -78.957031 C 24.125 -78.957031 24.125 -78.957031 24.125 -78.992188 L 24.160156 -79.132812 L 24.265625 -79.769531 C 24.300781 -79.945312 24.335938 -80.085938 24.335938 -80.226562 C 24.476562 -80.964844 24.652344 -81.667969 24.792969 -82.375 L 24.828125 -82.375 C 24.898438 -82.550781 24.96875 -82.726562 25.039062 -82.902344 C 25.144531 -83.21875 25.285156 -83.570312 25.425781 -83.886719 C 25.425781 -83.886719 25.425781 -83.921875 25.425781 -83.921875 C 25.425781 -83.921875 25.425781 -83.886719 25.425781 -83.886719 C 25.425781 -83.640625 25.425781 -83.394531 25.425781 -83.148438 C 25.390625 -82.621094 25.355469 -82.128906 25.285156 -81.597656 L 25.039062 -80.050781 C 24.898438 -79.097656 24.722656 -78.148438 24.511719 -77.195312 C 24.511719 -77.125 24.476562 -77.054688 24.476562 -76.984375 C 24.230469 -75.929688 24.019531 -74.90625 23.738281 -73.886719 L 22.117188 -67.6875 Z M 25.425781 -84.558594 C 25.425781 -84.558594 25.425781 -84.59375 25.425781 -84.59375 C 25.425781 -84.59375 25.425781 -84.59375 25.425781 -84.558594 Z M 25.425781 -84.558594 "/></g></g></g></svg>