<svg xmlns="http://www.w3.org/2000/svg" xmlns:xlink="http://www.w3.org/1999/xlink" width="500" zoomAndPan="magnify" viewBox="0 0 375 374.999991" height="500" preserveAspectRatio="xMidYMid meet" version="1.0"><defs><clipPath id="5dae1878a0"><path d="M 17.582031 3.28125 L 282.332031 3.28125 L 282.332031 375 L 17.582031 375 Z M 17.582031 3.28125 " clip-rule="nonzero"/></clipPath></defs><g clip-path="url(#5dae1878a0)"><path stroke-linecap="butt" transform="matrix(0.0227815, 0, 0, -0.0227665, 19.662625, 374.039565)" fill="none" stroke-linejoin="miter" d="M 1991.979145 1803.489184 C 1305.259365 1803.489184 618.539585 1803.489184 275.093962 2087.967204 C -68.180196 2372.273645 -68.180196 2941.058106 360.998234 3311.154058 C 790.176663 3681.421589 1648.533522 3853.000612 2351.37107 3928.152224 C 3054.208618 4003.303836 3601.526855 3981.856459 3934.170145 3960.409081 C 4266.813434 3938.790124 4384.781776 3917.342746 4497.434684 3654.483683 C 4610.087591 3391.62462 4717.425065 2887.353871 4921.297679 2597.556902 C 5125.170293 2307.931511 5425.578047 2232.779899 5645.568429 2055.710347 C 5865.55881 1878.640796 6004.960354 1599.653304 6128.415595 1363.560569 C 6251.870837 1127.639412 6359.036845 934.441432 6439.625683 923.631954 C 6520.043055 912.994055 6573.711792 1084.573077 6579.027226 1304.537385 C 6584.514126 1524.673271 6541.476257 1792.851284 6273.304038 2136.180909 C 6004.960354 2479.510534 5511.482319 2897.991771 5119.854859 3214.555068 C 4728.055933 3531.118365 4438.450513 3745.763723 4352.546241 4030.070164 C 4266.813434 4314.376605 4384.781776 4668.515708 4465.199148 4947.5032 C 4545.787987 5226.490691 4588.65439 5430.32657 4652.953995 5923.959419 C 4717.425065 6417.592268 4803.157872 7200.850508 4991.084184 7839.296052 C 5178.83903 8477.741596 5468.44445 8971.374445 5667.00163 9255.680886 C 5865.55881 9539.987327 5972.896284 9615.138939 6026.565021 9652.714745 C 6080.062292 9690.290551 6080.062292 9690.290551 6047.998223 9266.318786 C 6015.762687 8842.518599 5951.291617 7994.918226 5886.992012 7324.215825 C 5822.520941 6653.685003 5758.221337 6160.052155 5913.740648 5398.241293 C 6069.431424 4636.258852 6444.941117 3606.269977 6852.686345 2817.521209 C 7260.431573 2028.94402 7700.412336 1481.606937 7813.065244 1045.967797 C 7925.718151 610.328658 7711.043204 286.215884 7458.988753 124.073707 C 7206.762836 -37.89689 6917.157415 -37.89689 6970.654687 408.551727 C 7024.323424 854.828766 7421.437783 1747.726001 7598.390296 2558.951621 C 7775.514274 3370.177242 7732.476406 4099.902826 7652.059033 4588.045147 C 7571.64166 5076.187467 7453.501853 5323.089681 7469.619621 5811.232001 C 7485.737388 6299.5459 7635.941265 7029.099906 7641.428165 7635.460173 C 7646.743599 8241.648861 7507.17059 8724.472231 7185.329634 9030.397629 C 6863.488678 9336.151448 6359.036845 9464.835715 6160.65113 9668.843173 C 5962.093951 9872.679053 6069.431424 10151.666544 6187.399766 10494.996169 C 6305.539573 10838.325794 6434.138783 11246.169131 6412.705582 11702.054595 C 6391.27238 12158.111638 6219.635301 12662.553965 6214.319867 13172.143663 C 6208.832968 13681.733361 6369.839178 14196.985167 6659.616064 14690.446437 C 6949.221485 15184.079286 7367.769046 15656.264757 7662.861367 15902.995392 C 7957.953687 16149.726027 8129.590765 16171.173405 8274.479208 15902.995392 C 8419.367651 15634.6458 8537.335993 15076.842397 8671.422103 14787.045427 C 8805.508212 14497.248457 8955.883555 14475.972659 8955.883555 14406.139996 C 8955.883555 14336.478913 8805.508212 14218.260966 8692.855304 14288.093628 C 8580.202397 14357.754712 8505.100458 14615.466404 8564.084629 14760.279099 C 8623.240265 14905.091795 8816.310546 14937.348651 9030.985493 14969.433928 C 9245.488975 15001.519206 9481.597124 15033.776062 9884.026918 15264.549848 C 10286.285247 15495.152055 10855.036685 15924.44277 11171.562207 16112.150221 C 11488.087729 16300.029251 11552.558799 16246.325017 11429.103558 15983.465954 C 11305.648316 15720.606891 10994.438229 15248.42142 10838.918918 14878.153888 C 10683.399607 14508.057936 10683.399607 14239.879923 10774.619313 13950.082953 C 10865.839019 13660.457563 11048.278431 13349.213215 11095.260009 13031.620444 C 11142.413053 12714.027672 11054.279728 12390.086477 11014.671171 12197.574813 C 10975.062614 12005.063149 10983.978826 11944.152596 11004.040303 11872.089407 C 11024.10178 11800.026217 11055.308521 11716.810391 11047.078172 11640.286147 C 11038.847822 11563.761902 10991.351848 11493.92924 10954.315275 11441.940796 C 10917.107237 11389.952352 10890.358602 11355.979706 10831.031499 11366.274447 C 10771.532932 11376.740767 10679.455897 11431.646055 10598.524128 11475.570285 C 10517.592359 11519.322936 10447.634389 11551.92295 10415.741785 11635.138776 C 10383.84918 11718.354602 10389.850477 11852.014661 10483.470702 11921.847323 C 10576.919461 11991.679986 10758.158614 11997.685251 10868.9254 11956.677865 C 10979.52072 11915.842057 11019.643674 11828.336756 11027.874023 11723.501973 C 11035.932907 11618.838769 11012.270652 11497.017663 10983.292964 11386.349193 C 10954.315275 11275.680723 10920.193618 11176.16489 10851.778839 11116.626969 C 10783.364059 11057.260627 10680.827622 11038.043776 10614.813361 11031.352194 C 10548.627635 11024.660612 10518.964084 11030.665878 10502.67485 10994.977441 C 10486.385617 10959.289005 10483.470702 10882.078444 10423.286271 10805.5542 C 10363.101841 10729.029956 10245.647896 10653.192028 10106.074887 10623.508857 C 9966.501878 10593.825686 9804.466874 10610.125693 9429.471578 10759.571022 C 9054.304817 10908.844772 8466.177764 11190.920686 8169.027856 11465.79028 C 7871.877949 11740.659875 7866.048118 12007.979993 8186.86028 12115.045303 C 8507.672442 12221.939034 9155.298063 12168.406379 9586.191148 11975.379978 C 10016.912769 11782.181999 10230.730388 11449.490273 10391.393667 11098.954329 C 10551.714016 10748.246807 10658.537093 10379.866644 10676.540982 9818.460081 C 10694.373406 9256.881939 10623.043711 8502.277396 10575.547736 7691.223355 C 10527.880295 6880.169314 10504.218041 6012.665774 10331.723634 5272.988606 C 10159.572159 4533.139859 9838.588531 3921.117484 9514.861453 3246.811924 C 9190.96291 2572.334785 8864.149452 1835.574461 8659.248044 1345.373192 C 8454.175171 855.171924 8371.014349 611.529711 8463.091383 513.38651 C 8555.168417 415.414888 8822.654773 462.942277 8971.143994 557.997056 C 9119.633215 653.051835 9149.468232 795.634003 8997.89263 1158.180478 C 8846.317028 1520.555375 8513.673739 2102.894579 8469.092679 2928.875995 C 8424.51162 3754.685832 8668.164256 4824.309461 8923.64802 5721.496172 C 9179.131783 6618.682883 9446.446674 7343.604255 9746.511497 7789.194977 C 10046.57632 8234.957279 10379.391075 8401.217352 10587.378863 8380.45629 C 10795.366652 8359.695228 10878.527474 8151.741453 11029.931611 7403.142176 C 11181.507213 6654.37132 11401.326128 5364.954962 11279.585543 4503.456688 C 11157.844958 3641.786835 10694.373406 3208.035065 10320.063972 2913.94862 C 9945.583073 2619.862175 9660.435759 2465.441054 9583.104767 2331.609416 C 9505.945242 2197.949357 9636.602039 2085.05036 9767.430301 1972.151363 " stroke="#000000" stroke-width="46.82" stroke-opacity="1" stroke-miterlimit="22.926001"/></g></svg>